<svg width="200" height="180" fill="none" xmlns="http://www.w3.org/2000/svg"><g clip-path="url(#clip0)" fill="#284855"><path d="M135.759 159.161c.019-.875.546-1.675.354-2.581-.019-.093.204-.242.179-.335-.105-.478.013-.894.131-1.359.118-.478.322-.931.397-1.408.049-.342.372-.639.056-1.08-.224-.31.223-.695.273-1.104.043-.391.341-.732.378-1.216.062-.887.943-.9 1.576-1.105.285-.093.62-.006.93-.018.168-.006.416.006.497-.093.515-.652 1.278-.528 1.842-.373.515.143.98-.285 1.458.062.286.211.168-.192.279-.248.397-.204.267-.688.528-.974a5.64 5.64 0 00.757-1.036c.136-.242.26-.447.521-.558.08-.031.155-.075.235-.112-.688-.732.435-1.135.329-1.774-.025-.162-.037-.447.143-.466 1.148-.118.378-.527.236-.968-.131-.409.124-.912.391-1.284.235-.329.415-.515-.18-.465-.286.025-.509-.075-.72-.267-.329-.298-.682-.558-1.16-.552-.155 0-.31-.093-.298-.199.05-.447-.143-.478-.533-.471-.336.006-.199-.658-.553-.633-.657.049-.558-.751-1.054-.838-.571-.105-.484-.651-.67-1.017-.248-.484-.745-.794-.949-1.328-.162-.41-.317-.8-.286-1.26.056-.825.118-.837.999-.713.453.062.813.174 1.203.422.379.236.857.465 1.353.416.385-.044.682.105.993.273.297.161.583.428.943.062.136-.143.328-.019.471.105.465.416.98.192 1.427.025.354-.13.608-.254.974-.031.242.149.391-.168.391-.329 0-.136-.248-.31-.149-.471.453-.745.155-1.713.583-2.364.298-.447-.198-.819.174-1.148.341-.298-.025-.931.44-1.154.354-.174.863.062 1.073-.54.087-.254.453.329.652.068.471-.62.893-1.284 1.321-1.935.044-.063.025-.174.013-.267-.062-.565-.106-1.16-.23-1.675-.149-.621-.645-1.26-1.303-1.583-.359-.173-.595-.353-.608-.763-.006-.211-.136-.285-.322-.353-.459-.168-.509-.534-.484-.974.037-.577.012-1.161-.006-1.738-.013-.384.124-.788-.186-1.147-.143-.168-.131-.416.006-.621.409-.614.291-1.259.198-1.942-.068-.521-.124-1.048-.062-1.607.081-.782-.198-1.588.019-2.395.068-.242-.236-.347-.36-.527-.105-.149-.223-.341-.05-.465.708-.509-.086-1.13.156-1.663-.429-1.098-.267-2.327-.764-3.406.193-.652.199-1.272-.248-1.837-.043-.056-.025-.174-.006-.254.031-.106 1.117-.435 1.191-.348.211.224.658.311.478.782-.211.558.577 1.154-.062 1.694.527.62.459 1.39.533 2.128.813.292.242.8.255 1.259.012.708-.372 1.527.384 2.122.205.162.143.41-.055.577-.441.379-.478.813-.205 1.297.341.596-.242 1.241.099 1.837-.44.428-.093.961-.192 1.414-.118.534-.025 1.061-.075 1.588-.024.267.106.621-.024.788-.373.466-.1.85.086 1.198.155.291.329.633.193.868-.323.546-.006.869.36 1.024.421.18.601.583.955.825.254.174.391.54.763.77.577.353.757 1.079.726 1.78-.031.782-.434 1.508-.379 2.308-.725.565-.564 1.818-1.656 2.116-.192.05-.285.323-.54.348-.229.024-.961.794-.999 1.005-.13.806-.124 1.65-.732 2.308-.049.056-.08.204-.049.242.471.496-.379.831-.131 1.389.199.447-.26.77-.713.962-.602.254-1.241-.242-1.799.18-.565-.397-1.222-.043-1.812-.242-.546-.18-1.079.267-1.606.012-.503-.241-.993-.514-1.502-.75-.099-.044-.273-.013-.378.049-.205.118-.143.311-.025.453.726.857 1.067 2.091 2.314 2.439.409.117.409.564.676.738.236.149.565.081.813.341.502.528 1.073.931 1.905.807.409-.062.725.434.576.837-.099.286-.148.633-.31.844-.31.416-.552.751-.229 1.272.118.186-.155.441-.143.608.043.589-.757.714-.645 1.315.099.565-.509.776-.683 1.235-.117.304-.446.534-.378.937.012.081 0 .242-.031.254-.9.279-.757 1.309-1.321 1.824-.534.497-1.216.608-1.886.757-.708-.651-1.446-.056-2.104.069-.434.08-.924.142-1.259.068-.651-.149-.955.043-1.216.577-.155.31-.329.626-.571.875-.384.391.627.248.205.595-.478.397-.217.794.106 1.018.663.465.998 1.259 1.724 1.638.403.211 0 .93.521.955.54.019.149.683.59.683.031 0 .099.068.093.08-.335.993.639 1.489.856 2.265.087.298.366.509.13.955-.18.329.093.863.416 1.229.353.403.18 1.197-.292 1.328-.204.055-.477.049-.496-.261-.019-.285-.056-.596-.323-.67-.725-.211-.8-.732-.744-1.346.031-.329-.019-.615-.292-.838-.235-.192-.273-.385-.099-.682.13-.224-.124-.584-.267-.64-.446-.179-.415-.502-.422-.85 0-.105.013-.279-.179-.229-.081.019-.143.105-.205.161-.031.031-.075.068-.081.106-.043 1.222-.322 2.463.205 3.654.155.354.372.645.149 1.104-.112.23.037.677.198.944.255.415.199.713-.056 1.085-.13.193-.179.435-.446.279-.149-.08-.23-.217-.261-.477-.105-.918-.372-1.818-.571-2.73-.037-.168-.055-.341-.08-.515-.037-.304.087-.621-.081-.912-.254.205-.366.496-.49.788-.229.558-.403 1.141-.912 1.563-.205.174-.36.54-.347.813.012.236.242.515-.106.608-.192.05-.477-.099-.676-.229-.546-.36-.825-.944-.682-1.527.099-.403-.075-.657-.23-.819-.298-.322-.627-.509-.285-1.03.08-.124-.261-.75-.366-.738-.397.043-.832.18-1.154.416-.261.186-.391.564-.571.862-.298.49-.254 1.148-.949 1.458-.317.143-.131.769-.428 1.173-.459.62-1.067 1.16-1.303 1.929-.093.298-.329.255-.54.23-.223-.025-.267-.211-.26-.391.012-.565-.112-1.173.502-1.551.186-.118.279-.304.316-.552.094-.596.323-1.092.863-1.489.353-.261.26-.906.707-1.216.422-.292.614-.701.627-1.247.006-.193.44-.367.663-.565.36-.329.174-1.123-.316-1.266-.428-.124-.862-.546-1.328-.056-.043.05-.167.044-.254.031-.49-.08-.713-.744-1.315-.601-.478.117-.906.024-1.39-.093a3.713 3.713 0 01-1.483-.714c-.366-.285-.843-.72-1.42-.248-.161.136-.354.05-.459-.106-.503-.744-1.427-.986-1.973-1.669-.143-.18-.279-.235-.546-.117-.137.062-.527-.168-.633-.36-.502-.912-1.334-1.403-2.202-1.868-.695-.366-1.086-1.216-2.016-1.228-.18 0-.342-.255-.379-.503-.037-.236-.223-.409-.422-.484-1.197-.447-1.718-1.625-2.612-2.401.137-.608-.378-.856-.694-1.197-.236-.255-.391-.199-.577.13-.553.986-.9 2.054-1.316 3.09-.384.955-.446 1.346.131 1.942.806.825 1.606 1.631 2.016 2.736.13.347.614.124.645.31.143.875 1.526.993 1.253 2.11-.049.192.248.167.397.235.484.23 1.036.435 1.005 1.123-.012.317.23.224.348.205.67-.099.875.137.943.844.068.732.806.968 1.445 1.005.428.025.627.18.782.534.093.21.416.266.254.645-.105.254.447.173.509.44.137.596.72.577 1.111.763.304.143.651.125.787.534.044.136.267.316.391.304.987-.074 1.433.689 1.837 1.315.273.428.645.72.992.77.583.087.639.446.763.85.149.477.013.781-.422.831-.266.031-.645.106-.781-.031-.707-.707-1.806-.558-2.538-1.253-.285-.267-.707-.292-.397-.813.075-.124-.049-.267-.186-.285-.267-.044-.496-.211-.701-.323-.552-.31-1.408-.279-1.644-.893-.254-.658-1.048-.77-1.185-1.446-.08-.385-.384-.298-.633-.31-.347-.019-.663.062-.725-.497-.056-.496-.528-.949-.95-1.023-.502-.093-.626-.397-.837-.701a6.306 6.306 0 00-1.266-1.39c-.403-.317-.701-.639-.874-1.061-.317-.757-1.111-1.235-1.185-2.122-.007-.068-.211-.124-.323-.186a1.608 1.608 0 01-.844-1.129c-.105-.602-.577-.807-.937-1.13-.272-.242-.477-.124-.533.236-.019.13-.012.329-.087.366-.837.466-1.092 1.421-1.743 2.035-.286.273-.565.54-.707.937-.162.459-.776.168-1.005.521-.205.317-.857.379-.546 1.018.043.093-.292.403-.615.384-.21-.012-.595-.055-.589.149.012.807-.595.838-1.098 1.074-.248.118-.434.409-.596.688-.353.615-.502 1.477-1.532 1.434-.174-.007-.546.384-.521.546.143.992-.85 1.228-1.185 1.892-.136.273-.546.428-.304.838-.54.577-.776 1.458-1.669 1.662-.236.056-.471.143-.533.335-.193.596-.391 1.167-1.08 1.353.217.664-.453.918-.67 1.383-.217.466-.614.85-.937 1.272.292.596-.124.906-.471 1.285-.366.397-.106 1.03-.465 1.47-.391.472-.534 1.092-.956 1.57-.192.223-.484.571-.353.949.167.49.142.782-.323 1.166-.447.373-.763.993-.534 1.682a.788.788 0 01-.062.633c-.198.378-.421.738-.459 1.203-.03.366-.39.422-.645.162-.509-.528-.732-1.117-.558-1.781.285-1.073.688-2.122.924-3.208.068-.322.341-.645.112-1.098-.106-.205.341-.657.44-1.024.106-.378.354-.651.645-.812.385-.205.596-.348.242-.757-.08-.093-.062-.242.044-.36.763-.844 1.265-1.83 1.594-2.916.013-.037.044-.087.08-.106.925-.539 1.056-1.675 1.8-2.376.745-.701 1.365-1.539 2.016-2.333.385-.471.93-.856.906-1.569.745-.23.856-1.154 1.483-1.415.465-.192-.075-.658.372-.769.329-.081.633-.28.949-.422.037-.019.093-.056.093-.087.137-.918 1.018-1.086 1.576-1.576.168-.149.372-.292.453-.484.223-.521.409-1.049 1.098-1.073.409-.683 1.253-.968 1.594-1.682.137-.291.379-.322.54-.508.075-.087.099-.292-.043-.342-.602-.217-1.204-.44-1.824-.583-.304-.068-.72-.167-.819.385-.037.186-.323.149-.478.105-.291-.08-.571-.198-.862-.279-.813-.217-.794-.23-1.582.161-.621.311-1.31.162-1.948.069-.881-.131-.862-.168-1.843.235-.502.205-1.048.062-1.576.118-.384.044-.918-.26-1.098.41-.018.062-.235.111-.353.093-.689-.106-1.42.273-2.066-.199-.527.168-1.092.174-1.62.286-1.308.285-2.605.62-3.945.738-.087.006-.186-.019-.267.006-1.247.36-1.52.366-3.009.025-.198-.043-.335-.006-.409.205-.031.093-.043.341-.223.167-.596-.564-1.353-.254-2.023-.384-.353-.069-.664-.087-.949-.366-.236-.23-.59-.354-.912-.466-1.011-.347-2.029-.676-2.829-1.439-.136-.131-.335-.255-.472-.155-.552.397-.942-.069-1.222-.329-.763-.714-1.594-1.272-2.587-1.57-.217-.062-.273-.192-.279-.378-.006-.18-.1-.472-.217-.391-.552.372-.428-.664-.893-.391-.23.13-.385.112-.503-.174-.186-.434-.378-.887-.974-.868-.335-.881-1.737-.894-1.706-2.091.006-.143-.111-.273-.248-.242-.893.204-.968-.894-1.669-1.024-.223-.043-.142-.397-.23-.571-.229-.44-.272-1.042-.93-1.166-.143-.025-.335-.224-.36-.366-.13-.732-.54-1.241-1.154-1.626-.068-.043-.167-.149-.161-.205.242-1.154-1.017-1.265-1.383-2.004-.298-.595-1.03-.905-1.123-1.687-.031-.248-.41-.447-.596-.695-.186-.242-.366-.168-.614-.155-.18.012-.552-.348-.54-.521.075-.931-.75-1.055-1.24-1.384-.584-.385-1.223-.682-1.682-1.228-1.123-.211-1.96-1.03-3.065-1.341-.967-.273-1.917-.62-2.878-.918-.391-.118-.652-.496-1.117-.149-.111.081-.322 0-.496-.08-.887-.416-1.725-.968-2.817-.478-.297.136-.831-.106-1.271-.13-.565-.031-1.117-.205-1.663.087-.416.223-.745-.168-1.098-.255-.434-.105-.813-.304-1.235-.05-.304.187-.577.156-.862-.043-.242-.167-.614-.186-.757-.062-.596.509-1.247.161-1.805.081-.528-.081-1.055-.038-1.57-.124-.465-.075-.906-.075-1.371-.062-.577.012-1.142-.05-1.73.049-.572.093-1.08-.254-1.608-.428-.161-.05-.366-.136-.508-.087-1.11.416-2.215-.223-3.326-.012-.204.037-.446.049-.632-.124-.745-.701-1.768-.615-2.65-.925-.241-.087-.52-.049-.713-.279-.074-.087-.242-.217-.298-.186-.738.378-1.24.198-1.6-.558-.031-.069-.379-.205-.658-.218-.875-.043-1.694-.366-2.19-1.135-.21-.329-.478-.372-.77-.521-.65-.329-1.358-.602-1.817-1.229-.298-.403-.887.025-1.203-.403-.255-.347-.1-.9-.571-1.135-.31-.155-.447-.72-.993-.36-.254.174-.174-.199-.254-.304-.298-.397-.36-.993-1.104-.968-.267.006-.627-.379-.28-.807-.297-.049.143-.893-.62-.539-.323.148-.614-.255-.608-.664.006-.335-.019-.59-.428-.695-.18-.044-.304-.273-.378-.509-.205-.639-.59-1.166-.987-1.706-.341-.465-.707-1.018-.614-1.688.012-.087.037-.211-.006-.26-.757-.9-.528-2.066-.825-3.09-.162-.552-.751-.856-.782-1.483-.025-.515.124-1.036-.211-1.551-.168-.254-.056-.695-.062-1.049-.006-.347-.025-.682.161-1.029.068-.125-.434-.273-.527-.596-.056-.186-.031-.286.025-.453.149-.422.173-.862-.075-1.272-.23-.372-.149-.676.18-.931.298-.229.255-.552.236-.856-.025-.372-.434-.67-.161-1.11.186-.298-.267-.683.13-1.049.192-.18-.267-.478-.23-.831.031-.292.757-.236.292-.757-.186-.211-.019-.652.161-1 .106-.198.515-.458.143-.787.242-.298.074-.745.248-.987.434-.62.72-1.197.316-1.93-.018-.03-.018-.086-.006-.105.658-.626.28-1.526.596-2.24.192-.427.279-.955.105-1.29-.378-.732.286-1.526-.242-2.209-.093-.124 0-.329.1-.496.285-.478.242-.924-.18-1.303-.186-.174-.18-.39-.199-.608-.012-.13 0-.329-.068-.372-.366-.199-.676-.335-.608-.9.037-.335-.378-.67-.397-1.086-.012-.242-.186-.459-.385-.502-.52-.118-.626-.633-.806-.962-.199-.353-.54-.639-.627-1.005-.087-.385-.31-.775-.285-1.123.05-.639-.348-1.067-.67-1.383-.726-.695-.9-1.477-1.005-2.426-.087-.77-.062-1.607-.62-2.333-.298-.391-.658-1.061-.354-1.576.198-.335.527-.453-.037-.689-.038-.012-.05-.18-.013-.254.298-.67.416-1.328.013-2.004-.05-.087-.007-.341.055-.366.708-.273.484-.881.453-1.36-.025-.464.559-1.041-.223-1.426-.1-.05-.1-.503.043-.757.553-.98.44-2.11.701-3.158.155-.62.416-1.247.31-1.923-.018-.112.137-.261.106-.366-.186-.702 1.408-.546.701-1.483.372-.521.41-1.223.862-1.7.298-.31.075-.85.447-1.067.72-.416.714-1.316 1.328-1.806.62-.503 1.414-.906 1.439-1.886 0-.068.093-.149.161-.205.354-.273.943-.093 1.123-.744.13-.466.565-.757 1.13-.788.167-.006.136-.298.204-.447.186-.385.627-.608 1.018-.44.316.136.508.093.682-.137.205-.273.254-.732.639-.776.558-.068 1.055-.465 1.65-.303.031.068.044.16.093.192.068.043.137-.019.087-.087-.031-.05-.124-.062-.192-.093.577-.627 1.445-.738 2.122-1.198.21-.142.316 0 .446.087.44.304.875.304 1.31-.006.564-.403 1.209-.428 1.81-.223.733.254 1.322-.075 1.93-.31.366-.143.534-.484.385-.875-.205-.546 0-.987.297-1.409.49-.688.987-1.352 1.254-2.196.105-.329.297-.986.98-.869.236-.446.633-.887.676-1.352.056-.627.627-.546.887-.863.199-.242.559.075.726.28.118.142.112.496-.13.57-.379.124-.583.335-.683.714-.223.906-.788 1.632-1.315 2.376-.267.379-.744.676-.279 1.229.037.043-.093.223-.13.347-.124.41-.199.782-.664 1.049-.354.21.291.812-.025 1.116-.39.385-.056.881-.347 1.247-.075.1-.155.255-.124.36.13.49-.546.366-.553.794-.006.435.391.578.503.9.05.149.05.385-.037.509-.329.459-.23.813.167 1.154.193.167.186.36.044.59-.304.49-.081 1.042-.118 1.563-.031.385.52.316.552.788.08 1.433.993 2.568 1.557 3.822.13.279.329.235.546.242.062.372-.155.781.174 1.123.21.217.397.297.657.062.211-.193.112-.304.031-.521-.167-.422-.546-.484-.862-.664.019-.23 0-.435-.198-.602-.205-.174-.41-.385-.33-.683.2-.75-.31-1.334-.508-1.973-.1-.322-.198-.484.056-.732.21-.205.037-.254-.149-.316-.205-.069-.254-.242-.143-.416.292-.447.217-.893.112-1.384-.105-.459.217-.936-.124-1.445-.143-.211.341-.447.558-.664.069-.068.18-.031.174.08-.043.497.36.87.298 1.397-.143 1.228.242 2.432.291 3.667.019.545.428 1.091.64 1.644.216.583.57 1.203 1.091 1.638.168.136.304.21.403.446.31.757 1.13 1.13 1.905.937.143-.037.23-.174.068-.236-.515-.204-.192-.887-.744-1.16-.335-.167-.267-.893-.739-1.166a.49.49 0 01-.241-.571c.086-.341-.087-.633-.267-.85-.422-.509-.006-1.011-.08-1.464-.07-.428-.342-.894-.386-1.34-.024-.211.137-.571.255-.838s.372-.602.651-.552c.31.056.41.428.379.77-.006.043 0 .086 0 .136-.025.347.03.738-.106 1.042-.186.422.15.633.26.906.15.354-.036.782.143 1.03.522.72.683 1.57.987 2.357.161.41.57.36.75.67.187.323-.061.733.249 1.006.111.099.167.297.403.13.521-.385.59-.652.23-1.191-.199-.298-.751-.478-.33-.98-.247-.51-.44-1.055-.75-1.515-.397-.583-.21-1.08.05-1.6.068-.137.192-.186.322-.15.137.038.193.156.186.305-.018.496.007.95.422 1.34.31.292-.05.887.428 1.191.366.23.1.794.503 1.036.335.199.143.596.198.869.112.558.267.782.857.744.223-.012.452.236.694.342.15.068 1.334-.447 1.384-.584.012-.03 0-.099-.013-.105-.83-.248.18-1.272-.639-1.539-.062-.018-.099-.248-.074-.366.161-.682-.124-1.346-.341-1.91-.193-.503.149-.993-.18-1.428-.093-.124 0-.446.174-.428.676.069.657-.633 1.036-.88.148-.094.384-.305.44-.2.372.696 1.154-.074 1.458.385.323.497.9.503 1.24.888.31.353.733.595.758 1.19.012.311.248.74.688.85-.025.956.9 1.583.875 2.526-.006.36.112.627.403.776.788.403.856 1.24 1.179 1.917.161.335-.149.664-.478.533-.341-.136-.75-.21-.88-.67-.156-.54-.596-.887-.925-1.309-.28-.36-.75-.62-.683-1.284.038-.36-.583-.683-.502-1.272.087-.627-.484-1.073-.713-1.62-.211-.496-.77-.818-1.049-1.34-.273-.508-.962-.062-1.315-.477-.18.322-.36.645-.546.974.62.52-.192 1.346.403 1.886.068.062.056.291-.006.385-.174.26-.304.452.155.508.05.007.124.137.124.211-.018.49.28.906.36 1.384.043.285.46.62.608 1.005.062.167.136.316.124.502-.012.218-.192.404-.31.298-.8-.707-1.284-.149-1.8.391-.08.087-.303.18-.334.15-.466-.472-.906 0-1.328.067-.515.087-.974-.353-1.476-.062-.44.255-.869-.099-1.34-.056-.69.056-1.409-.44-2.135.044-.149.1-.36-.031-.453-.186-.272-.44-.843-.224-1.16-.552-1.402.242-1.898-1.043-2.76-1.682-.422-.31-.732-.763-1.092-1.16-.286-.31-.75-.558-.292-1.098.112-.13-.062-.317-.18-.46-.639-.731-1.34-1.432-1.21-2.537-.409-.608-.682-1.222-.192-1.936.044-.056-.18-.273-.242-.428-.223-.57-.366-1.104-.124-1.762.366-.986-.167-1.446-1.24-1.117-.398.125-.87.23-1.148.031-.534-.378-1.092-.198-1.303.118-.397.608-.943.124-1.377.379-.366.21-.788.657-1.31.21-.123-.105-.29.056-.303.137-.118.658-.894.44-1.16.887-.118.199-.261.081-.435.031-.415-.111-.738.112-.949.46-.223.366-.366.601-.924.378-.354-.136-.776.298-.881.745-.106.459-.199.85-.807.75-.291-.043-.31.224-.428.397-.198.298-.236.813-.819.689-.105-.025-.235.211-.167.298.353.422.012.695-.255.819-.905.428-1.302 1.321-1.954 1.979-.13.13-.291.329-.186.46.738.855-.471 1.271-.453 1.99.006.28-.57.503-.198 1 .111.155-.583.44-.404.72.23.36.05.657-.093.806-.49.502-.546 1.08-.508 1.712.012.174.018.385-.069.515-.366.54-.18 1.117-.217 1.694-.043.726.019 1.44.019 2.153 0 .087.037.211-.006.26-.422.454-.348.969-.267 1.514.087.565-.093 1.154.118 1.713.012.037.087.087.074.105-.39.745-.335 1.353.304 2.01.267.274.18.962.124 1.446-.043.379-.167.633.33.813.347.124.433.41.222.856-.248.528.007 1.198.472 1.452.552.298.39.986.986 1.278.416.205.869.794.838 1.39-.019.39.626.161.428.633-.068.173.068.496.205.676.223.285.142.59.192.887.05.341.36.49.57.714.516.552 1.136 1.017.931 1.954-.037.168-.024.614.242.85.186.168.137.416.118.633-.03.397-.416.744-.018 1.197.235.273-.33.683 0 1.068.086.099.062.34-.075.496-.31.366-.105.496.248.645.348.149.341.372.075.695-.273.323-.397.77-.633 1.13-.149.235-.087.378.037.589.161.279.236.589-.198.738-.298.105-.069.248-.025.385.18.632.087 1.29-.341 1.724-.51.515-.23 1.068-.292 1.595-.043.366.08.738-.105 1.11-.249.49.043 1.167-.522 1.564.701.72-.502 1.595.193 2.327.13.136-.062.316-.124.471-.112.292-.51.639.105.881.068.025.112.385.037.484-.279.348-.304.633.075.894.298.204.03.353-.025.533-.155.49-.372.987.118 1.433.186.168.155.404.112.621-.18.875-.273 1.898.062 2.382.459.664.173 1.613.924 2.128.08.056.087.236.105.36.087.757.224 1.285.683 1.942.217.304.403.509.161.881-.087.131-.043.354.093.497.937.955 1.408 2.27 2.531 3.102.397.291.77.825.757 1.445.658-.062.937.602 1.477.764.111.651.825.868 1.036 1.489.136.39.508.806 1.104.446.192-.118.434.05.565.242.353.503.632 1.086 1.358 1.142.037 0 .087.05.1.087.148.577.452.813 1.023.471.447.677 1.42.447 1.91 1.235.323.527 1.037 1.117 1.918.726.416-.186.645.254.819.422.657.626 1.538.651 2.29 1.005.334.155.837-.13 1.147.155.353.323.713-.242 1.06.105.112.118.392-.006.609-.111.49-.248 1.03-.186 1.538-.025.608.192 1.198.316 1.843.174.527-.118 1.06.074 1.613.024.471-.043 1.023.05 1.544.199.478.137.987.335 1.595.087a1.793 1.793 0 011.538.112c.435.254 1.061.26 1.396.024.428-.297.85.187 1.179-.173.347.341.794.068 1.166.099.658.05 1.384.453 2.041-.087.093-.074.385-.037.497.056.322.267.72.242 1.017.155.633-.186 1.123-.006 1.675.273.496.254 1.011.627 1.65.292.124-.062.354.012.503.08.689.31 1.414.422 2.153.447.515.019.912.267 1.29.565.354.279.72.508 1.179.502.298-.006.49.118.695.31.26.249.453.689.986.342.217-.137.478.248.546.44.211.546.633.807 1.117 1.024.651.285 1.24.67 1.675 1.222.465.596 1.247.701 1.73 1.241.143.161.385.292.435.471.105.367-.354.888.378 1.08.435.112.522.639.844.937.689.639 1.173 1.489 1.743 2.258-.142.497.33.521.552.751.348.36.913.62.795 1.291-.044.254.155.328.366.452.583.36.961.931 1.24 1.545.081.186.193.236.33.335.421.311.706.788 1.066 1.117.608.559 1.092 1.21 1.681 1.775.162.155.335.248.565.304.403.105.869.18.999.713.025.106.198.267.285.255.813-.118 1.13.657 1.638.998.726.491 1.563.708 2.283 1.192.254.167.608.26.869.502.83.763 1.979.825 2.934 1.309.186.093.174-.111.217-.211.093-.192.248-.266.416-.142.217.155.397.353.59.539.18.18.359.224.576.044.093-.081.26-.168.354-.13.465.173.9.874 1.402.049.1.087.217.162.304.261.428.509 1.16-.05 1.582.459.13-.124.273-.236.39-.366.323-.366.67-.596 1.136-.223.118.093.26.111.36.024.583-.539 1.526.044 2.053-.67.08-.105.236-.068.366-.006.64.335 1.229.478 1.607-.378.068-.156.267-.205.46-.224.558-.056 1.128.131 1.68-.236.335-.229.503.534.832.36.223-.124.186-.477.676-.527.856-.081 1.675-.223 2.531.037.41.124 1.061-.006 1.644-.279.217-.099.292.012.44.05.398.111.758.006 1.136-.174.279-.137.552.484.943.081.198-.205.484-.143.732 0 .105.062.335.136.347.111.373-.639.919-.186 1.378-.223.477-.031.98.087 1.408-.248.043-.031.161.025.242.049.44.131.924.453 1.309.36.62-.149.682.403 1.03.565.217.099.409.087.626 0 .546-.23.639-.435.912-1.291.18-.571.509-1.073.59-1.706.043-.335.273-.633.031-.968-.137-.192.037-.217.142-.242 1.024-.242.813-1.141.974-1.836.013-.062-.055-.149-.086-.217.62-.18.67-.627.781-1.204.075-.397.472-.788.596-1.26.105-.421.384-.682.862-.589.689.13.304-.434.434-.602.366-.453-.248-1.117.447-1.489.211-.112-.174-.899.211-1.055.49-.198.453-.67.428-.856-.081-.676.347-1.34-.043-2.053-.149-.267-.28-.726-.075-1.198.23-.54-.18-1.098-.409-1.594-.577-1.247-1.222-2.464-1.421-3.835-.05-.329-.205-.651-.354-.819-.558-.645-.688-1.439-.707-2.184-.018-.788-.267-1.458-.595-2.115-.23-.453-.621-.832-.311-1.39-.297-.254-.204-.652-.359-.974-.348-.714-.28-1.533-.354-2.314a.929.929 0 01.037-.391c.255-.708.323-2.01.081-2.575-.161-.385-.509-.732.018-1.104.18-.125-.037-.218-.08-.317-.248-.502-.267-.974.192-1.371.329-.279.192-.366-.13-.49-.379-.149-.155-.447-.174-.714-.025-.397.726-.093.434-.62-.074-.143.149-.453.242-.683.031-.074.143-.186.131-.198-.515-.54-.267-1.018-.031-1.62.211-.545-.062-1.265.111-1.836.174-.565.559-1.08.825-1.638.193-.403.627-.651.615-1.197-.013-.478.558-.757.601-1.204.075-.769.677-1.111 1.123-1.576.199-.205.54-.254.633-.602.068-.248.571-.341.254-.744-.018-.025.125-.255.218-.28.775-.223 1.042-1.234 1.96-1.259.13-.006.304-.205.378-.36.255-.509.739-.763 1.204-.9.775-.229 1.303-.887 2.115-1.073.36-.087.646-.428 1.055-.13.161.118.248-.05.298-.137.459-.812 1.303-.725 2.035-.819.453-.062.844-.074 1.179-.453.291-.322 1.184-.558 1.619-.415.428.142.906-.155 1.284.192.099.087.149.1.198-.018.317-.739.826-.59 1.347-.273.248.148.266 0 .322-.174.044-.13.162-.174.304-.205.528-.13 1.024.335 1.495.168.491-.18.931-.05 1.39-.075 1.098-.062 2.202.503 3.282-.006.279-.13.422.012.564.174.311.36.757.384 1.105.266 1.216-.41 2.121.336 3.114.751.223.093.354.422.676.329.615-.174 1.018.242 1.402.565.335.285.67.49 1.08.366.236-.069.353.043.44.136.571.627 1.409.75 2.091 1.142.713.41 1.284 1.06 1.96 1.532.429.298.577.956 1.309.931.249-.013.28.775.112 1.104-.447.875-1.241 1.347-2.072 1.682-.844.335-1.7.614-2.481 1.092-.218.13-.472.471-.826.161-.229-.199-.415.074-.57.155-.9.453-1.706.571-2.525.813-.9.267-1.973-.056-2.711.763-.497-.099-.95.602-1.477.087-.105-.106-.26-.087-.36.006-.49.465-1.228.161-1.731.583-.093.075-.273.162-.353.124-.745-.341-1.154.248-1.713.509-.366.168-.607.918-1.228.403-.093-.074-.105.18-.174.255-.775.875-.998 2.004-1.408 3.046-.068.18-.037.285-.006.453.136.825.236 1.663-.192 2.445-.062.105-.187.241-.162.322.248.689.298 1.365-.006 2.048-.273.608.174 1.34-.322 1.917.446.999-.081 1.818-.497 2.661.304.329-.08.714-.012.906.31.838-.211 1.601-.087 2.414.099.664-.137.794-.838.868-.397.044-.887-.192-1.11.422-.075.205-.416.05-.62.112-.366.118-.658-.329-1.092-.05-.261.168-.615-.211-.577-.533.056-.552-.31-.981-.317-1.533-.006-.484-.539-.819-.577-1.427-.024-.384-.415-.93-.949-1.148a2.436 2.436 0 01-.676-.39c-.261-.236-.453-.348-.807-.112-.192.13-.508.099-.769.099-.769 0-1.346.255-1.656 1.03-.174.434-.466.825-.708 1.241-.986.074-1.005 1.017-1.184 1.601-.211.67-.435 1.402-.404 2.153.013.384.143.812-.118 1.172-.155.211.038.298.093.441.286.763.54 1.545.857 2.302.347.831 1.29 1.669 2.233 1.768.658.068.993.713 1.644.701.124 0 .137.248.056.329-.223.223-.168.707-.701.651-.397-.043-.757-.242-1.216-.037-.465.211-.676-.453-1.111-.589-.403-.125-.552-.311-.694.285-.143.583-.193 1.328-.999 1.545-.205.056-.23.385-.36.515-.366.36-.217 1.346-1.185 1.036-.031-.012-.323.44-.267.54.317.558-.273 1.141.106 1.687.08.118.087.404 0 .497-.521.595-.186 1.371-.466 2.016-.08.186-.006.441-.211.596-.434.322-.421.812-.316 1.222.168.639-.081 1.396.577 1.923.248.199.31.615.503.894.155.229.527-.106.713.235.143.267.552.478.552.714.006.608.23.459.602.329.273-.093.533.025.515.397-.019.434.384.813.583.794 1.166-.143 1.445 1.539 2.668 1.235.192-.05.39.235.446.434.069.242.199.447.385.503.44.124.775.297.813.8.601.05.893.589 1.346.869 1.024.626 2.202.918 3.22 1.569.391.248 1.092-.043 1.253.695.043.211.186.019.285.013.72-.044 1.483-.391 2.097.297.13.143.211.025.323-.024.422-.199.85-.54 1.061.273.068.273.254-.056.39-.1.304-.093.559-.31.795.186.086.187.459.391.732.522.316.142.446.322.471.688.025.379-.316.943.391 1.098a.434.434 0 01-.025.199c-.298.583.013.968.422 1.322.031.068.037.155.093.192.068.049.13-.013.081-.081-.05-.056-.143-.068-.205-.099zm.54 1.594c.068-.031.173-.043.204-.093.044-.074-.031-.142-.105-.093-.05.031-.062.131-.087.205-.068.025-.161.037-.192.087-.05.068.012.136.087.093.049-.043.062-.137.093-.199zm-17.942-53.053c.143-.006.242-.075.254-.211.007-.075-.018-.205-.062-.217-.179-.062-.161.08-.167.198v.255c-.068.031-.161.043-.192.093-.044.068.018.13.086.08.05-.037.056-.13.081-.198zm5.627 11.546c-.031-.068-.043-.167-.093-.198-.081-.044-.143.024-.093.087.043.049.136.062.205.093.136.26.266.527.422.781.024.038.179.031.241-.006.143-.099.18.044.094-.062-.224-.267-.193-.844-.776-.695zm19.536-20.896c-.031-.068-.037-.168-.093-.199-.075-.05-.149.025-.099.087.037.056.136.062.204.093.577.335.875.466 1.055.41.074-.025.118-.124.18-.186.074-.081.056-.174-.068-.18-.391-.025-.782-.025-1.179-.025zm-14.436 15.802c-.354.373-.466.757-.317 1.291.149.527.447 1.048.31 1.644-.012.062.075.143.118.217.044-.062.118-.124.131-.192.018-.13-.013-.267.006-.397.161-.887-.416-1.7-.267-2.581.068-.031.167-.044.199-.099.043-.075-.025-.137-.087-.087-.056.043-.062.136-.093.204zm7.692 45.106c-.198.255-.13.534.143.571.323.043.081-.335.199-.472.254-.297.279-.626.248-.992-.013-.168-.037-.447.136-.472.602-.08.304-.651.552-.924.304-.329-.093-1.012.59-1.204.074-.025.13-.639.012-.72-.279-.192-.453-.595-.707-.651-.496-.106-.23.44-.379.67-.266.41-.645.838-.235 1.39.087.118-.069.242-.211.267-.267.049-.143.167-.13.347.037.633.142 1.303-.329 1.855-.118.149.074.224.111.335zm10.876-58.724c-.162.099-.118.248-.056.347.174.298.633.515.236.962-.025.025-.019.292.204.149.218-.137.447-.248.658-.385.192-.124.161-.273-.006-.403-.304-.23-.707-.323-.949-.645-.025-.019-.069-.019-.087-.025zm-31.77 32.914c-.137.068-.224.23-.155.31.173.199.099.652.459.608.173-.025.571-.062.54-.446-.013-.156-.671-.503-.844-.472zm2.159-.906c-.162-.198-.31-.391-.466-.577-.111-.136-.198-.043-.304.031-.254.18-.08.335-.012.528.068.192.031.428.062.639.006.049.081.359.168.111.111-.322.111-.67.552-.732zm27.092-32.951c.099.074.205.23.298.217.31-.031.62-.118.93-.199.075-.018.05-.099-.024-.192-.18-.217-.404-.323-.683-.28-.236.038-.354.23-.521.454zm-24.121 19.122c-.291.055-.558.49-.465.62.062.081.236.168.31.137.18-.069.41-.174.379-.41-.019-.149-.168-.273-.224-.347zm-.515-20.4l-.142-.162c-.118.218-.484.075-.521.379 0 .006.229.056.347.062.205.006.31-.1.316-.28zm-1.743 7.848c-.167.18-.149.385-.074.59.043.124.124.136.155.037.043-.155.068-.323.074-.484-.006-.044-.105-.093-.155-.143zm23.203 28.36c-.075.019-.199.025-.211.069-.069.198.124.254.235.353.081.075.162.062.18-.056.031-.167.031-.341-.204-.366zm-13.01-16.584c-.043.062-.112.124-.118.192-.006.069.037.193.075.205.161.031.161-.099.149-.205-.013-.068-.069-.13-.106-.192zm-16.893-8.27c-.161.093-.099.211-.062.328.05.131.112.131.161 0 .025-.074.056-.161.037-.235-.006-.044-.099-.069-.136-.093zm30.455-11.745c.062.043.124.118.192.13.068.013.199-.03.211-.074.043-.162-.087-.18-.199-.162-.08.007-.142.069-.204.106zm-4.771-2.19c-.012.025-.043.056-.037.074.012.031.056.087.068.08.099-.043.112-.099.05-.142-.019-.018-.056-.012-.081-.012zm-19.766 4.163a3.26 3.26 0 00.1-.08c-.031-.032-.062-.088-.093-.088s-.062.05-.1.08c.025.026.056.057.093.088zm29.401.124c-.013.025-.038.056-.031.074.012.031.055.087.068.081.093-.043.105-.105.043-.155-.018-.013-.056 0-.08 0zm-31.454 1.675l-.087-.105c-.031.031-.087.062-.087.093s.05.068.081.099c.031-.025.062-.056.093-.087zm-2.506 3.834c.031-.031.068-.055.099-.087-.031-.031-.056-.086-.093-.093-.031-.006-.062.05-.099.081.031.037.062.068.093.099zm-.565.919c-.012.024-.043.055-.037.074.012.031.043.056.068.081.013-.05.031-.1.044-.149-.025 0-.05-.006-.075-.006zm-.763 2.649c-.031.031-.093.068-.087.087.044.136.112.142.168.006.006-.012-.05-.062-.081-.093zm6.502 4.895c-.025-.031-.056-.062-.081-.093-.031.031-.062.056-.087.087.044.031.087.062.124.093.013-.031.031-.062.044-.087zm-.385.484c-.012.025-.043.056-.037.075.012.031.056.086.062.08.093-.043.112-.099.049-.149-.012-.006-.043 0-.074-.006zm10.553 6.484l-.075-.093c-.024.031-.055.055-.08.086l.111.093a.583.583 0 01.044-.086zm-.341 2.866c-.031.031-.093.068-.087.087.043.136.111.136.173.012 0-.018-.062-.068-.086-.099zm-14.387 4.647c-.025-.031-.05-.056-.075-.087-.031.025-.055.05-.08.075.037.031.074.056.111.087.019-.025.031-.05.044-.075zm20.082 29.744l-.075-.093c-.031.031-.087.062-.087.093s.05.068.075.099c.031-.031.056-.062.087-.099zM76.593 31.01c.161.446-.186.7-.298 1.017-.13.385-.49.484-.88.416-.348-.062-.584.204-.826.347-.298.168-.577.161-.881.193-.217.024-.341-.404-.534-.125-.142.211.15.385.205.584.069.242.46.508-.012.757-.372.198-.894.13-.887-.187.012-.552-.416-.608-.645-.837-.956-.962-1.83-2.004-2.867-2.885-.167-.143-.415-.31-.36-.528.199-.769-.421-1.141-.738-1.662-.322-.534-.533-1.123-.98-1.589-.198-.204-.434-.527-.41-.775.056-.577-.241-.906-.607-1.241-.162-.149-.323-.341-.13-.57.663-.777.192-1.471-.205-2.117-.261-.421-.646-.726-.236-1.278.236-.316-.13-.688-.26-.806-.714-.646-.398-1.57-.733-2.302-.062-.137-.043-.391.137-.478.645-.31.397-.763.198-1.197-.254-.559-.509-1.055-.124-1.731.224-.397-.161-.919-.502-1.278-.193-.205-.286.099-.435.117-.484.056-.36.677-.794.82-.36.117-.757.223-1.03.533-.496.57-1.34.682-1.761 1.365-.435.707-1.31.85-1.868 1.359-.465.434-.85.949-1.42 1.284-.236.136-.422.31-.714.273-.285-.031-.602.05-.682.304-.199.62-1.024.248-1.223.863-.192.589-.992.328-1.278.825-.254.44-.694-.298-1.017.18-.186.266-.515.54-.993.34-.155-.061-.453.187-.67.317-.111.069-.21.26-.297.248-.478-.043-.894-.21-1.285.36-.235.341-.85.404-1.253.652-.236.149-.36.08-.564-.031-.286-.162-.602-.093-.925-.093-1.135 0-2.233-.273-2.934-1.322-.1-.143-.211-.378-.335-.39-1.402-.106-1.018-1.31-1.24-2.085-.106-.373-.261-.869-.125-1.223.18-.459-.062-.75-.143-1.117-.093-.428.28-.707.422-1.067.1-.254.62-.136.503-.44-.118-.304.062-.403.192-.534.236-.242.118-.434.05-.707-.05-.205.54-.236.434-.64-.006-.03 1.055-1.11 1.11-1.147.118-.068.242-.149.205-.298-.143-.676.242-.974.8-1.16.038-.012.063-.062.094-.1.428-.433.794-.98 1.24-1.308.472-.342.894-.776 1.408-1.08.242-.143.422-.422.553-.726a1.565 1.565 0 011.123-.949c.601-.143.88-.856 1.619-.881.608-.019 1.005-.683 1.638-.8.39-.075.304-.62.806-.77.645-.192 1.204-.633 1.954-.509.174.031.385-.198.59-.248.44-.105.018-.695.515-.806.34-.08.546.242.961.099.397-.143.565-.515.906-.59.372-.086.806.038.93-.514.013-.069.224-.13.348-.137.329-.025.627-.118.993 0 .241.08.421-.546.868-.471.217.037.447.03.664.012.248-.025.422.1.602.23.105-.18.192-.379.328-.534.286-.323.62-.316.919-.019.285.286.527.435.906.112.186-.161.465-.223.707-.31.074-.025.248-.019.254.012.13.422.62.255.807.466.67.732 1.619.825 2.463 1.104 1.066.354 1.476.577 2.053 1.688 1.005.068.794 1.284 1.532 1.631.397.186.397.534.118.869.503.602.397 1.42.763 2.06.186.322.298.626.267.992-.012.168-.08.416.105.49.733.292.46.838.422 1.366-.03.465-.142.98.36 1.334.255.18.267.576.15.738-.609.837-.057 1.625.105 2.382.16.763.403 1.433-.242 2.073-.081.074-.137.31-.087.36.639.626-.335 1.42.136 1.929.385.41.13.707.1 1.036-.038.391-.441.782.105 1.13.21.136-.025.29-.044.44-.13 1.06-.055 2.09.571 3.003.13.192.025.285-.006.446-.074.385-.056.788-.1 1.185-.049.478.1.838.441 1.192.472.49.453.527.025 1.203-.118.186-.186.317.1.33.57.024.713.371.614.85-.044.285.366.427.16.675zm-33.96-13.836c-.105.012-.236.018-.192.173.012.044.124.056.192.081-.006.403.018.807-.025 1.204-.043.415.13.62.496.8.658.317 1.322.652 1.905 1.086.335.254.422.36.72-.05.142-.192.688-.242.887.168.118.248.192.118.36.105.639-.03.924-.657 1.538-.788.558-.118 1.123-.465 1.551-.856.211-.192.348-.347.627-.323.36.031.707.044.955-.304.143-.192.36-.254.59-.235.657.05 1.135-.298 1.656-.64a3.925 3.925 0 011.675-.62c.248-.025.347.075.515-.217.236-.41.689-.67.856-1.16.043-.13.273-.292.41-.286.676.038 1.104-.273 1.52-.787.285-.348.769-.59 1.21-.72.433-.13.713-.397 1.023-.664.347-.304.738-.559 1.08-.832.427-.347.998-.39 1.377-.843.347-.416.787-.894 1.489-.739.204.044.279-.043.16-.291-.272-.571-.744-.739-1.215-.298-.36.335-.726.682-1.185.776-.155.03-.44-.112-.503.111-.223.794-.967.782-1.526 1.043-.18.086-.496-.02-.471.31.037.496-.385.639-.658.688-.837.168-1.427.776-2.115 1.173-.807.465-1.744.831-2.302 1.669-.18.267-.478.199-.738.199-.614 0-1.148.192-1.415.769-.198.434-.484.57-.937.558-.756-.018-1.271.708-2.04.683-.528.88-1.434.819-2.284 1.048-.589.155-.974-.335-1.501-.136-.335.124-.651-.044-.968-.286-.434-.322-.968-.713-1.464-.713-.59 0-.837-.44-1.278-.583v-.286c.068-.024.168-.037.199-.087.05-.074-.019-.142-.087-.093-.044.031-.056.124-.087.193zM73.15 20.66c-.069.024-.162.037-.199.086-.05.069.013.137.08.093.05-.03.07-.13.094-.198.068-.031.161-.043.192-.1.044-.074-.025-.13-.087-.08-.05.037-.056.13-.08.199zm-5.354 2.655c.03.068.037.168.093.199.068.05.136-.019.087-.087-.037-.05-.13-.062-.199-.093 0-.081.006-.168 0-.248-.006-.106 0-.255-.174-.187-.043.019-.074.143-.062.211.013.137.118.199.255.205zm-3.22-21.157c.025.286.186.329.416.217.148-.068.117-.223.068-.322-.1-.211-.186 0-.273.03-.075.026-.149.063-.223.094-.038-.075-.05-.186-.106-.211-.174-.087-.341-.056-.385.161-.018.068.038.155.063.236.105-.056.21-.118.316-.174.037-.025.087-.025.124-.03zM43.154 15.821c.074-.025.18-.025.223-.08.118-.137.391-.236.155-.49-.055-.063-.136-.162-.192-.15-.329.044-.118.317-.18.478-.025.075 0 .168.007.255-.069.03-.168.043-.205.099-.044.074.024.143.093.093.056-.037.068-.137.099-.205zm24.083 4.84c0-.081 0-.168-.012-.249-.012-.093.019-.254-.161-.186-.044.019-.068.143-.062.217.012.137.118.199.248.199-.013.13.025.304-.044.378-.335.36-.03.515.205.67.087.056.236.031.304-.105-.422-.174.106-.838-.478-.924zm-.514-3.773c.03.069.037.162.086.199.069.05.137-.013.087-.087-.03-.05-.13-.062-.198-.093 0-.211.012-.428-.006-.64-.013-.136.093-.396-.156-.353-.186.031-.384.242-.328.478.062.254.23.447.514.496zM61.634 2.711c-.496-.167-.874.255-1.34.267-.08 0-.31-.012-.18.192.075.118.193.367.366.224.354-.28.912-.217 1.13-.701.068-.031.167-.044.204-.093.05-.069-.018-.143-.093-.093-.043.03-.056.13-.087.204zm5.336.267c0-.08.006-.167-.007-.248-.012-.1.007-.254-.167-.186-.043.018-.068.143-.062.21.019.137.118.2.254.2.037.074.069.21.106.21.7-.006 1.178.248 1.216 1.024.012.28.161.378.422.372.248-.006.477.143.533.335.124.466.577.72.85.683.72-.1.54.583.509.682-.143.521.39.695.471 1.123.143.714.831 1.26.912 1.049.211-.546-.316-.956-.341-1.47 0-.032-.056-.063-.087-.1-.31-.335-.844-.596-.347-1.185.08-.1-.038-.254-.174-.298-.39-.118-.49-.757-1.042-.57-.267-.385-.93-.429-.894-1.068.013-.23.007-.509-.223-.583-.62-.186-1.24-.577-1.93-.18zm-.54 8.6c-.006-.28-.385-.64-.62-.559-.15.056-.373.316-.354.347.167.242.354.49.596.646.062.037.328-.224.378-.435zm-3.983-8.873c.242.025.447-.037.596-.223a.899.899 0 00.124-.211c.006-.006-.075-.08-.1-.068-.279.099-.552.21-.825.322-.012.006-.025.075-.012.08.074.038.149.07.217.1zM44.153 14.586c-.106-.192-.174-.496-.316-.533-.156-.044-.137.23-.137.39.006.218.124.311.323.286.055-.006.093-.1.13-.143zm6.96.267c-.08-.024-.167-.093-.235-.074-.211.056-.379.186-.422.415 0 .013.155.081.23.069.23-.031.36-.186.428-.41zm21.59-2.432c-.124.1-.105.217-.05.329.019.037.056.062.081.093.037-.105.093-.21.112-.316 0-.025-.093-.075-.143-.106zm.267 4.008c-.013.025-.044.056-.037.075.012.03.055.08.068.08.093-.037.111-.093.05-.142-.025-.019-.056-.013-.081-.013zm-30.139.05l-.068-.087a.954.954 0 00-.074.08c.037.032.074.056.111.087a.431.431 0 01.031-.08z"/><path d="M105.255 41.811c.335.1.806-.186.998.149.267.453.553.943.422 1.539-.062.297-.118.62-.068.912.05.285.236.552.36.831.031-.019.081-.05.081-.062-.106-.372.496-.664.111-1.061-.093-.093-.273-.267-.26-.285.614-.826-.013-1.452-.286-2.16-.099-.26-.31-.533-.074-.943.229-.397-.025-.887-.31-1.904-.1-.36.012-.82.328-1.13.05-.05.137-.05.211-.074.18.627 1.08.819 1.018 1.539-.037.446-.075.806.31 1.104.031.025.068.068.074.112.044.385-.514.67-.179 1.098.21.273.577.465.465.9-.093.353.186.577.285.85.286.769-.13 1.557.137 2.308-.404.583.043 1.042.335 1.402.291.36.446.732.279 1.073-.168.329.099.62-.006.82-.217.396.018.483.26.626-.36.304.211.546.068.806-.384.689.007 1.154.311 1.738.223.434.099 1.073.049 1.619-.018.223-.118.354.131.533.378.273.626.683.831 1.111-.434.49.26 1.073-.13 1.57-.118.149-.186.341-.019.477.459.379.589.937.875 1.415.285.484.825.825.18 1.39.328.39-.056 1.017.372 1.315.422.292.143 1.018.775 1.11-.142.485.013.876.354 1.217-.161.85.434 1.352.881 1.917.099.124.112.168.05.292-.273.564.018.936.322 1.42.335.528.844 1.117.385 1.893-.155.26.08.558.248.837.223.385.893.608.701 1.068-.242.583.465.65.409 1.147a.83.83 0 00.757.888c.459.062.329.614.205.874-.198.41-.043.422.273.428.298.007.372.23.341.453-.049.335.075.627.255.857.521.651.552 1.557 1.191 2.14.192.174.012.298-.093.428-.59.726-.087.323.254.286.527-.056.763.378.478.837-.1.162-.217.267-.019.422.354.285.527.608.205 1.024-.186.242-.099.471-.044.738.112.54.156 1.148-.006 1.644-.267.813-.8 1.514-1.644 1.862-.192.074-.465-.025-.558.248-.236.676-.751.732-1.272.477-.279-.136-.428-.012-.564.1-.46.36-.9.174-1.322-.013-1.011-.446-1.911-1.129-2.984-1.451-.205-.063-.236-.367-.36-.528-.167-.21-.602.422-.775-.217-.081-.31-.385-.583-.72-.738-.198-.093-.391-.193-.602-.267-.217-.075-.273-.242-.229-.416.08-.354.31-.72-.379-.707-.204.006-.459-.273-.44-.59.018-.428-.286-.694-.583-.825-.565-.242-.881-.546-.77-1.203.044-.249-.192-.447-.384-.484-.54-.106-.614-.584-.85-.937-.174-.26.025-.695-.496-.82-.249-.061-.18-.514-.094-.725.125-.329.149-.503-.229-.633-.137-.05-.316-.267-.31-.397.062-1.13-.689-1.917-1.129-2.83-.075-.154-.255-.384-.205-.458.72-1.036-.248-1.601-.645-2.296-.162-.285-.174-.44-.006-.695.347-.546.558-1.098-.106-1.6-.31-.236.248-.472.025-.826-.149-.23-.552-.527-.267-.93.223-.317-.279-.559-.087-.838.273-.385.093-.62-.186-.869-.198-.173-.353-.353-.391-.663-.037-.323.304-.577.155-.838-.149-.26-.434-.447-.459-.776-.043-.552-.111-1.11-.062-1.656.019-.211.112-.372-.031-.59-.285-.428-.111-.825.304-.98.434-.161.341-.267.093-.49a.753.753 0 01-.167-.205c-.379-.614-.372-.614-.335-1.613.025-.577.006-1.16.006-1.737 0-.223-.037-.453.019-.664.291-1.142.328-1.16-.087-1.93-.224-.409-.31-.756.087-1.048.421-.31.353-.67.254-1.092-.118-.496.248-.906.347-1.371.1-.472.441-.863.205-1.427-.161-.391.36-.788.031-1.334-.285-.465.143-.999.453-1.42.192-.261.428-.454.124-.795-.248-.28.068-.484.168-.707.173-.397.384-.732.105-1.229-.205-.353.118-.726.447-.955.484-.335.98-.366 1.34-.093.068.05.18.18.173.186-.62.657.509.924.311 1.495-.069.031-.162.043-.193.1-.043.074.025.142.093.099.056-.038.069-.13.1-.199zm6.154 39.925c-.031-.068-.044-.167-.099-.198-.075-.044-.149.03-.1.099.038.056.137.068.199.1.006.179.093.272.273.272-.006.186.08.28.273.26-.006.187.099.261.273.267.031.069.037.162.093.193.068.043.13-.025.08-.093-.037-.05-.124-.056-.192-.087.006-.186-.093-.26-.267-.273 0-.18-.074-.28-.26-.273-.006-.18-.093-.273-.273-.267zm.546-15.002c-.13.006-.242.062-.261.199-.025.186.062.31.261.328.161.714.372 1.415.769 2.048.062.099.019.26.05.39.025.125.068.243.242.118.248-.18.353-.459.254-.7-.174-.429.168-1.111-.602-1.285-.105-.025-.136-.31-.235-.447-.118-.167-.317-.111-.491-.105v-.552c.069-.031.168-.044.199-.093.043-.075-.025-.143-.087-.1-.062.038-.068.13-.099.199zm2.928 7.768c-.037-.161-.037-.335-.112-.472-.055-.093-.223-.111-.316.007-.025.037.006.148.043.198.1.124.193.28.397.254 0 .224.05.453-.006.664-.136.546.106.906.528 1.18.769.502 1.129 1.203 1.209 2.121.019.23.155.503.124.757-.049.41.087.757.447.868.453.143.453.478.298.708-.267.397-.118.595.13.906.335.422.31.825-.112.986-.769.286-.775.838-.75 1.464-.068.031-.174.05-.205.106-.043.074.031.149.106.1.055-.032.068-.137.099-.206.198-.018.285.242.577.124.85-.353 1.005-1.24 1.52-1.836-.261-.57.36-1.303-.335-1.8-.317-.229.099-.49.012-.67-.105-.235-.558.02-.664-.297-.068-.199-.006-.44-.167-.627-.211-.236.341-.54.037-.664-.67-.266-.422-1.148-1.042-1.414-.087-.038-.193-.255-.162-.33.298-.62-.031-.768-.552-.8-.229-.012-.304-.186-.279-.365.099-.658-.378-.788-.825-.962zm-5.776-15.492c.112.322-.074.676.143 1.005.279.428.627.819.713 1.358.013.081.186.13.286.193.031-.08.08-.155.093-.236.211-1.576-.676-2.792-1.346-4.076-.087-.162-.23-.106-.249.025-.031.254-.403.483 0 .787.267.205.757.435.36.944zm1.669 3.499c-.056.05-.161.105-.155.136.043.224-.385.348-.168.559.298.291.385.663.553 1.011.062.124.409.41.614.248.211-.167-.037-.384-.186-.54-.186-.198-.323-.34-.186-.682.142-.341-.447-.385-.472-.732zm-1.507-6.515c-.069-.037-.23-.1-.366-.198-.131-.087-.515.018-.28-.373.131-.217-.099-.34-.217-.384-.31-.106-.18.186-.211.304-.099.335-.304.707.286.819.099.018.192.18.248.291.049.1.105.317.149.267.142-.143.211-.36.391-.726zm-2.321-9.976c.056-.032.155-.063.155-.1.007-.155.013-.347-.229-.341-.075 0-.205.05-.205.075.006.18.143.273.279.366zm6.632 24.563l-.155-.33c-.155.119-.13.292-.124.454.006.111.012.26.155.21.068-.024.081-.21.124-.334zm1.253 2.984c-.068-.043-.136-.112-.204-.112-.075 0-.149.062-.224.1.069.043.137.117.211.117.069.007.143-.062.217-.105zm-4.076 7.675c-.043.062-.111.124-.124.192-.006.068.031.192.075.205.155.043.18-.087.155-.199-.012-.068-.068-.136-.106-.198zm-6.315-15.542c-.025-.075-.037-.205-.075-.217-.155-.038-.192.08-.167.204.012.075.074.137.112.205.043-.062.087-.124.13-.192zm-.05-.72c-.025-.03-.049-.056-.074-.087-.025.025-.056.05-.081.075.037.03.075.056.112.087a.48.48 0 00.043-.075zm-.527-2.153c-.025-.025-.05-.056-.074-.08a.976.976 0 01-.081.074c.037.025.074.05.112.08a.474.474 0 00.043-.074zm-.254-1.309c-.031-.03-.056-.068-.087-.1-.031.032-.087.057-.087.094-.006.025.05.08.081.087.024 0 .062-.056.093-.08zm4.286-11.255c-.031-.03-.055-.068-.086-.099a1.304 1.304 0 01-.1.093c.031.031.056.08.093.087.025 0 .056-.05.093-.08zm4.002 15.542c-.031-.03-.056-.068-.087-.099-.031.031-.087.056-.087.093-.006.031.05.062.081.1a.653.653 0 01.093-.094zm-3.48 8.562c-.031-.03-.056-.068-.087-.099-.031.031-.081.056-.087.093-.006.025.05.087.081.087s.062-.056.093-.08zM175.37 150.841c.72-.131 1.341.403 2.066.291.317-.049.683.019.658-.434-.025-.447.806-.118.602-.763-.068-.217.167-.652.571-.745.099-.025.111-.136.006-.198-.565-.36-.069-.72-.037-1.092.068-.838.576-1.644.217-2.507-.112-.267.074-.409.18-.589.198-.36.316-.701-.137-.974-.037-.019-.081-.081-.074-.106.037-.118.068-.322.136-.335.627-.118.192-1.234 1.055-1.11.186.024.391.062.36.285-.149 1.098.527 2.234-.174 3.307-.075.112-.099.261.025.354.409.31.397.595.012.924-.186.161-.037.434-.112.633-.211.558.484 1.197-.111 1.681-.484.391-.509 1.067-1.055 1.446-.403.273-.155.887.354.993.552.117 1.154-.149 1.693.186.05.031.236-.075.292-.162.496-.725 1.284-1.296 1.241-2.301-.019-.553.837-.764.527-1.415.496-1.08.149-2.345.757-3.4.099-.174-.106-.316-.149-.472a1.938 1.938 0 01-.05-.775c.038-.211.23-.385.447-.447.199-.056.416.106.434.23.081.546 1.049.8.459 1.576-.192.254.602.539.28.788-.273.211-.329.496-.534.707-.136.143.031.31.093.471.149.398.379.813-.273 1.068-.26.099-.174.465-.031.707.248.428.192.807-.043 1.241-.279.527-.441 1.117-.689 1.663-.118.26-.329.39-.614.124-.068-.062-.285-.013-.323.13-.049.186-.006.36.236.372.192.013.31.36.558.118.211-.205.385.006.59.037.465.069 1.017.646 1.315.311.496-.565 1.365-.714 1.582-1.595.13-.527.447-1.098.85-1.439.72-.608.751-1.446.955-2.215.081-.311.075-.658.391-.763.496-.168.484-.367.223-.757-.142-.218-.055-.491.143-.726.199-.23.304-.528.484-.776.242-.329-.701-.174-.223-.608.173-.161.322-.465.31-.695-.019-.415.273-.49.502-.67.075-.056.087-.273-.068-.341-.794-.335-.478-1.098-.341-1.489.416-1.16.304-2.228-.074-3.332-.125-.354-.398-.67-.007-1.073.224-.23-.291-.565-.118-.825.267-.398-.024-.565-.223-.776-.13-.136-.248-.31-.124-.465.434-.571.124-.646-.391-.677-.471-.024-.974.143-1.408-.229-.137-.118-.316.124-.465.149-.484.074-1.03.335-1.347-.335-.037-.081-.235-.124-.353-.118-1.111.068-2.159-.143-3.214-.49-.322-.106-.744.198-1.166.099-.738-.174-1.495-.292-2.24-.428-.391-.732-1.197-.515-1.786-.782-.658-.298-1.365-.285-2.066-.26-.41.012-.776-.05-1.129-.273-.298-.187-.621-.36-.993-.255-.664.192-1.216.124-1.743-.409-.162-.162-.633.223-.974-.186-.255-.311-.267-.615-.038-.751.602-.354.72-1.012 1.099-1.489.217-.267.229-.807.825-.701.136.024.359-.242.49-.416.999-1.303 2.264-1.855 3.896-1.477.378-.378.62-.074.881.168.291.267.335.893.943.695.328-.106.819.273.992-.373.075-.273.31.013.391.087.341.311.813-.012 1.148.261.85-.589 1.061.167 1.296.676.46.962.429.968 1.452.77.527-.1.993.186 1.483.297.291.062.614.385.602.801-.013.502.347.496.626.391.329-.125.67-.441.949-.093.447.552 1.477.639 1.359 1.631-.037.323.223.552.192.856-.037.373-.651.609-.31 1.03.224.267.658.118.999.224.509.161.757.44 1.005.862.385.676.459 1.489 1.011 2.097.168.186-.304.664.298.856.217.069.093.646.217.863.248.44-.434.757.006 1.222.373.391-.223.769-.31 1.179-.025.124-.155.285-.111.354.477.781.043 1.675.316 2.463.068.192.447.428.639.397.993-.174 1.507.837 2.388.906.131.012.304.223.348.378.167.583.633.819 1.123 1.024.446.186.738.546.738.974 0 .937.534 1.619.943 2.364.254.459.534.906.44 1.47-.043.261-.074.559.187.739.521.353.353.881.328 1.34-.024.44-.359.868 0 1.321.044.056.038.217-.006.255-.62.515-.552 1.098-.254 1.755.08.18.062.472-.137.615-.688.496-.651 1.321-.843 2.004-.317 1.092-.261 1.166-.931 1.954-.056.068-.149.13-.167.205-.23 1.247-1.012 2.115-1.917 2.916-.211.186-.36.409-.286.701.143.583-.205.912-.602 1.222-.657.509-1.371.937-1.613 1.855-.086.335-.558.559-.8.875-.26.335-.161.993-.868.937-.038 0-.156.23-.137.335.099.478-.161.794-.49 1.024-.776.546-1.47 1.228-2.407 1.495-.236.068-.366.23-.54.354-.353.248-.726.477-1.079.726-.354.248-.782.117-1.173.242-.509.155-.937.446-1.421.645-.297.118-.545.279-.856.093-.099-.056-.198-.18-.304.006-.546.968-1.482.925-2.394.9-.751-.019-1.514-.025-2.19.297-.428.205-.838.205-1.278.23-.987.043-1.955.168-2.96.062-.552-.056-1.147-.043-1.718-.037-.856.006-1.725.161-2.556.391-.453.124-.912.223-1.266.012-.614-.36-1.352.106-1.91-.385-.05-.043-.23.075-.354.112-1.117.329-2.196.36-3.114-.496-.317-.298-.67-.149-1.012-.174-.62-.043-1.309.168-1.712-.546-.515.242-.67-.645-1.098-.397-.571.329-.651-.354-.993-.385-.459-.037-.831-.266-1.209-.465-.217-.118-.435-.037-.646-.087-.62-.149-1.203-.322-1.78-.689-1.092-.682-2.308-1.172-3.468-1.743-.521-.254-1.191-.335-1.29-1.092-.031-.229-.23-.229-.41-.236-.087-.006-.18-.012-.254-.049-.416-.217-.36-.875-.825-.987-.422-.099-.863-.043-1.198-.434-.18-.211-.583-.211-.539-.639.024-.236-.18-.23-.354-.286-.9-.279-1.65-.8-2.295-1.47-.106-.105-.323-.211-.137-.416.118-.13.248-.316.434-.254.521.186 1.123.161 1.539.614.149.161.354.422.502.403.819-.105 1.278.435 1.613.975.36.577 1.08.148 1.365.626.261.441.503.813 1.074.863.583.049.552.868 1.129.961.682 1.111 1.898 1.334 2.984 1.651.502.142.874.304 1.209.663.236.255.422.491.857.211.279-.179.595.069.781.348.211.316.534.248.832.335.477.136 1.091-.044 1.439.533.074.118.409.112.62.106.466-.006.894.136 1.136.509.155.235.304.291.527.273.899-.075 1.731.099 2.444.676.211.168.379.149.583-.006.236-.18.497-.155.739.006.155.105.304.199.471.062.323-.261.621-.223.974-.012.317.186.67.136 1.005-.05a.606.606 0 01.366-.081c.794.155 2.054.199 2.662.031.459-.124.98.069 1.389-.273.366.435.788.044 1.179.081.596.056 1.166-.043 1.756-.174.682-.155 1.402-.167 2.103-.235.223-.019.49.074.657-.019.881-.509 1.88-.323 2.811-.503.322-.062.626-.204.819-.359.409-.336.831-.379 1.309-.491.732-.167 1.402-.595 2.146-.806.069-.019.162-.118.162-.186.006-.844.564-.782 1.184-.863.801-.105 1.489-.496 2.085-1.135.546-.583.98-1.322 1.787-1.638.192-.075.304-.23.136-.521-.248-.422-.043-.863.391-.943.689-.124 1.005-.621 1.228-1.13.298-.67.912-1.172.987-1.954.012-.112.136-.26.242-.304.589-.254.781-.918 1.265-1.247.497-.335.794-.695.912-1.309.106-.559.397-1.055 1.018-1.359.446-.217.707-.974.496-1.328-.36-.595-.037-1.005.056-1.489.149-.769.837-1.445.291-2.326-.161-.261.174-.466.342-.664.223-.255.229-.453-.137-.583-.341-.124-.316-.478-.173-.658.316-.416.111-.869.21-1.278.125-.528-.446-.54-.595-.912-.335-.832-.49-1.719-.949-2.525-.311-.54-.825-.714-1.142-1.173-.335-.496-.819-.794-1.476-.695a.545.545 0 01-.608-.422c-.106-.602-.708-.236-.962-.546-.05-.062-.366.124-.347.385.062.875-.118 1.191-.49 2.047-.23.54-.751 1.148-.23 1.824.093.125.124.286.031.354-.726.527-.651 1.768-1.731 1.967-.378.068-.211.217-.124.428.124.316-.143.552-.36.62-.434.125-.664.447-.893.757-.745 1.03-1.762 1.446-2.99 1.44-.174 0-.422.018-.472-.162-.13-.483-.353-.397-.676-.192-.248.155-.49.056-.745-.068-.676-.335-1.408-.453-2.165-.391-.626.05-1.24.043-1.774-.36-.149-.112-.298-.205-.484-.167-.844.155-1.526-.28-2.208-.652-.298-.161-.466-.192-.584.174-.062.198-.235.236-.421.136-.615-.341-1.347-.322-1.949-.608-.421-.198-.725.087-1.073 0-.366-.093-.713-.266-1.085-.366-.094-.025-.224.112-.342.168-.254.111-.465.049-.453-.248.031-.701-.335-1.564.689-1.918.316-1.079 1.384-1.731 1.613-2.878.05-.249-.081-.739.465-.832.273-.043-.149-.298.025-.527.205-.273-.149-.186-.267-.23-.403-.149-.837-.366-.967.329-.013.068-.106.174-.168.18-1.154.056-1.551 1.098-2.215 1.75-.676.664-1.352 1.334-1.644 2.333-.167.583-.918.936-.85 1.712.013.155-.291.149-.465.112-.217-.044-.31-.255-.229-.397.328-.602.068-1.44.756-1.887.087-1.067 1.161-1.594 1.402-2.587.032-.118.273-.186.41-.279.391-.279.701-.645 1.11-.918.311-.205.242-.832.764-.968.043-.013.049-.155.086-.23.199-.372-.359-.75-.037-1.067.341-.335.348-.695.304-1.098-.043-.409.428-.676.279-1.123-.056-.155-.025-.36.217-.397.211-.037.342.118.435.254.378.565.564 1.148.298 1.843-.391 1.024-.199 1.024.75 1.346.831.28 1.384 1.13 1.061 1.924-.608 1.476-1.241 2.947-2.289 4.188-.137.161-.205.378-.329.558-.136.192-.136.292.124.323.347.043.714-.106 1.042.105.317.205.85.304.956.062.173-.409.726-.589.664-1.092-.069-.571.142-1.036.421-1.495.435-.714.131-1.532.36-2.277-.335-.372-.012-.8.106-1.042.223-.447.099-.875.204-1.291.1-.366-.496-.577-.179-.974.167-.211.514-.36.235-.751-.031-.043.211-.378.484-.347.242.025.205.223.255.391.136.465.341 1.954.155 2.457-.155.422.39.788-.05 1.197-.323.304-.279.745-.124 1.167.062.173-.056.335-.186.471-.149.155-.31.292-.335.546-.044.478.217 1.166-.149 1.396-.602.372-.267.862-.416 1.272-.056.161-.155.31-.236.459-.074.031-.167.044-.21.093-.05.068.018.137.093.093.105-.025.117-.13.148-.198zm9.908-19.557c.267.081.651-.167.8.261.05.137.118.285.249.248.49-.149.955-.44 1.476-.031.112.087.124-.142.186-.229.124-.174.254-.41.434-.466.348-.111.255-.198.087-.409-.335-.434-.738-.72-1.296-.788-.106-.013-.211-.186-.317-.025-.403.633-1.346.676-1.607 1.464-.08 0-.167-.006-.248 0-.099.013-.254-.006-.192.168.012.043.143.074.217.068.137-.025.199-.13.211-.261zm-12.581-1.873c.62 0 1.247.006 1.867 0 .261 0 .502.006.589-.372.056-.236.521-.348.565-.472.198-.496.949-.472.968-.987.025-.508.248-.583.651-.601.124-.007.199-.174.161-.311-.018-.074-.093-.192-.142-.192-.577-.006-1.167-.062-1.731.031-.286.05-.509.428-.726.658a4.585 4.585 0 01-1.309.961c-.527.261-.937.621-.887 1.291-.068.031-.168.037-.199.093-.049.074.019.143.087.099.062-.031.075-.13.106-.198zm9.386-2.066c-.056-.143-.087-.286-.118-.286-.254 0-.409-.335-.695-.192-.409.205-.8.602-1.29.155-.037-.031-.168.019-.242.056-.937.428-1.812.949-2.463 1.768-.459.577-.304 1.011.397 1.086.521.056 1.049.019 1.539.273.062.031.36-.242.626-.484a14.13 14.13 0 011.167-.955c.515-.385.62-1.049 1.079-1.421zm2.779 1.594c.193-.335-.037-.304-.117-.31-.9-.025-1.731.118-2.364.869-.242.285-.348.695-.776.825-.105.031-.366.161-.235.372.111.18.328.416.533.279.391-.26.72-.285 1.092-.006.099.075.236.068.366-.037.341-.273.571-.689 1.036-.801-.304-.626.54-.787.465-1.191zM86.24 64.47c.105.936-.484 1.501-.825 2.115-.304.54-.82 1.049-1.477 1.285-.496.18-.887.583-1.11.974-.646 1.098-1.769 1.538-2.755 2.14-.267.168-.527.168-.527.559 0 .241-.205.428-.404.49-1.048.316-1.885 1.06-2.91 1.433-.96.354-1.197.54-1.531.924-.286.33-.391.844-1.012.776-.453-.05-.738.447-1.228.49-.23.019-.75-.155-.819.44-.031.267-.46.398-.67.242-.496-.36-.775-.111-1.141.199-.218.186-.547.254-.838.341-.304.093-.608-.18-.844-.118-.149.038-.267.379-.533.49-.18.081-.273.1-.453-.006-.162-.093-1.644.286-1.83.342-.292.08-.54.453-.912.155-.056-.05-.248.025-.354.087-1.278.713-2.612 1.259-4.063 1.476-.23.031-.435.05-.59.23-.428.496-1.092.298-1.464.167-.689-.242-1.532.038-2.097-.62-.074-.08-.335-.031-.502 0-1 .186-1.787-.013-2.358-.82-.273-.384-.447-.483-.85-.316-.087.038-.335-.074-.335-.111.031-.832-.949-1.03-1.092-1.793-.068-.366-.198-.807-.651-1.067-.453-.267-.05-1.068-.645-1.353-.075-.037-.037-.136.05-.211.446-.385.44-.763.136-1.278-.248-.41.378-.757.273-1.235-.031-.142.149-.329.136-.49-.08-1.036.515-1.793 1.018-2.6.26-.415.459-.874.93-1.073.267-.112.354-.291.298-.502-.161-.62.223-.857.67-1.092.98-.515 1.75-1.266 2.407-2.153.404-.553.695-1.241 1.421-1.496.136-.738.974-.955 1.197-1.625.67.006.937-.583 1.39-.9.372-.254.341-.999 1.036-.868.031.006.13-.205.149-.323.068-.447.291-.819.602-1.13.31-.316.608-.769.986-.862.565-.142.397-.676.695-.961.298-.292.478-.695.924-.85.112-.038.255-.199.248-.292-.018-.527.273-.744.702-.986.272-.15.099-.757.65-.857.23-.043.553-1.123.578-1.638.012-.254.136-.409.316-.552.72-.558.732-.558 1.03-1.675.062-.23.248-.21.347-.316.422-.447.218-1.285.962-1.533-.223-.664.403-1.03.59-1.55.16-.448.477-.85.502-1.36.012-.254.168-.465.354-.52.41-.119.465-.497.663-.764.1-.136.124-.422.23-.447.875-.223.962-1.023 1.017-1.638.05-.564.782-.837.497-1.464-.013-.03.105-.186.167-.186.832-.025.838-.85 1.222-1.29.385-.441.85-.875.93-1.533.02-.155.168-.385.286-.41.503-.099.739-.508 1.092-.787.341-.273.683-.472.894-.888.074-.148.44-.31.546-.248.31.18.272-.006.421-.186.348-.428.627-.974 1.328-1.005.205-.013.41-.31.596-.49.31-.304.285-.912.7-1.043.422-.136.788-.378 1.198-.49.62-.167 1.06-.614 1.625-.875.602-.279 1.272-.254 1.861-.546.156-.074.36.007.404.224.099.478-.33 1.123-.807 1.08-.769-.063-1.309.415-1.669.868-.397.503-.7.788-1.37.77-.447-.013-.962.148-.98.812-.007.15-.168.304-.28.435-.323.378-.943.397-1.197.744-.28.379-.44.707-.974.726-.162.006-.522.18-.298.552.112.186-.1.168-.199.217-.34.162-.657.267-.688.788-.019.242-.404.534-.825.571-.391.031-.627.292-.602.72.012.21.025.403-.193.583-.545.46-.608 1.34-1.383 1.613a1.037 1.037 0 00-.335.186c-.074.068-.267.155-.093.304.515.453.372.689-.223.869-.249.074-.46.322-.435.614.056.682-.285.925-.912 1.03-.235.037-.595.292-.322.707.043.062.087.143.08.211-.043.335-.769.174-.546.652.205.428-.173.533-.297.781-.162.31-.224.776-.472.913-.713.39-.366 1.278-.912 1.7.18.167.087.31-.062.415-1.085.75-1.327 2.166-2.364 2.953.404.677-.899.937-.403 1.638-.75.199-.8 1.012-1.24 1.49-.348.378-.987.694-.881 1.408.006.05-.193.161-.304.186-.503.093-.857.254-.559.862.112.224-.13.31-.248.385-.695.422-1.483.745-1.55 1.737-.013.217-.224.242-.41.248-.193.007-.28.106-.385.28-.627 1.048-1.415 1.96-2.426 2.655a.651.651 0 00-.279.41c-.198.72-1.03.986-1.21 1.743-.056.23-.353.496-.713.534-.64.062-1.073.322-1.005 1.073.025.23-.223.217-.36.304-.366.236-.72.502-1.067.763-.292.217-.465.509-.658.825-.198.323-.707.478-1.098.658-.372.174-.043.422-.105.627-.18.583-.819.924-.813 1.594-.75.745-.304 1.768-.614 2.612.28.31.155.596.062.962-.08.322-.236.862.453 1.042.434.118 1.067.323.602 1.11-.168.286.31.621.496.627.893.019 1.228.788 1.787 1.235.142.112.248.254.422.23.974-.118 1.898.291 2.866.297.496.007.974.317 1.377-.23.056-.074.254-.024.372-.067.41-.162.856.41 1.185.03.31-.36.72-.322 1.073-.446.478-.174.943-.422 1.49-.422.279 0 .54-.28.83-.341.31-.068.038-.838.658-.49.379.21.577-.422.751-.348.509.211.75-.087 1.117-.304.31-.186.626-.285.725-.676.056-.211.323-.149.41-.273.26-.39.85.043.85-.137 0-.601.428-.54.763-.707.304-.155.534-.459.794-.701.416-.385.658-.93 1.154-1.247.025-.019.019-.087.037-.124.193-.453.676-.075.93-.31.255-.236.026-.72.441-.912a.528.528 0 01.372-.044c.125.031.335.31.36-.006.05-.738.608-1.16 1.086-1.433.912-.515 1.402-1.29 1.805-2.172.199-.422.323-.781.912-.496.193.093.416-.192.478-.391.397-1.26 1.433-2.029 2.24-2.972.366-.428.961-.596 1.34-1.048.142-.174.415-.15.614-.038.186.106.118.31.124.484a.85.85 0 01-.217.602c-.193.236-.478.521-.472.776.05 1.203-1.185 1.582-1.532 2.512-.019.056-.143.106-.217.106-.794.006-.974.676-1.26 1.197-.248.447-.421.8-.986 1.055-.509.23-1.142.676-1.222 1.458-.044.41-.484.49-.77.416-.335-.093-.49.205-.471.26.26.8-.478 1.061-.862 1.204-1.018.385-1.638 1.222-2.445 1.837-.204.155-.781.285-.577.546.211.273.782-.013 1.105-.112.558-.168 1.085-.571 1.513-.987.373-.36.59-.88 1.235-.546.1.05.174.056.192-.068.118-.664.62-.602 1.117-.67.316-.043.695-.26.887-.521.552-.732 1.31-1.247 2.047-1.67 1.36-.787 2.463-1.86 3.68-2.81.427-.335.16-1.123.893-1.141.235-.46.837-.67.999-1.08.322-.813.967-.21 1.408-.459.217-.08.192.335.21.41zM69.787 74.986c.031-.031.068-.056.1-.087-.032-.03-.063-.08-.094-.087-.03 0-.062.05-.093.08.031.032.056.063.087.094zM56.53 40.192c.36-.193.713-.385 1.005.105.087.143.161.366.285.404.372.124.993-.125.856.645-.062.366.546.689.062 1.073.205.869.404 1.737.608 2.606.038.168.106.329.143.496.112.46-.422.751-.304 1.254.087.39.577.763.143 1.21-.087.086-.106.136-.013.21.236.211.186.49.155.751-.03.292.18.745-.173.838-.472.124-.075.397-.199.552-.428.565-.533 1.197-.304 1.855.075.211.056.341-.093.428-.552.316.025 1.185-.608 1.365-.62.174-.354.85-.782 1.105-.26.155-.254.452-.235.725.074.962-.875 1.409-1.11 2.215-.826.28-1.043 1.13-1.533 1.713-.242.291-.416.54-.813.546-.267.006-.527-.013-.608.36-.043.186-.341.248-.447.155-.558-.484-1.104-.1-1.612.03a7.872 7.872 0 01-2.346.261c-.34-.012-.682-.012-1.023.193-.484.291-.887-.218-1.353-.286-.235-.037-.192-.459-.018-.682.217-.273.142-.46-.087-.67-.962-.912-1.514-2.116-2.184-3.233-.378-.62-.509-1.296-.285-2.047.124-.41.03-.888.025-1.334-.007-.236.05-.428.23-.59.191-.167.359-.254.539 0 .353.503.142 1.086.205 1.626.012.093-.18.174-.05.329.471.552.41 1.303.602 1.942.217.726.8 1.191.986 1.942.124.515.788.912.974 1.52.068.223.248.267.416.217.403-.124.657.21.992.273.31.056.615-.335.937-.012.031.03.155-.044.242-.063-.025-.068-.025-.167-.074-.204-.137-.106-.298-.186-.447-.28-.18-.105-.254-.279-.112-.428.304-.328.106-.54-.117-.781-.733-.807-.646-1.967-1.204-2.848-.025-.043.025-.149.062-.205.422-.59.329-1.179.118-1.836-.112-.36-.26-.776-.056-1.216.118-.255.13-.677 0-.919-.39-.688-.198-1.154.372-1.594.335-.26.298-.695.13-.98-.235-.398-.186-.64.143-.906.273-.218.559-.416.224-.838-.124-.155.024-.403.155-.602.676-.992 1.19-2.078 1.799-3.114.217-.373.713-.608.875-.993.16-.39.21-.707.738-.701.192 0 .366-.242.403-.478.031-.205.198-.41.31-.397.763.075.75-.955 1.42-.974.162-.546.609-.596 1.05-.515.29.056.44-.31.707-.155.378.23.26.627.291.968-.459-.044-1.023-.044-1.048.502-.025.521-.379.528-.627.733-.155.13-.422.055-.496.366-.124.533-.515.887-1.024 1.054-.453.15-.298.497-.291.77.006.41.409.546.657.781.019.013.137-.074.211-.117l1.539-.484c.806-.069.9.105.974.918.05.558-.33 1.085-.124 1.557.23.528.155 1.061.18 1.564.05.837.632 1.762-.199 2.568-.118.118-.043.422-.068.64-.075.558-.143 1.116-.304 1.662-.174.596-.583 1.055-.807 1.607-.13.316-.527.59-.223 1.03.105.149-.031.372-.192.44-.44.193-.714.646-1.21.726-.18.031-.379.025-.41.242-.136.894-.837 1.272-1.507 1.688-.224.136-.447.322-.385.639.025.118-.056.44.242.248.255-.167.528-.043.763-.13.515-.186 1.105-.335 1.39-.844.422-.757 1.048-1.297 1.669-1.861.235-.211.664-.521.39-.987-.21-.36.087-.7.224-.757.378-.155.41-.397.397-.72-.006-.148.019-.142.546-.595.087-.075.205-.255.18-.292-.472-.645.068-1.06.335-1.532.149-.267.496-.583.434-.776-.21-.664.205-1.228.149-1.867-.056-.658-.583-1.31-.118-1.992-.924-.298-.111-.757-.068-1.117.025-.198.23-.39 0-.564-.472-.36-.391-.85-.372-1.34.025-.59-.013-1.092-.49-1.62-.478-.552-.497-1.402-.33-2.171zm-3.803 3.871c-.093-.167-.224-.105-.341-.062-.038.013-.1.075-.094.08.075.125.199.162.323.125.056-.006.087-.1.112-.143z"/><path d="M168.863 133.667c-.304.279.112.447.112.707 0 .397.242.732.018 1.204-.229.478.162 1.011.329 1.489.124.36.205.614.006.98-.291.54.093 1.241-.36 1.769.162.992-.831 1.749-.564 2.773.08.323-.664.372-.329.837.248.354-.192.54-.242.832-.062.322-.391.595-.465.924-.087.373-.738.577-.317 1.117.106.13-.13.323-.266.416-.224.149-.571.161-.273.595.13.193-.162.484-.329.497-.521.025-.683.422-.943.744-.112.137-.242.286-.391.354-.36.167-.924-.118-1.117.198-.223.367-.62.311-.794.509-.434.497-.347-.633-.75-.173-.199.229-.615.167-.869 0-.292-.193-.645-.441-.744-.739-.261-.763-1.092-.937-1.489-1.613-.286-.484.186-.825-.075-1.185-.236-.316-.589-.813-.415-1.036.552-.707-.211-1.247-.106-1.905.093-.614.254-1.328-.211-1.929-.062-.081-.049-.348.006-.379.732-.391.255-1.061.354-1.588.099-.521.062-1.08-.012-1.607-.05-.354-.156-.546.235-.869.329-.267.335-.93.466-1.427.055-.211-.062-.49.142-.626.689-.46.72-1.272 1.061-1.911.279-.534.751-.826 1.129-1.229.317-.341.261-1.005.534-1.427.223-.341.515-.695.986-.85.565-.192 1.154-.366 1.557-.906.205-.273 1.489.255 1.533.602.043.323-.224.528-.453.577-.751.162-1.284.689-1.917 1.036.13.379-.59.18-.416.627.13.341-.198.428-.422.515-.434.167-.155.546-.266.807-.031.08-.075.198-.131.217-.676.167-1.023.583-1.005 1.284-.924.583-.384 1.75-.986 2.463.124.503-.199.745-.496 1.073-.298.329.347.708.192 1.099-.13.328-.23.632-.254.992-.025.397-.36.757-.007 1.185.1.124.069.559-.043.621-.596.36-.124.856-.23 1.259-.136.509.273.937.075 1.496-.162.465.54.868.496 1.433-.006.074.075.149.118.223.043-.068.13-.143.13-.211-.012-.67.354-1.377.199-1.942-.193-.713 0-1.433-.217-2.078-.242-.726.012-1.334.235-1.936.155-.416.05-.807.137-1.179.093-.403.384-.751.484-1.197.149-.646.335-1.278.955-1.744.397-.298.987-.719.664-1.458-.062-.149.105-.198.211-.279.428-.31 1.042-.478 1.359-.211.434.366.62.323.924-.043.143-.174.323-.335.515-.062.124.18.502.26.26.614-.093.143-.136.316-.217.471-.062.118-.13.23.044.298a.46.46 0 00.26 0c.124-.031.335-.074.341-.136.081-.559.553-.931.695-1.44.137-.49.013-.955-.285-1.396-.248-.366-.478-.781-.242-1.265-.49-.329-.409-.838-.416-1.322 0-.223-.018-.44.168-.62.13-.124.279-.292.397-.062.347.682.955 1.197 1.067 2.047.112.887.428 1.75.682 2.612.044.186.1.335-.012.484zm-7.929 12.886c.031.075.038.168.093.211.063.05.137-.018.087-.093-.031-.055-.13-.062-.198-.093-.031-.068-.037-.167-.087-.204-.068-.05-.137.018-.093.086.031.05.13.062.198.093zm.782.795c-.006-.242-.192-.242-.354-.249-.037 0-.111.149-.105.156.118.111.242.211.366.316l.093-.223zM39.407 42.078c.322-.037.688.155.862-.372.118-.366.546-.528.869-.757.65-.46 1.401-.9 1.495-1.843.012-.118.111-.298.198-.323.59-.136.825-.558 1.08-1.054.23-.447.713-.732.98-1.216.21-.379.726-.62 1.141-.844.36-.192.993.13 1.266.515.167.236-.044.31-.143.416-.341.36-.949.49-.924 1.141-.645.112-.633.776-.968 1.142-.304.322-.59.676-1.005.918-.366.21-.689.558-.583 1.098.08.41-.031.695-.54.67-.23-.012-.236.199-.254.379-.031.26.124.403.291.558.093.087.137.075.211-.006.85-.918 1.936-1.576 2.711-2.575.683-.881 2.544-2.227 3.419-2.488.099-.03.192-.242.291-.018.038.074.05.18.031.254-.118.471-.428 1.024-.769 1.117-.428.117-.57.335-.72.633-.136.273-.397.421-.583.632-.502.565-1.197.894-1.57 1.657-.347.72-1.32 1.005-1.706 1.805-.111.224-.39.15-.607.174-.435.056-.9-.149-1.29.137-.187.136-.249-.019-.305-.094-.124-.173-.167-.434-.329-.552-.297-.217.1-.837-.465-.813-.329.02-.385.565-.57.627-.602.205-1.08 1.11-1.887.428-.087-.074-.248-.062-.372-.105-.906-.317-.906-.317-.738-1.241.03-.168.174-.372.118-.496-.217-.503.422-.881.155-1.353-.025-.05-.676.583-.993 1.204-.236.459-.831.198-1.048.676-.155.347-.242.875-.64.95-.539.092-.899.266-1.246.731-.335.447-1.266.174-1.557-.34-.106-.187-.174-.398-.286-.584-.36-.59-.453-1.148.168-1.638a.273.273 0 00.062-.36c-.13-.198-.211.019-.292.075-.298.21-.44.527-.595.85-.15.304-.906-.025-.714.657-.478.069-.52.552-.77.832-.924 1.036-1.531.912-2.456.384-.26-.149-.459-.415-.695-.602-.248-.198-.279-.36-.087-.645.106-.155.118-.502.013-.645-.31-.416-.248-.72.13-1.011.372-.292-.298-.813.28-1.117.303-.155.34-.627.756-.838.323-.161.515-.682.652-1.08.335-.992 1.34-1.358 1.904-2.134.28-.39.738-.198 1.13-.198.111 0 .26.068.123.242a6.088 6.088 0 01-.266.298c-.794.819-1.253 1.892-2.085 2.68-.149.143-.205.28-.192.453.03.459-.15.713-.59.912-.241.105-.496.447-.291.825.074.13.05.242.012.372-.062.224-.57.379-.291.571.267.186.34.335.36.608.012.143.099.224.26.236.174.012.242-.093.267-.23.124-.769 1.011-1.03 1.166-1.774.559-.075.85-.36.738-.956-.006-.03.031-.099.056-.105.782-.13.956-.738 1.08-1.377.639.217.657-.54 1.104-.726.484-.205.9-.497 1.464-.428.217.024.558.037.527-.23-.099-.782.435-.95.975-1.154.291-.112.471-.757.825-.366.26.291.304.95-.063 1.21-.564.397-.558 1.402-1.488 1.358-.038 0-.093.038-.106.069-.366 1.34-1.62 2.196-1.948 3.549-.05.21-.03.44-.018.664a.322.322 0 00.13.217c.142.087 1.178-.373 1.178-.553-.006-.49.323-.763.652-.93.806-.416 1.489-.912 1.805-1.806.912-.043.918-1.21 1.812-1.408.533-.118.874-.813 1.427-1.13.335-.192.602-.427 1.023-.508.26-.05.472-.44.695.006.217.44.137.9-.223.956-.41.062-.515.329-.608.59-.28.769-.521 1.55-1.359 1.922-.068.627-.862.95-.682 1.694.08.298.03.627.025.93-.063.038-.155.05-.186.1-.044.069.018.137.093.093.05-.03.062-.124.093-.192zM164.396 161.835c0-.403-.006-.8 0-1.204 0-.173-.037-.422.056-.515.769-.738.502-1.644.366-2.488-.044-.254.136-.403.093-.564-.093-.329.378-.552.167-.832-.223-.304.124-.589.062-.682-.415-.633.124-1.061.273-1.557.143-.466.59-.59 1.024-.385.292.136.44.546.186.726-.658.453-.136 1.203-.515 1.737-.105.149.335.608.676.67.385.075.807-.018 1.08.379.093.136.192.074.316.012.385-.18.757-.18 1.123.081.199.142.441.142.62-.013.404-.347.677-.087.888.199.335.459.688.335 1.129.186.502-.174.955-.372 1.6-.093.54.236 1.229.49 1.911.335.242-.056.434.074.583.248.162.192.304.242.528.056.453-.385.955-.205 1.439-.05.161.05.31.224.453.211 1.079-.093 1.495-.031 2.215.391.111.068.217.174.335.186.211.025.533.044.496-.26-.106-.801.726-1.322.589-2.116-.012-.074.037-.186.093-.236.217-.167.298-.645.664-.44.155.087.925.366.118.738.416.726.019 1.415-.087 2.122a.316.316 0 000 .13c.174.509-.44.676-.465 1.018-.019.298.478.682.403.918-.304.955-.211 1.979-.571 2.916-.285.732-.273 1.47-.024 2.184.173.49.192.98.068 1.433-.087.304-.286.528-.006.825.086.093.093.267-.019.36-.565.472-.602.943-.037 1.44.167.149-.031.223-.087.316-.137.223-.254.465-.434.645-.149.143-.385.292-.571.279-.155-.006-.093-.304-.143-.459-.161-.521-.608-1.023-.391-1.563.217-.54-.018-1.08.162-1.551.18-.478.08-.875.018-1.34-.08-.59-.118-1.204.137-1.824.186-.466.093-1.049.087-1.576-.013-.881-.025-1.762.403-2.563.167-.31-.186-.496-.217-.484-.652.373-1.229-.279-1.88-.105-.31.08-.707.124-1.017-.149-.063-.056-.162-.112-.236-.099-.596.08-1.173.496-1.781.18-.62-.329-1.166-.199-1.743.074a.691.691 0 01-.521-.012c-.279-.137-.348-.77-.881-.311-.254.224-.571-.266-.949.031-.211.168-.658.087-.968-.217-.41-.403-.937-.552-1.501-.279-.472.23-.826-.459-1.353-.13-.434.267-.775-.236-1.172-.341-.273-.075-.646-.391-.869-.1-.205.267-.496.639-.062 1.036.403.373-.161.59-.198.863-.081.651-.18 1.29-.305 1.936-.217 1.11-.136 2.264-.527 3.35a.687.687 0 00.112.633c.217.279.205.571-.031.844-.168.192-.168.477-.081.626.341.602.093 1.16-.018 1.737-.038.211.031.453-.28.509-.304.056-.515-.087-.682-.316-.174-.236-.186-.49-.006-.732.093-.124.105-.267-.056-.261-.893.031-.651-.695-.54-1.03.217-.658.236-1.321.341-1.979.044-.279.1-.9.062-.968-.229-.385-.31-.664.218-.943.335-.174.099-.658.136-1.005.031-.267.006-.534.006-.8-.006.012-.006.012-.012.012zM61.865 69.117c-.025.08-.031.192-.087.235-.54.428-.416 1.024-.403 1.589.006.335-.056.7-.372.781-.584.156-.782.85-1.415.9-.477.037-.806.608-1.383.379-.112-.044-.323.111-.465.21-.472.342-.937.546-1.54.249-.303-.15-.644.217-1.066 0-.317-.162-.633-.118-.894-.54-.334-.54-.645-1.154-1.215-1.539-.255-.167-.063-.515-.118-.657-.143-.385.335-.69.037-1.037-.23-.273.105-.366.217-.502.329-.397.819-.67.72-1.34-.062-.44.279-.056.397-.118.192-.093.285-.329.422-.478.26-.291.576-.701 1.079-.347.174.124.304.05.478-.025.726-.31 1.47-.484 2.196.012.18.124.39.124.459-.03.285-.634.912.11 1.253-.33.025-.03.496.15.528.286.204.825.837 1.408 1.135 2.178a.29.29 0 01.037.124zM99.206 63.365c.242.64-.273 1.154-.1 1.7-.545.726-.16 1.44.094 2.104.167.428.236.744-.137 1.06-.236.2-.31.497-.204.727.242.496.552.924-.156 1.321-.23.13.063.143.13.199.547.459.596.502.212.98-.323.397.012.77-.069 1.055-.192.67-.23 1.26.075 1.898.149.31-.031.596-.285.82-.174.154-.261.322-.125.576.44.8.552 1.973.559 2.885.006.354-.255.788.136 1.173.317.316.422.763.075 1.197-.087.112-.124.41-.044.503.801.893.273 2.277 1.173 3.12.031.032.087.094.074.106-.54.683.124 1.328.068 1.998-.037.403-.012.806.36 1.08-.124.812.341 1.42.676 2.084.125.242.025.503-.192.72-.267.267-.453.118-.688-.031-.379-.23-1.272-1.365-1.204-1.768.087-.497-.378-.807-.304-1.26-.651-.533-.484-1.272-.509-1.967-.012-.254.05-.552-.204-.738-.379-.28-.367-.682-.348-1.086.006-.124.013-.316-.062-.372-.614-.46-.403-1.117-.453-1.719-.043-.515.1-1.048-.242-1.544-.111-.168-.018-.522.062-.764.062-.186.106-.223-.099-.372-.372-.28-.726-.651-.304-1.191.068-.087.025-.255.031-.385.031-.62-.26-1.204-.012-1.874.223-.589-.174-1.321.198-1.948.019-.03.025-.093.013-.105-.447-.403-.565-.794-.224-1.39.217-.385-.099-.968.199-1.408.161-.242.037-.404-.087-.59-.161-.242-.143-.558-.043-.77.217-.458.403-.874.08-1.364-.056-.08.075-.304.155-.44.217-.398.404-.745.075-1.217-.186-.266.279-2.953.453-3.294.037-.075.024-.192.08-.242.205-.199.379-.633.67-.478.28.149.788.372.478.918-.025.025-.031.1-.031.093zM106.309 34.726a.966.966 0 01-.068.31c-.13.329-.527.447-.738.186-.558-.676-1.415-1.185-1.514-2.134-.049-.509-.36-.64-.67-.838-.18-.117-.372-.21-.564-.31-.435-.242.173-1.011-.484-1.06a1.618 1.618 0 01-1.148-.56c-.31-.34-.943-.347-.993-.96 0-.038-.049-.063-.08-.1-.838.744-1.266-.552-1.986-.397-1.141-.8-2.568-.64-3.796-1.123-.248-.1-.292.112-.44.143-.596.13-1.21.062-1.806.254-.602.192-1.228-.211-1.861-.012-.15.043-.329-.31-.577-.193-.36.174-.509.664-.918.72-.298.037-.521-.304-.956-.05-.484.286-1.116.199-1.526-.366-.124-.167-.198-.254.08-.347.85-.286 1.57-.869 2.495-1.005.31-.05.608-.044.918-.056.267-.013.459-.248.819-.056.291.149.794.025 1.148-.118.409-.168.744-.41 1.104.062.136.18.304.031.471-.018.726-.218 1.433-.143 2.19 0 1.57.297 3.034.924 4.604 1.222.608.118 1.215.44 1.513 1.092.168.353.435.527.844.508.211-.012.602 0 .614.069.13.577.838.291 1.011.688.348.776 1.111 1.21 1.502 1.973.298.577.397 1.235.8 1.762.087.1.012.335.012.714zM74.992 90.292c.013-.18-.05-.44.044-.521.527-.453.378-1.036.384-1.6 0-.119.156-.292.112-.348-.614-.838.056-1.582.186-2.352.093-.527.379-1.03-.006-1.55-.08-.106-.155-.218-.013-.323.484-.354.422-.695 0-1.055-.086-.075-.142-.329-.13-.335.807-.397.1-1.303.608-1.787.106-.1.05-.199.025-.323-.149-.769-.323-1.557.124-2.295-.353-.217.242-.751-.304-.9-.112-.03-.167-.112-.105-.161.72-.608.173-1.29.043-1.893-.087-.39.13-.564.26-.781.1-.162.385-.118.609-.019.453.199 1.37 1.377 1.37 1.793 0 .255-.185.422-.353.528-.39.248-.329.514-.167.862.279.602 0 1.247.099 1.88.087.552.31 1.154-.087 1.706-.044.062.05.242.105.354.33.633.416 1.216.106 1.768-.18.323-.211.515 0 .813.118.167.136.484-.08.595-.727.379-.51.881-.119 1.266.36.354.044.59-.05.788-.198.428-.855 1.985-.744 2.32.385 1.154-.465 1.762-1.042 2.482-.23.286-.744.13-.831-.242-.05-.21-.007-.44-.007-.657-.018-.013-.024-.013-.037-.013zM41.988 53.885c.006.44-.199.925.36 1.21.266.136.235.428.297.689.112.496.465.98.428 1.445-.037.571.428.689.614 1.036.385.714.534 1.57 1.254 2.097.186.137-.087.187-.174.199-.788.105-1.44-.273-1.768-.893-.28-.534-.664-1.006-.918-1.551-.193-.404-.397-.764-.391-1.254 0-.385-.26-.744-.273-1.185-.006-.242-.366-.509-.472-.88-.099-.348-.266-.621-.024-.963.167-.235.086-.471-.013-.738-.167-.459.062-1.03.49-1.309.162-.105.422-.031.397.155-.093.664.391 1.278.193 1.942zM89.478 43.164c-.248-.136-.738-.298-.726-.416.038-.434-.583-.744-.204-1.203.16-.199.428-.335.384-.658-.136-.912.701-.72 1.123-.918.44-.211.838.111 1.123.478.075.099.155.235.149.347-.031.614-.509 1.073-.602 1.688-.062.397-.533.372-.868.459-.118.037-.224.13-.379.223zM146.374 114.483c-.087-.019-.167-.05-.254-.056-.54-.049-.863.614-1.44.453-.552-.155-.862.286-1.116.577-.248.292-.546.422-.844.54-.453.18-1.086 0-1.049-.205.05-.242.149-.496.286-.701.118-.186.229-.546.583-.229.025.024.155-.025.205-.075.738-.744 1.737-.881 2.661-1.222.565-.211.894-.031 1.291.167.198.1.384.304.26.534-.099.205-.26.496-.583.217zM77.058 42.872c-.298.006-.776.062-.918-.397-.15-.496-.466-1.011-.05-1.564.36-.471 1.315-.862 1.867-.688.23.074.615.813.515 1.098-.099.28-.198.552-.273.85-.148.602-.372.707-1.141.701zM145.598 120.247c-.415.267-.508.608-.329 1.08.038.099-.26.353-.514.304-.391-.075-.757-.218-1.049-.503-.087-.081-.18-.248-.155-.335.161-.521.409-.993.788-1.39.08-.087.112-.124.192-.068.317.23.645.447.962.683.056.049.068.142.105.229z"/></g><defs><clipPath id="clip0"><path fill="#fff" d="M0 0h200v179.412H0z"/></clipPath></defs></svg>