<svg width="119" height="100" fill="none" xmlns="http://www.w3.org/2000/svg"><g clip-path="url(#clip0)" fill="#284855"><path d="M118.362 22.031c-.073.476.341.978-.204 1.395-.126.095-.116.455-.079.676.089.54-.01 1.062-.005 1.59.005.703-.178 1.269-.614 1.829-.393.502-.451 1.22-1.012 1.643-.205.153-.084.454-.116.681-.021.185-.01.502-.094.529-.944.317-.818 1.305-1.206 1.955a5.577 5.577 0 01-1.427 1.564c-.257.195-.493.338-.393.628.209.608-.63 1.126-.215 1.617.482.581-.352.993-.006 1.596.221.38-.173 1.04-.084 1.595.032.19.063.402.006.57-.305.93-.278 1.813.267 2.658a.328.328 0 01.021.28c-.43.814.068 1.622.011 2.436-.063.861-.016 1.728-.021 2.59 0 .28.073.57-.147.823-.21.238-.252.608-.116.809.472.713.289 1.352-.126 1.965-.209.307-.104.486.037.76.278.535.603 1.084.168 1.723-.21.307-.11.64.173.893.388.344.472.756.063 1.105-.409.343-.163.517.073.766.084.09.163.343.132.364-.651.45-.305 1.136-.425 1.707-.016.09-.126.2-.1.253.509.988-.257 1.744-.467 2.595-.068.28-.262.607-.021.787.666.486.388.977.068 1.453-.241.364.368.729-.115 1.14-.32.27.383.83-.021 1.264.304.29-.105.803.331 1.062.23.137.062.296-.006.47-.068.169-.105.386-.063.555.131.533.483 1.051.016 1.585.236.47.446.94-.01 1.41.634.861-.132 1.712-.021 2.573.036.275.057.63-.079.835-.383.587-.168 1.083.094 1.596.2.38.457.74.095 1.162-.21.248-.021.428.099.634.158.264.121.576.053.84-.257.962-.383 3.022-.157 3.889.041.169.246.322.12.512-.493.74-.383 1.448.042 2.167.042.068.005.19.005.285.006.349-.624.618-.409.74.394.216.467.465.394.787-.131.544.404 1.046.042 1.6-.289.445.042 1.052-.184 1.433-.283.475.383.76.047 1.183-.236.301-.509.671-.194 1.11.037.047-.021.184-.063.258-.729 1.332-.75 1.326-.755 2.484 0 .491-.021.882-.661.776-.409.687-1.437.328-1.815 1.089-.037.068-.267.052-.409.058-1.49.058-2.937.338-4.369.76-.31.09-.693.18-.971.075-.792-.302-1.61-.032-2.381-.18-.771-.148-1.62.148-2.323-.38-.897.327-1.815-.08-2.691.047-.829.122-1.621.428-2.45.058-.183-.084-.262.058-.33.148-.31.391-.582.301-.97.069-.74-.454-1.443-.18-2.083.29-.472.35-.708.391-1.128-.068-.21-.227-.325-.29-.56-.132-.195.127-.457.211-.557.385-.335.581-.776.444-1.185.196-.782-.476-1.558-.544-2.366-.106-.194.106-.325.248-.603.074-.32-.2-.724-.18-1.07.074-.068.053-.23.106-.246.085-.724-1.004-1.627.1-2.471-.217-.614-.233-1.39.597-2.12-.01-.03-.027-.156.073-.246.094-.445.117-.765.645-1.395.238-.262-.169-.839.302-1.322.228-.188-.027-.43.042-.556-.059-.304-.232-.545-.295-.876-.037a.528.528 0 01-.66-.031c-.918-.772-1.815-.227-2.728.01-.582.153-1.117.476-1.757.397-.32-.043-.64.063-.776-.413-.068-.243-.483.201-.656-.137-1.044.396-2.088.391-3.142.021-.393-.142-.655.249-1.06.264-1.169.048-2.365-.3-3.508.185-.027.01-.08-.031-.116-.053-1.38-.792-2.827.09-4.227-.163-.86.46-1.857.095-2.728.47-.204.09-.351.095-.509-.042-.246-.217-.54-.111-.818-.132-.425-.032-.844.227-1.201.21-.43-.02-.897-.406-1.317-.131-.377.248-.818-.391-1.101.164-.509-.127-.976-.249-1.553-.127-.45.095-.98.158-1.479.153-.666-.005-1.295.322-2.02.047-.43-.163-1.027-.163-1.505.164-.105.074-.304.117-.403.058-.808-.454-1.705.196-2.518-.237-.32-.17-.76.285-.887.206-.897-.57-1.715.132-2.575.121a25.496 25.496 0 01-2.37-.137c-.982-.111-1.952-.164-2.89-.486-.625.417-1.302.084-1.952.137-.168.016-.31.143-.514.032-.745-.407-1.553-.544-2.381-.713-1.065-.217-2.188-.317-3.184-.893-.383-.222-.892-.19-1.102-.703-.084-.206-.31-.185-.493-.185-.241.005-.509.026-.645-.206-.42-.708-1.164-1.004-1.773-1.48-.792-.612-1.232-1.547-1.893-2.287-.693-.772-1.086-1.722-1.558-2.626-.042-.084-.152-.169-.142-.243.158-1.31-.687-2.594-.126-3.926.032-.079-.173-.296-.136-.332.766-.899.865-2.235 2.109-2.88.671-.349 1.19-.888 2.024-.73.257.049 1.542.561 1.794.857.131.153.215.285.42.29.094 0 .199.016.278-.026.236-.11.042-.238-.032-.301-.31-.29-.257-.539-.178-.967.089-.523-.294-1.125.094-1.696.047-.069-.047-.349-.11-.365-.524-.121-.467-.528-.45-.903.02-.454-.436-.993.225-1.353.052-.026.031-.18.057-.264.205-.687-.498-1.289-.241-1.928.262-.655.43-1.237 0-1.881-.09-.132-.073-.391-.021-.56.257-.814.325-1.622-.02-2.43-.017-.038.025-.106.004-.143-.23-.434.703-.27.388-.824-.167-.296-.1-.74-.115-1.12-.016-.386-.005-.767.005-1.152.01-.28-.1-.597.163-.814.818-.671.52-1.49.257-2.261-.131-.386-.079-.719-.068-1.094.026-.724.304-1.384.293-2.14-.01-.697.116-1.48.242-2.208.136-.788.084-1.707.865-2.267.283-.2.294-.449.063-.729-.2-.243-.168-.576-.079-.824.174-.481.383-.978.688-1.38.293-.39-.173-.765.204-1.251.399-.508.572-1.353.514-2.119-.016-.233-.068-.613.163-.634 1.012-.095.718-.602.44-1.168-.042-.084.074-.259.131-.38.284-.587.855-1.205.798-1.754-.074-.687.346-1.094.414-1.638.053-.407.32-.676.399-1.046.037-.17.314-.36.194-.497-.55-.644-.058-1.146.183-1.675.084-.185.116-.354.126-.544.037-.67-.288-1.294-.042-2.029.215-.644.063-1.426.047-2.145-.005-.232-.005-.544-.141-.67-.383-.355-.236-.788-.341-1.179-.105-.402-.577-.76-.635-1.22-.084-.608-.482-.951-.891-1.226-.609-.407-1.37-.597-1.663-1.4-.063-.18-.294-.265-.488-.222-1.038.237-1.888-.407-2.827-.613-.173-.037-.393-.264-.488-.212-.671.354-1.353.391-2.087.254-.719-.132-1.348.439-1.999.465-1.038.042-1.972.808-3.047.396a.516.516 0 00-.284-.005c-1.846.412-2.827.401-4.678-.042-.278-.608-.787.243-1.086-.175-.262-.354-.635-.348-1.018-.385-.503-.053-.44-.735-.98-.893-.667-.201-.897-.988-1.354-1.49-.346-.386-.377-.972-.828-1.358-.41-.349-.478-1.036-.263-1.458.242-.476.006-.782-.02-1.173-.027-.423-.662-.84-.053-1.279-.215-.412.115-.734.163-1.072.146-1.041.697-1.902 1.033-2.848.194-.55.404-1.173 1.232-1.152.278.005.614-.259.824-.491.267-.296.435-.148.713-.053.614.211 1.18-.196 1.763-.306a31.641 31.641 0 002.27-.56c.63-.175 1.36-.291 1.643-1.11.089-.259.361-.581.755-.576.566.005.85-.444 1.101-.814.373-.55.688-1.114 1.354-1.357.157-.059.251-.254.32-.45.367-1.125.624-1.405 2.045-2.308.074-.048.168-.096.21-.17.766-1.426 2.161-2.293 3.116-3.566.886-1.183 2.16-2.055 3.346-2.99 1.065-.835 2.36-1.21 3.378-2.082.367-.312.897-.085 1.358-.217.918-.264 1.737-.813 2.738-.871.357-.022.682-.238 1.039.031.1.074.299.132.393.08.745-.407 1.422-.048 2.093.19.262.095.415-.016.63-.053.765-.132 1.473-.27 2.27.264.551.37 1.349.576 2.052.719.508.1.85.285 1.206.623.504.47.855 1.141 1.678 1.215.415.037.42.587.656.877.2.243.52.243.708.608.394.75 1.254 1.194 1.474 2.103.026.121.184.216.294.306.745.613.677.634 1.122 1.923.294.862.677 1.776 1.285 2.41.609.634.661 1.379.908 2.092.073.211.094.438.204.655.85 1.654 1.16 3.524 1.993 5.194.121.238.1.555.095.84-.005.39-.005.766.357 1.025.22.158.215.407.215.65 0 .19-.042.407.026.57.262.634.718 1.237.802 1.886.084.66.294 1.258.478 1.876.136.454.64.856.162 1.39-.031.037.037.174.074.253.215.46.204 1.036.708 1.342-.567.655.131.888.42 1.247.125.159.24.322.178.513-.158.47-.31.898.393 1.035.152.032.157.212.163.354.01 1.13.01 1.13.414 1.865.068.122.147.243.173.375.09.455-.241 1.131.21 1.327.713.311.21.945.55 1.352.263.317.169.877.389 1.316.451.903.803 1.854 1.222 2.774.1.216.289.417.205.655-.341.945.078 1.748.619 2.382.472.55.482 1.2.734 1.786.194.46.02 1.062.55 1.4.142.09.132.28.043.38-.278.318-.142.54.02.878.294.597.137 1.395.866 1.823.12.074.278.538.267.755-.057.988.467 1.68 1.002 2.399.215.29.33.66.467 1.004.252.628.362 1.331 1.034 1.712.136.079.23.311.256.486.174 1.003.95 1.7 1.296 2.615.032.085.095.153.147.232.047-.079.126-.148.141-.232.105-.502-.094-1.01.153-1.543.21-.449.902-.57.76-1.215.525-.19.598-.454.283-.951-.162-.254.194-.518.415-.671.414-.29.808-.581.96-1.099.084-.296.267-.518.56-.592.242-.058.305-.211.295-.412-.042-.803.54-1.289.986-1.791.215-.243.472-.375.44-.75-.02-.248.058-.407.341-.529.283-.126.635-.39.708-.66.289-1.067 1.275-1.733 1.527-2.8.073-.307.445-.201.508-.418.095-.3.478-.623 0-.95-.22-.154-.299-.418-.068-.603.436-.354.44-.814.41-1.3-.053-.935.188-1.902-.268-2.8-.058-.116-.063-.322 0-.423.44-.681.01-1.352-.063-2.002-.058-.523-.21-.993-.12-1.564a3.09 3.09 0 00-.216-1.67c-.073-.169-.173-.359-.157-.528.11-1.2-.462-2.33-.315-3.53.037-.3-.016-.57-.283-.76-.262-.185-.325-.46-.294-.76.053-.46-.047-.862-.446-1.137-.414-.285-.424-.713-.398-1.152.042-.713.252-.824.965-.634.52.138 1.044.201 1.038.915 0 .163.095.258.242.3.891.27 1.022 1.142 1.096 1.808.079.686.561 1.061.776 1.611.084.211.436.317.666.476-.204.232-.215.512-.225.803-.021.396.178.67.514.766.509.148.514.539.687.935.2.454.131 1.057.64 1.379.225.142.22.449.147.66-.19.544.393 1.046.047 1.606-.11.18.115.339.241.476.257.28.525.555.782.84.246.27-.142.73.278.951.105-.364.34-.544.724-.486.55.09.655-.423.713-.708.12-.565.535-.798.834-1.173.367-.46.635-.756 1.222-.703.273.022.373-.27.572-.38.524-.301.456-1.014.897-1.337.43-.317.88-.56.865-1.194-.005-.142.157-.185.283-.259.777-.438 1.207-1.062 1.417-1.849.13-.486.293-.983.545-1.416.173-.296.44-.47.152-.856-.073-.1.063-.454.2-.607.361-.407.66-.803.53-1.395a.541.541 0 01.172-.523c.887-.803.992-1.86.97-2.964-.01-.476.048-.925.3-1.363.556-.973.676-1.432.692-2.573 0-.148.01-.243.084-.35.923-1.347 1.117-2.202 1.553-3.809.225-.83.346-1.722.718-2.51.394-.84.483-1.848 1.29-2.461.315-.238.194-.613.347-.909.493-.951.975-1.913 1.405-2.895.504-1.147.897-2.352 1.815-3.266.042-1.257 1.5-1.368 1.889-2.372.089-.232.466.27.723.1.472-.322.74-.042 1.039.275.509.544.97 1.078 1.259 1.818.398 1.025 1.169 1.86 1.568 2.943.498 1.352 1.993 1.653 2.948.956.493-.36.745-.935.975-1.506.21-.533.173-1.215.84-1.49-.027-.607.356-1.062.598-1.564.419-.882 1.248-1.225 2.14-1.405.466-.09 1.295.428 1.552.935.063.122.026.338.11.391.635.423 1.034.904 1.201 1.738.137.682.693 1.327 1.191 1.876.278.306-.556.687.184.882.33.085.372.714.388.988.084 1.554 1.012 2.795 1.421 4.217.142.49.493.914.388 1.474-.015.09-.026.222.021.274 1.107 1.231.897 2.806 1.118 4.27.089.596.173 1.225.351 1.78.189.57.189 1.062.241 1.553zm-15.457 71.977v1.839c0 .137.131.343.178.269.315-.497.792.296 1.091-.164.173-.259.451-.275.745-.328.677-.126 1.437-.206 1.442-1.204 0-.148.189-.338.341-.439.724-.486.866-1.172.803-1.997-.037-.454-.089-.914.204-1.379.263-.417-.078-1.035.299-1.48-.398-.454-.057-1.072-.283-1.5-.252-.475.241-.956-.183-1.405-.189-.195-.142-.645.089-.935.126-.159.199-.322.068-.507-.315-.444-.247-.856-.011-1.332.221-.438-.367-.845-.183-1.331.016-.042 0-.106.026-.138.404-.523.273-.961-.194-1.363-.163-.137-.21-.401-.105-.523.383-.454.121-.882-.021-1.289-.173-.507.236-.951.058-1.464-.226-.66.01-1.363-.262-2.087-.205-.56.162-1.342.309-2.023.231-1.073.351-2.13-.089-3.186a2.557 2.557 0 01-.158-.666c-.036-.417.331-.86-.094-1.278-.021-.021.236-.264.205-.338-.242-.63.577-1.115.194-1.77-.341-.587.215-1.131.136-1.75-.105-.85.058-1.732-.047-2.583-.053-.444.54-.734.168-1.189-.079-.095-.142-.343-.1-.38.21-.174.446-.38.698-.433.451-.085.288.338.398.565.352.719-.099 1.522.284 2.224a.35.35 0 01-.011.28c-.372.624-.278 1.29-.026 1.887.141.338-.446.57-.011.877.289.206.415.47.147.85-.225.317-.189.798-.063 1.115.472 1.21.262 2.425.116 3.64-.027.212-.006.328.089.476.572.877-.22 1.913.299 2.805.026.043-.058.201-.126.238-.477.264-.32.64-.105.93.283.375.058.671.047 1.01-.01.427-.53.691-.241 1.199.362.634.498 2.07.33 2.842-.052.233-.194.407-.01.64.194.242.241.549.037.787-.268.3-.147.634-.189.956-.058.444.162.814.278 1.21.126.428-.409.729-.304 1.21.073.322.036.66.33.903.094.074.247.175.163.333-.404.777-.137 1.596-.168 2.399-.026.665-.032 1.331-.32 1.928-.257.54-.278 1.078-.278 1.649 0 .364.157.819-.226 1.067-.551.36-.141 1.02-.514 1.421-.173.19.037.243.142.26.918.142 1.941-.503 1.993-1.359.047-.755.336-1.453.378-2.219.042-.729.068-1.48.183-2.224.131-.861.231-1.802-.225-2.652.362-.582-.121-1.147-.037-1.744.094-.655-.21-1.469.073-1.981.336-.603-.33-1.184.2-1.68.073-.07-.006-.38-.1-.523-.241-.386-.058-.682.053-1.057.178-.618.419-1.226.393-1.923-.021-.476-.645-.618-.451-1.073.199-.47.225-.93.037-1.379-.21-.496.388-.95.005-1.448-.352-.46-.194-1.02-.168-1.526.042-.814.388-1.596.005-2.452-.157-.354.068-.877.079-1.326.026-1.194-.771-2.346-.178-3.577.021-.042-.153-.158-.147-.232.063-.91-.347-1.765-.11-2.721.194-.793-.053-1.691.298-2.5-.419-.433-.178-.824 0-1.289.174-.454-.141-1.067.41-1.437.131-.09.157-.216.015-.327-.503-.391-.425-.745.016-1.147.593-.544.567-.576.026-1.4-.11-.17-.236-.36-.068-.502.488-.407.184-.681 0-1.12-.22-.528-.315-1.22.226-1.733.272-.259.404-.592.178-.888-.383-.491-.33-.972-.205-1.527.1-.438.205-.972.158-1.352-.163-1.321-.331-2.61.105-3.91.131-.39-.305-.56-.415-.856-.147-.396.604-.533.394-.935-.43-.824-.189-1.685-.226-2.53a25.264 25.264 0 01-.01-2.447c.042-.792.676-1.511.288-2.367-.037-.08.095-.259.184-.36.797-.903 1.311-2.018 2.182-2.863.435-.417.503-.977.53-1.548.597-.19.975-.703 1.049-1.22.089-.634.34-1.147.587-1.707.708-1.611.682-1.627.608-3.693-.015-.412-.23-.914-.162-1.205.304-1.273-.373-2.35-.582-3.497-.132-.719-.43-1.422-.42-2.188.005-.28-.115-.57-.131-.819-.074-1.12-1.17-1.786-1.201-2.895-.756-1.02-.761-2.378-1.49-3.408 0-1.152-.792-1.986-1.212-2.964-.304-.718-.844-1.347-1.316-1.986-.184-.249-.367-.328-.645.031-.666.85-1.154 1.807-1.616 2.758a30.05 30.05 0 01-1.484 2.668c-.194.317-.352.397-.64.37-.834-.074-1.684.185-2.507-.238-.262-.132-.651.54-.96.011-.21-.354-.54-.671-.519-1.136.015-.343-.221-.613-.32-.92-.184-.565-.352-1.214-.84-1.6-.713-.565-1.085-1.332-1.39-2.145-.094-.26-.136-.238-.356-.132-1.05.512-1.144 1.833-2.077 2.451-.268.18.257.433.073.745-.32.55-.34 1.3-1.09 1.548-.074.027-.137.09-.205.143.729.819-.96 1.152-.383 1.939-.698.655-.593 1.791-1.416 2.388-.53.386-.19.983-.279 1.48-.089.49-.823.618-.723 1.183.036.216.257.507.126.66-.404.486-.336 1.01-.394 1.58-.063.613-.11 1.405-.829 1.86-.262.164-.393.64-.456.993-.09.518.22 1.152-.514 1.448-.079.031-.063.253.037.385.383.508.1.867-.262 1.237-.289.296-.86.518-.441 1.11-.32.961-.425 1.996-.86 2.921-.173.37-.504.666-.76.999.503.433-.032.771-.127 1.136-.057.211-.288.38-.236.644.1.518-.11.888-.43 1.29-.21.264-.31.676-.461.998-.593 1.279-1.091 2.62-2.224 3.593-.289.248-.703.053-.83.39-.11.302-.146.624-.298.925-.126.254-.257.37-.52.37-.214 0-.272.17-.398.307-.614.655-.95 1.616-1.962 1.86-.115.026-.272.2-.272.311 0 .734-.347 1.046-1.06.983-.204-.021-.304.09-.41.296-.23.46-.57.86-.796 1.32-.105.217-.215.571-.378.55-.462-.058-.53.074-.593.518-.047.338-.404.644-.786.76-.404.122-.535.529-.85.735-.394.259-.21.703-.33 1.04-.158.445-.945.085-.992.614-.058.692-.65.84-1.002 1.23-.503.56-1.08 1.047-1.4 1.776-.257.597-.54 1.231-.981 1.675-.283.29-.535.48-.457.898.095.48-.194.634-.555.84-.656.375-1.165.893-1.154 1.744.005.718-.294 1.352-.876 1.685-1.018.581-1.249 1.495-1.443 2.547-.136.76-.566 1.463-.818 2.208-.136.407-.446.248-.687.328-.074.026-.173.132-.173.2-.037.915-.362 1.733-.813 2.51.467.782-.137 1.22-.562 1.68-.246.265-.377.523-.367.883.01.28.027.55-.147.824-.267.438-.472.92-.42 1.463a.774.774 0 01-.104.397c-.514.956-.53.972-.472 1.76.02.3.02.654-.273.755-.697.227-.577.766-.561 1.273a13.931 13.931 0 01-.273 3.096c-.073.365-.503.407-.467.935.058.835-.162 1.701-.136 2.563.005.185-.01.507-.084.528-.656.2-.383.755-.514 1.168-.147.454-.76.787-.288 1.39.015.02-.147.258-.268.306-.383.158-.451.465-.619.819-.278.597-.346 1.426-1.16 1.68-.135.042-.204.185-.198.338.036.882-.436 1.284-1.254 1.405-.152.021-.33.222-.41.38-.691 1.427-.87 1.586-2.113 2.067-.257.1-.687-.048-.76.258-.168.714-.65.698-1.196.714-.153.005-.399.185-.425.322-.126.613-.598.454-.992.565-.288.08-.666-.037-.828.122-.357.349-.661-.28-1.013.047-.22.201-.645.069-.902.333-.042.043-.204.037-.262-.01-.782-.65-1.72.56-2.491-.206-.016-.016-.158.074-.231.132-.876.67-1.962.602-2.932.618-.609.01-1.338.185-1.936-.206-.52-.344-1.002-.402-1.573-.064-.252.154-.645.059-.976.085-.456.037-.75-.36-1.16-.45-.492-.11-.665.63-1.226.45-.3-.095-.661.026-.903-.296-.078-.106-.267-.254-.314-.227-.446.259-.887-.28-1.411.11-.42.313-.85-.422-1.354-.48-.047-.005-.11-.016-.141.005-.661.529-1.301.196-1.978.006-.435-.122-.897.005-1.38-.175-.303-.116-.64-.438-1.137-.211-.535.248-.714-.497-1.118-.687-.084-.037-.178-.085-.262-.074-.535.074-.84-.343-1.253-.528-.567-.249-.992-.766-1.564-.898-.65-.148-.965-.518-1.18-1.073-.283-.74-.939-1.294-.98-2.16a.693.693 0 00-.341-.561c-.457-.28-.824-.703-1.238-1.051-.2-.17-.394-.529-.698-.286-.388.307-1.154.09-1.211.793-.037.444-.373.644-.52.977-.152.349.242.761-.084 1.141-.603.719-.315 1.464.1 2.103.587.898 1.08 1.855 1.657 2.753.373.576.787 1.252 1.548 1.358.466.063.828.148.991.623.079.233.252.254.446.254.724-.005 1.217.433 1.715.882.241.217.404.497.776.587.845.2 1.663.586 2.513.665.467.043.923.117 1.38.207.529.105.901.998 1.6.332.01-.01.14.1.209.17.55.57 1.222.39 1.851.242.215-.052.457-.274.65-.153.525.328 1.097.344 1.643.238.571-.111 1.07.513 1.479.259.613-.38 1.06.084 1.584.069.692-.016 1.421-.217 2.072.248.094.069.32.058.414-.01.378-.275.865-.429 1.196-.202.593.407.666-.385 1.054-.343.142.016.32-.032.415.042.393.317.734.264 1.164.027.262-.143.656-.116.976-.074.587.08 1.4.121 1.751-.027.389-.163.735-.428 1.175-.095.305.233.593.016.913-.074.567-.158 1.164-.65 1.72-.317.483.29.882.006 1.275.09.488.106.886-.016 1.332-.047.514-.037 1.05-.302 1.58-.106.57.211 1.132.153 1.699.005.073-.016.183.048.251.1.43.323.792.222 1.107-.169a.702.702 0 01.776-.232c.85.27 1.81-.555 2.607.264.042.043.268-.042.367-.116.19-.143.346-.333.535-.475.084-.064.236-.307.3-.085.235.814.65.143.975.143.666.005 1.348-.096 1.993.026.399.074.713.174 1.16.132.555-.053 1.132.185 1.688-.169.147-.095.378-.032.52.127.35.39.676.523 1.237.285.389-.164.929.143 1.243-.428.173-.312.64-.47.84-.158.435.67.855.47 1.41.237.226-.095.452-.46.86-.142.347.27.924.618 1.296.317.478-.391 1.002.18 1.375-.238.43-.476.865.2 1.269-.026.404-.228.766-.54 1.175-.772.147-.084.372-.084.55-.053.583.106 1.254-.491 1.758.217.377-.148.75-.803 1.138-.01.54-.381 1.122-.37 1.768-.339.629.032 1.725.032 2.182.317.514.323 1.012.37 1.526.01.152-.105.351-.142.498-.253.289-.227.509-.311.87-.053.4.286.903.619 1.317-.052.11-.18.237-.016.341.052.357.222.677.307 1.128.117.346-.148.771.248 1.207-.19.293-.296.938-.302 1.31.042.64.591 1.233.385 1.947.174.582-.169 1.316-.787 1.888.148.073.121.477.148.66.069.363-.159.657-.127 1.024-.016.456.137.876.037.776-.624-.047-.332.126-.628.388-.697.619-.159.457-.618.472-1.014.021-.45-.089-.782-.488-1.1-.702-.565-1.689-.475-2.35-1.114-.083-.08-.398-.021-.524.074-.593.46-1.222.39-1.757.026-.451-.306-.682.285-1.033.111-.336-.164-.656-.375-1.002-.496-.152-.053-.394.005-.53.1-.267.19-.55.095-.823.148-.698.137-.897-.772-1.4-.75-.494.02-.908.713-1.538.317-.32-.201-.593-.053-.923.005-.619.11-1.17.565-1.867.343-1.05-.338-2.114-.39-3.116.18-.194.11-.32.174-.467-.021-.283-.375-.53-.391-.954-.106-.352.238-.73-.063-.923-.428-.105-.2-.11-.449-.179-.676-.23-.756-.178-.925.525-1.147.708-.221 1.395-.443 1.935-1.02.205-.216.666-.464.855-.374.724.348 1.217-.196 1.563-.508.624-.56.997-1.342 2.02-1.416.367-.026.65-.708 1.054-.908.425-.212.524-.455.483-.872-.053-.55.136-.951.755-.962.477-.005.472-.46.572-.708.157-.39.257-.771.55-1.115.425-.502.981-.945.976-1.706.724-.259.55-.872.55-1.416.006-.845.273-1.686-.23-2.536-.2-.338-.005-.972.1-1.384.141-.56.251-1.025-.137-1.443-.451-.491.32-1.072-.168-1.527-.037-.031-.073-.063-.1-.105-.435-.719-.986-1.39-.87-2.32.031-.27-.157-.428-.315-.607-.587-.666-1.631-1.047-1.437-2.23.005-.032-.042-.106-.073-.111-.782-.137-.672-.93-1.002-1.4-.131-.185-.158-.38-.425-.486-.247-.095-.436-.36-.635-.56-.183-.19-.22-.476-.089-.66.12-.17.446-.381.572-.328.65.285 1.526.248 1.914.924.3.518.745.946.929 1.559.12.407.24.92.907.92.131 0 .561.459.294.897-.116.19-.063.423.152.439.954.063 1.07.803 1.19 1.495.095.534.336.957.64 1.385.205.29.593.612.252 1.083-.042.058.053.317.137.354.629.285.66.83.687 1.41.016.307.241.703.12.893-.272.412.11.603.147.898.042.328.063.65-.162.957-.562.771-.079 1.79-.567 2.594-.026.042.026.169.074.216.288.28.54.608.314 1-.199.353-.225.87-.724.987-.304.074-.361.259-.335.518.037.364-.2.597-.352.893-.409.798-1.232 1.22-1.652 2.002-.183.344-.178.82-.703.967-.556.159-.199.777-.44 1.136-.131.19-.263.211-.44.27-.578.184-1.181.343-1.365 1.061a.481.481 0 01-.304.286c-1.08.237-1.72 1.278-2.78 1.548-.131.031-.273.09-.115.259.063.068.136.132.21.195.178.153.383.132.493-.037.278-.417.582-.327.949-.142.136.068.304.396.451.158.451-.734 1.311-.153 1.794-.608.587-.554 1.248-.005 1.794-.184.524-.175.766.058 1.002.348.126.159.246.37.403.275.924-.587 1.679.09 2.476.328.446.132.782.232 1.301.105.472-.11 1.033.159 1.437-.37.032-.042.21-.031.262.016.41.38.903.201 1.364.227.189.011.399.006.467.228.21.718.928.718 1.416 1.046.221.148.341.095.32-.18-.037-.56.042-1.104-.246-1.659-.31-.586.278-1.168.236-1.786-.006-.084-.074-.174-.131-.243-.236-.3-.247-.745-.084-.946.346-.422-.105-.692-.084-1.046.031-.443.367-.76.32-1.22-.037-.386.005-.766-.347-1.036-.319-.248-.319-.67-.188-.919.309-.613.346-1.147-.027-1.728-.089-.137-.083-.406.084-.533.724-.555.483-1.152.069-1.728-.189-.264-.111-.555-.184-.814-.152-.539.414-1.009.173-1.479-.267-.523-.094-1.036-.152-1.543-.026-.232-.026-.496.063-.697.425-.967.152-1.955.131-2.938-.016-.676-.441-1.347.063-2.04.136-.19.142-.639.01-.834-.498-.719-.104-1.368.126-1.987.142-.385.168-.607-.131-.86-.33-.28-.309-.545 0-.836.11-.105.325-.184.168-.443-.488-.82.157-1.696-.121-2.552-.141-.434.41-.925.981-.893.614.037.467.491.278.824-.136.238.084.328.089.48.021.751.242 1.517-.146 2.236a.698.698 0 000 .681c.592 1.157.047 2.346.021 3.503-.016.671-.069 1.279.215 1.886.094.206.325.354.209.634-.419 1.004-.335 2.024-.063 3.044-.382.517.436 1.247-.304 1.706-.194.122.021.222.042.333.089.55.147 1.115.467 1.596.105.163.268.354.121.507-.577.613-.152 1.31-.205 1.96-.031.375-.073.74-.152 1.11-.152.76-.566 1.569.047 2.346.189.242.058.522-.057.802-.158.381.398.46.409.793.005.09-.016.222-.074.259-.666.444-.409.946-.094 1.448.068.11.12.19.052.359-.241.602-.078 1.316-.482 1.886-.1.143-.284.285-.053.45.472.337.362.829.383 1.299.026.64-.231 1.363.441 1.854.11.08.063.133.005.238-.257.608.047 1.3-.089 1.839zM31.266 1.98c-1.579-.185-3.886.586-5.02 1.172-.818.423-1.552 1.03-2.507 1.142a.495.495 0 00-.246.121c-1.233 1.057-2.534 2.03-3.735 3.128-.456.417-.498 1.173-1.185 1.358-.756 1.194-2.046 1.891-2.806 3.085-.074.111-.152.333-.205.328-.614-.08-.545.46-.787.755-.241.302-.76.45-.928.825-.304.687-.955 1.046-1.348 1.627-.425.634-1.196.835-1.668 1.469-.378.502-1.112.84-1.752 1.009-.425.11-.572.866-1.154.47a21.766 21.766 0 01-3.404.502c-.435.032-.598.243-.456.645.063.174.136.37.257.502.545.565.708 1.167.299 1.886-.063.105-.016.285 0 .428.126 1.046-.006 1.025-.493 1.86-.415.713-.934.977-1.674 1.025-.382.026-.53.227-.272.55.199.247.461.443.225.802.913.491 1.359 1.448 2.067 2.145.22.212.356.132.582.021.215-.105.435-.185.587-.375.761-.924 1.438-1.933 2.523-2.525.425-.909 1.506-1.02 2.093-1.733.11-.132.32-.19.488-.264.325-.138.52.169.766.269.383.159-.01.38-.063.539-.163.486-.456.909-.965 1.083-.477.164-.771.539-1.112.867-.65.623-1.16 1.394-1.988 1.822-.268.143-.252.391-.2.619.053.227.263.232.457.221 1.175-.068 2.365.185 3.53-.142.168-.048.241-.016.351.053.687.422 1.29.195 1.847-.265.199-.163.44-.322.634-.2.478.29.834.248 1.207-.17.21-.232.55-.174.813-.126.498.095 1.164-.391 1.468.407.535-.064 1.06-.201 1.605-.148.21.02.357.121.478.27.278.348.619.464.991.205.53-.364.845-.084 1.212.286.44.449.949.834 1.426 1.252.735-.243.787.554 1.133.84.546.454 1.091 1.046 1.112 1.87.01.507.488.682.672 1.046.204.402-.378.999-.027 1.284.735.597.257 1.3.32 1.944.016.159-.057.323.021.513.242.586.215 1.173.016 1.791-.131.401-.11.856-.126 1.284-.01.322.378.623-.1.977-.288.212.258.619.048 1.01-.32.591-.672 1.199-.268 1.923.084.148-.037.354-.12.533-.32.66-.467 1.39-.85 2.03-.31.512-.682 1.061-.304 1.706.094.163.057.264-.053.343-.482.338-.383.835-.367 1.305.026.724-.136 1.41-.582 1.97-.315.392-.325.762-.21 1.195.032.116.278.254.095.338-.682.338-.21.983-.378 1.464-.09.253.194.65-.22.914-.084.052-.147.322-.1.375.435.475.204.834-.236 1.009-.567.227-.451.623-.205.877.41.433.52.76.01 1.168-.088.073-.178.306-.136.364.483.65.131.925-.45 1.136-.153.053-.184.296-.106.365.389.354.373.745.226 1.199-.136.423.246.777.058 1.31-.242.671-.095 1.464-.289 2.22-.136.538.357 1.193-.299 1.738-.147.121-.152.681.157.914.473.354.22.586-.047.892-.43.492-.587 1.163-.372 1.723.178.47.262.76-.147 1.088-.225.18-.026.307.079.444.11.148.393.322.267.455-.425.454.1.877-.02 1.283-.132.455-.006.914-.19 1.39-.178.465-.089 1.035.436 1.395.178.127.498.428.346.55-.483.395.226 1.003-.31 1.352-.199.132-.325.37-.11.607.179.201.268.513.137.655-.394.44-.168.84.057 1.152.289.397.347.846.247 1.22-.21.783.545 1.639-.205 2.357-.005.005.063.069.079.111.205.566.31 1.157.74 1.638a4.297 4.297 0 001.84 1.226c.61.216 1.212.592 1.863.158.189-.127.241.032.351.074.367.132.577.032.41-.375-.09-.222-.21-.417-.195-.665.032-.413-.126-.825.168-1.237.399-.56-.556-.681-.462-1.2.042-.232-.005-.48-.005-.718 0-.718.005-1.442 0-2.16 0-.386.147-.952-.042-1.115-.613-.529-.204-1.11-.241-1.654-.032-.529-.115-1.089.026-1.575.152-.523-.037-.972-.037-1.453 0-.523.368-1.072-.1-1.564-.11-.116-.046-.216-.02-.359.241-1.363.246-2.7-.283-4.026-.263-.655-.383-1.384.24-1.97.153-.143.263-.376.158-.513-.503-.629.12-1.442-.372-2.082-.252-.322.089-.607.278-.819.162-.185 1.18-.09 1.19.064.074.797.772 1.495.567 2.245-.126.47.315.888.037 1.152-.53.502.063.872.026 1.3-.058.697.147 1.426-.268 2.081.352.513.226 1.094.263 1.654.036.523.068 1.057.194 1.564.11.433.12.782-.079 1.215-.236.518-.294 1.11.247 1.559.152.127.309.375.199.491-.52.555.126 1.194-.21 1.807-.262.481.09 1.088.168 1.638.068.491-.435 1.078-.341 1.548.079.391-.01.845.247 1.226.173.259.267.592.33.909.204 1.03.792 2.055 0 3.101-.184.243.09.576.498.587.934.026 1.878-.064 2.785.285a.852.852 0 00.562-.005c.283-.106.535-.154.383-.682-.174-.581-.567-1.104-.609-1.654-.042-.555-.068-1.22.383-1.754.525-.618-.451-1.226-.09-1.876.022-.042.059-.079.085-.116.257-.401.141-.84.073-1.247-.037-.211-.357-.449-.21-.639.604-.798-.183-1.701.247-2.51.23-.433-.414-.803-.21-1.194.603-1.146-.173-2.182-.215-3.275-.016-.38-.194-.703.142-1.004.33-.296.34-.613.178-1.025-.267-.677-.252-1.38-.01-2.071.041-.127.13-.344.084-.38-.609-.524-.536-.994.005-1.528.12-.121.126-.523.015-.692-.645-.993.11-1.939.053-2.911-.016-.296.377-.275.577-.185.336.148.98 1.553.776 1.823-.372.496-.162.856.026 1.305.074.169.341.317.153.613-.373.57-.042 1.083.22 1.585.11.206.336.407.11.628-.771.761-.509 1.697-.357 2.547.063.354-.057.608-.047.877.026.597-.556 1.13-.288 1.633.403.75-.021 1.569.272 2.23.352.787.163 1.431-.02 2.17a2 2 0 00.094 1.264c.252.576.325 1.194-.01 1.775-.158.275-.153.592-.09.83.22.824-.1 1.669.037 2.42.12.665-.352 1.352.147 1.97.24.301 1.61 1.363 2.056 1.506.089.026.157.116.246.137.908.243 1.852.17 2.77.217.393.02 1.101.333 1.406-.412.073-.175.325.031.492.068.871.185 1.758.333 2.597-.074.283-.137.43-.454.85-.206.288.175.629-.375 1.017-.079.477.365.944.301 1.427-.058.236-.18.808.174.802-.196-.005-.327-.45-.65-.708-.967-.02-.026-.089-.015-.136-.01-.546.01-.74-.407-.834-.819-.131-.597-.472-.972-1.002-1.183-.205-.08-.351-.175-.315-.391.121-.777-.178-1.269-.907-1.549-.236-.09-.189-.401-.262-.623-.315-.962-.394-2.045-1.306-2.731-.084-.064-.048-.27-.105-.397-.425-.956-.404-2.002-.556-3.006-.147-.967-.478-2.002.252-2.916.047-.059.041-.207.005-.28-.304-.624.178-1.321-.241-1.971-.163-.254-.168-.761.083-1.094.226-.306.168-.634.158-.961-.026-.825.246-1.517.655-2.24.488-.867 1.029-1.797 1.034-2.822.005-.74.367-1.136.802-1.575.273-.274.63-.359.866-.079.204.243.388.629.094.972-.44.508-.593 1.131-.75 1.765-.157.629-.168 1.316-.624 1.833-.478.54-.126 1.2-.304 1.78-.126.408.141.92-.184 1.243-.446.443.273.882-.073 1.283.31.82.367 1.633-.074 2.425.31.576-.068 1.295.42 1.866.21.243.52.586.34.998-.408.967.064 1.717.64 2.372.4.46.709 1.015.835 1.517.325 1.294.991 2.214 2.124 2.858.278.159.729.544.682.66-.32.846.624.809.797 1.274.719-.005.944.491 1.007 1.078.047.417.3.422.588.422.141 0 .293-.031.425.01.461.138.535-.718 1.059-.4.157.094.252-.064.336-.154.44-.486 1.38-.444 1.41-1.363.667-.275 1.212-.66 1.39-1.421.74-.196.84-.782.866-1.422 0-.052.142-.11.22-.142.483-.174.63-.539.556-1.014-.073-.497.777-.391.598-.983-.13-.423.079-.814.257-1.21.173-.38-.031-.935.289-1.215.482-.423-.247-.856.058-1.126.466-.422.393-.856.251-1.352-.115-.407.346-.692.262-1.078-.073-.338-.299-.613.236-.83.315-.126-.435-.538.027-.83.383-.237.336-.649.336-1.03 0-.338.03-.676-.011-1.008-.047-.35.283-.724.168-.91-.346-.575.493-.28.42-.686-.063-.322-.11-.687.388-.935.461-.233-.31-.634-.116-.994.215-.396.105-.972.55-1.21.274-.147.379-.343.305-.554-.294-.846.73-1.496.32-2.357-.052-.116.1-.232.252-.285.598-.206-.032-1.205.797-1.268-.02-.042-.031-.085-.058-.122-.304-.443-.141-.803.194-1.136.153-.153.22-.258-.078-.375-.62-.243-.95-.687-1.207-1.373-.246-.66-.582-1.253-.508-1.992.02-.227-.19-.27-.326-.391-.267-.238-.613-.634-.461-.94.493-.989-.546-1.237-.771-1.86-.415.322-.388.02-.436-.28-.199-1.226-.708-2.336-1.416-3.324-.425-.592-.566-1.278-.834-1.918-.12-.285.047-.697-.078-.982-.624-1.437-.97-2.985-1.731-4.364-.147-.27-.152-.45-.063-.767.425-1.542.168-2.224-1.107-3.434-.22-.211-.535-.592-.32-.792.587-.555.126-.904-.126-1.31-.194-.318-.53-.608-.582-.946-.194-1.194-.76-2.293-.876-3.503-.02-.238.01-.481-.2-.655-.581-.481-.303-1.501-1.137-1.84-.09-.036-.105-.353-.084-.533.057-.57.267-1.151-.273-1.627-.047-.042 0-.185-.021-.28-.179-.951-.142-1.955-.803-2.78-.12-.147-.126-.512-.026-.691.283-.513.047-.84-.304-1.136-.378-.317-.603-.624-.32-1.147.1-.18.073-.644-.016-.681-.865-.36-.55-1.21-.802-1.813-.247-.597-.31-1.262-.829-1.764-.21-.206-.378-.608-.325-1.046.136-1.12.089-1.147-.829-2.04-.173-.169-.315-.333-.336-.602-.078-1.099-.44-2.045-1.437-2.642-.215-.132-.273-.37-.273-.623 0-.185.01-.465-.094-.534-.645-.423-.766-1.178-1.086-1.775-.598-1.115-1.505-2.024-1.956-3.223-.189-.507-.63-.83-1.054-1.125-.42-.291-.955-.465-1.27-.835-.787-.935-1.972-.993-2.963-1.443-1.385-.618-2.917-.665-4.354-.612zm42.539 41.628c.094.106.167.238.278.296.204.11.503-.148.519-.428.01-.174-.09-.254-.247-.264-.283-.022-.388.222-.55.396z"/><path d="M110.516 25.884c-.609 0-1.191.068-1.71-.465-.325-.339-.96-.185-1.207.28-.225.427-.493.49-.881.49-.183 0-.409-.015-.545.075-.871.586-1.359-.317-2.02-.528-.162-.053-.157-.434.016-.634.178-.207.367-.524.687-.26.561.46.944-.094 1.406-.205-.037-.682.923-.222.928-.82.011-.56.488-.787.761-1.156.141-.196.057-.339-.032-.513a12.885 12.885 0 01-.477-1.014c-.262-.634.126-1.284.771-1.3.477-.01.955-.021 1.427.016.561.047.86.417.65.977-.126.333.168.824-.367 1.03-.393.148-.383.63-.608.925-.147.19-.084.354.052.507.603.671 1.159 1.437 2.245 1.173a1.01 1.01 0 01.283-.016c.436.027.64.439.357.782-.294.36-.577.788-1.165.655-.183-.031-.382 0-.571 0zM113.06 18.254c-.252.428-.514.677-.755.73-.09.02-.189.005-.284 0-.272-.017-.598.079-.755-.201a2.702 2.702 0 01-.304-.92c-.074-.449.629-1.11 1.18-1.178.094-.01.299.09.472.248.409.375.609 1.041.446 1.321zM104.033 17.182c.467-.032 1.075.565 1.17.993.073.349-.504 1.279-.866 1.347-.357.064-.855-.147-.996-.322-.242-.29-.21-1.088-.084-1.485.063-.206.556-.517.776-.533zM29.756 23.342c.514-.787.199-1.622.047-2.51-.12-.713-.205-1.505.141-2.245.179-.38.137-.819.01-1.247-.235-.808-.623-1.659.504-2.16.195-.085.147-.328.163-.513.032-.375-.136-.782.1-1.12.157-.222.063-.354-.09-.45-.56-.354-.582-.797-.194-1.262.258-.307.147-.634.174-.957.11-1.183.545-2.25 1.174-3.233.163-.254.368-.227.525.058.09.164-.142.576.22.476.236-.064.73-.09.65-.603-.146-.898.468-1.484.856-2.177.194-.343.461-.3.713-.206.304.117.671.386.771.571.582 1.078 1.684 1.85 1.694 3.286.005.65.472 1.3.934 1.855.278.338.634.76.037 1.168-.037.026-.058.073-.09.11.756.265-.015 1.047.467 1.4.362.265.399.64.33 1.03-.089.508.142.925.352 1.343.131.259.341.46.074.75-.21.227-.116.433.084.613.42.38.445.756.12 1.252-.157.243-.073.618.053.956.141.397.729.719.283 1.258.225.428.173.824.031 1.29-.047.152-.016.374-.162.549-.257.295-.798.496-.352 1.035-.283.407-.1.76.105 1.126.137.242.341.46.289.781-.037.228.01.434-.247.608-.923.64-1.096 1.559-.766 2.573.137.407.315.671-.325.407-.058-.026-.278.243-.357.407-.33.655-.839 1.136-1.447 1.5-.257.154-.415.349-.593.566-.362.433-.776.819-1.41.454-.08-.048-.205-.143-.237-.122-1.17.915-1.615-.792-2.57-.734-.23.016-.352-.39-.341-.708.053-1.168-.21-2.245-.976-3.149-.215-.253-.199-.55-.162-.819.115-.83-.095-1.595-.425-2.325-.131-.28-.142-.533-.157-.882zm7.427-2.821c0-.17-.042-.354-.168-.301-.194.079-.399.227-.373.507.016.153.084.248.252.243.357-.01.263-.285.289-.45zM35.132 8.749c-.068-.047-.126-.127-.2-.132-.068-.01-.204.037-.215.085-.041.169.095.195.216.174.068-.016.13-.085.199-.127zm1.594 10.308c-.136.106-.11.227-.057.354.016.037.052.069.084.1.047-.116.105-.227.13-.343.006-.026-.104-.074-.157-.11zM21.28 15.306c-.473.492-.86-.01-1.165-.253-.34-.275-.336-1.31-.11-1.654.1-.153.236-.296.315-.46.188-.401.45-.813.87-.835.43-.02.897.148 1.312.333.43.19.88 1.929.64 2.325-.063.1-.231.137-.347.206-.461.254-.933.48-1.516.338z"/></g><defs><clipPath id="clip0"><path fill="#fff" d="M0 0h118.447v100H0z"/></clipPath></defs></svg>