<svg width="237" height="261" fill="none" xmlns="http://www.w3.org/2000/svg"><path d="M56.758 174.829c1.028-.412 1.724-1.268 2.216-2.146.738-1.312 1.681-2.476 2.383-3.804.703-1.329 1.483-2.617 2.233-3.916.188-.325.333-.715.611-.939.776-.63 1.028-1.59 1.587-2.349.165-.217.161-.587.35-.757 1.437-1.313 2.02-3.184 3.114-4.72.589-.826 1.003-1.751 1.386-2.729.61-1.561 1.22-3.188 2.436-4.445.001-1.046 1.36-1.383 1.288-2.465-.065-.985 1.115-1.285 1.188-2.218.026-.347.435-.663.46-1.01.089-1.238.736-2.142 1.587-2.934.852-.798 1.355-1.802 1.887-2.812.334-.631.373-1.445 1.21-1.807.643-.276.67-1.083 1.016-1.625.4-.632.642-1.37 1.078-1.972.347-.476.623-.892.67-1.52.063-.838.847-1.229 1.385-1.761.13-.126.734.034.736.208.01 1.387 1.107 2.355 1.372 3.673.24 1.169.837 2.263 1.172 3.431.074.268.215.518.355.761 1.205 2.121 1.983 4.48 3.527 6.424.157.202.137.537.236.799.135.345.341.671.459 1.023.352 1.066 1.303 1.773 1.53 2.978.185.973.958 1.825 1.428 2.747.519 1.004.972 2.039 1.49 3.038.39.755.764 1.534 1.415 2.119.21 1.731 1.466 3.021 1.961 4.647.465 1.514 1.125 2.965 1.78 4.411.349.767.822 1.473 1.32 2.173 1.194 1.685 2.211 3.498 3.371 5.207.491.73.365 1.723.95 2.309.574.567.838 1.27 1.216 1.917.657 1.135.957 2.423 1.401 3.65.289.792.495 1.626 1.147 2.235.181.171.313.23.461.085.277-.266.561-.526.827-.804 1.27-1.323 1.264-1.317.116-3.092-.255-.392-.445-.832-.683-1.236-.529-.885-.755-1.935-1.552-2.685-.693-.656-.342-1.886-1.304-2.455-.181-.106-.25-.5-.277-.768-.081-.848.154-1.76-.588-2.451.229-.857-.352-1.55-.746-2.09-.497-.676-.208-1.57-.811-2.102-.615-.543-.938-1.179-.929-1.998a14.36 14.36 0 01-2.265-2.905c-.097-.16-.314-.259-.387-.426-.416-.934-.672-1.977-1.243-2.802-.594-.866-1.206-1.649-1.379-2.741-.097-.621-.568-1.171-.82-1.778-.319-.774-.952-1.383-.969-2.321-.014-.789-1.133-1.034-1.143-1.907-.711-.608-.662-1.565-.927-2.339-.469-1.382-.996-2.644-2.1-3.624-.29-.26-.472-.581-.477-.999-.009-.849.19-1.778-.658-2.378-.728-.506-.31-1.497-.9-2.029-.875-.791-1.09-1.979-1.757-2.886-.916-1.24-.955-2.65-.84-4.092.011-.15.211-.415.319-.41.257.015.574.084.743.255.181.183.162.578.349.756.495.46.161 1.134.501 1.608.328.463.679.907 1.006 1.37.589.843 1.207 1.649 1.415 2.717.102.525.53.986.828 1.461.2.315.646.621.631.908-.039.825.72 1.367.663 2.151-.052.724.151 1.313.718 1.774.602.489.92 1.179 1.321 1.832.408.66.273 1.444.752 2.114.34.475.877 1.049.76 1.804-.028.167.064.376.155.53.329.558 1.09.843.998 1.663-.076.7.555 1.142.653 1.852.11.788.923 1.473 1.051 2.266.135.824.434 1.412.989 1.98.532.538.154 1.493.912 2.029.614.43 1.045 1.07 1.358 1.796.294.685.606 1.387 1.227 1.906.235.195.121.776.339 1.037.63.758.179 2.144 1.461 2.518.12.035.218.303.244.476.323 2.244 1.223 4.285 2.111 6.344.411.946.654 1.953 1.468 2.662-.369 1.199.943 1.574 1.21 2.479.242.829.895 1.055 1.75 1.183 1.37.206 1.805.094 1.69-1.154-.134-1.38.797-2.513.591-3.91-.187-1.23-.069-2.498-.071-3.753-.003-.281-.037-.646.117-.827.566-.675.366-1.456.412-2.21.07-1.214-.326-2.489.426-3.621-.689-.794-.404-1.514.01-2.362.31-.637-.064-1.5.484-2.187.201-.247.112-.73.138-1.107.056-.844-.024-1.656.432-2.498.322-.601.092-1.501.107-2.267.025-1.04-.178-2.09.493-3.054.182-.259.057-.754.035-1.136-.037-.699-.61-1.159-1.264-.883-.767.325-1.515.136-2.267.162-.591.024-1.283-1.008-.941-1.418.542-.64.12-1.562.777-2.107.148-.121.296-.242.444-.358.103.131.272.254.291.392.059.477-.001.974.117 1.433.038.155.536.365.696.292.422-.202.688-.42 1.235-.115.559.316 1.323.332 1.91-.063.421-.286.652.041.975.073 1.309.135 2.65.432 3.908-.281.624-.354 1.313-.134 1.969-.207.561-.06 1.189.023 1.676-.198.588-.269.078-1.094.503-1.547.088-.097.098-.306.084-.462-.007-.119-1.295-.47-1.485-.426-1.436.315-1.442.339-3.825-.209-.563-.132-.917.745-1.521.183-.392-.36-.921-.163-1.387-.164-1.153-.005-2.311.043-3.463.038a5.824 5.824 0 01-1.119-.138c-.227-.045-.301-.247-.214-.47.064-.162.139-.402.264-.445.792-.259 1.703.065 2.442-.648.271-.266.924-.136 1.328.219.319.277.701.267 1.089.233.573-.048.93-.733 1.583-.537.533.161 1.055.365 1.594.491.269.062.616.089.854-.022.606-.281 1.154-.359 1.773-.013.205.118.556 0 .836-.051.971-.178 2.008.116 2.373.74.134.231.221.523.241.798.043.574.061 1.159.031 1.733-.035.646.32 1.432-.302 1.893-.42.315-1.14.042-1.571.531-1.312.104-2.575.446-3.843.771-.262.068-.68.091-.831-.063-.761-.781-1.376-.23-2.041.13-.737.396-.925 1.152-1.103 1.841-.166.636.106 1.487-.224 1.951-.506.711.25 1.02.196 1.535-.044.377.159.883-.023 1.136-.683.952-.546 2.014-.517 3.042.045 1.357.017 2.666-.813 3.823-.105.15-.241.331-.251.499-.046.67.081 1.38-.098 2.009-.149.534-.502.986-.484 1.608.03 1.129.096 2.228-.429 3.358-.333.715-.065 1.704-.086 2.571-.012.562.036 1.094-.286 1.659-.54.951-.271 2.03-.117 3.062.013.072.121.131.188.196.065-.073.154-.134.188-.218.401-1.068.88-2.089 1.773-2.852a.664.664 0 00.189-.218c.867-2.143 2.575-3.71 3.791-5.618 1.216-1.902 2.497-3.763 3.749-5.642a2.48 2.48 0 00.245-.511c.9-2.425 2.737-4.268 3.991-6.47.229-.397.587-.418.871-.631.303-.224.759-.576.738-.839-.09-1.164.752-1.712 1.389-2.4 1.305-1.395 2.086-3.143 3.186-4.679.324-.452.623-.934.989-1.368.248-.296.663-.551.725-.881.305-1.599 1.603-2.552 2.401-3.822.752-1.192 1.376-2.519 2.519-3.435 1.198-2.457 3.357-4.328 4.242-6.968.255-.75 1.183-1.041 1.168-1.92-.004-.322.759-.498.194-.869-.157-.099-.561.036-.763.182-.426.322-.892.297-1.37.302-1.445.028-2.884.037-4.329.089-.931.034-1.932-.314-2.742.49-.094.096-.411.094-.537.006-1.33-.883-2.816-.233-4.21-.445-.556-.084-1.18.192-1.68-.161-.385-.271-.611-.197-.979.028-.296.183-.726.188-1.097.192-3.367.036-6.736.049-10.103.097-.598.007-1.13-.041-1.612-.449-.108-.088-.407-.079-.537.006-1.412.924-2.987.439-4.48.473-1.2.031-2.498.452-3.635-.385-.121-.088-.443-.097-.538-.006-.727.695-1.687.263-2.46.553-.732.277-1.34.361-2.067.022-.474-.222-.868.291-1.297.397-.25.062-.699-.566-1.001-.33-.918.709-1.732.581-2.604-.026-.127-.088-.382.029-.568-.011-.521-.114-.875.822-1.515.183-.398-.396-1.094-.083-1.617-.466-.355-.259-.9.267-1.453-.158-.428-.33-1.063.018-1.585.34-.285.177-.852.249-1.08.078-.783-.566-1.624-.467-2.478-.458a249.98 249.98 0 01-4.33-.001c-.328-.002-.56-.394-.523-.873.032-.401.111-.778.613-.789 3.081-.046 6.157-.067 9.237-.124.508-.012.91.169 1.348.379.319.158.765.04 1.107.168.6.214.966-.674 1.526-.304.535.353 1.101.257 1.669.263.579.006 1.158.006 1.731-.043 1.116-.089 2.285.275 3.339-.508.314-.231.931-.064 1.409-.075 3.654-.058 7.314-.109 10.969-.167.657-.013 1.333.117 1.906-.409.338-.303.699-.032 1.03.174 1.064.67 1.988-.069 2.952-.325.843.601 1.758.746 2.66.204.481-.286.833-.313 1.284.01.199.142.606.263.766.16 1.175-.748 2.322-.737 3.5-.05.078.047.179.052.269.08.75.267 1.176-.592 1.852-.534.52.048.898.821 1.538.3.219-.181.415-.297.716-.073.499.371 1.043.413 1.595.072.148-.091.385-.273.451-.226 1.252.853 2.631.211 3.934.346 1.01.109 2.076-.178 3.026.404.834-.733 1.836-.307 2.767-.419.405-.052.73.112 1.037.377.314.272.58.628.363.983-.604.981-.688 2.118-1.052 3.174-.029.09.008.227-.045.275-1.076.998-1.377 2.472-2.231 3.611-1.071 1.434-1.926 3.004-3.063 4.409-.872 1.074-1.341 2.478-2.117 3.646-.329.494-1.044.669-1.269 1.376-.167.522-.641.928-.958 1.392-1.388 2.011-2.397 4.258-3.892 6.211-.913 1.188-1.501 2.617-2.654 3.646-.213.187-.438.405-.56.657-.608 1.292-1.196 2.62-2.357 3.499-1.114.843-1.385 2.293-2.445 3.147-.148.121-.343.273-.365.435-.341 2.173-2.455 3.308-3.096 5.3-1.298 1.508-2.222 3.276-3.291 4.937-.399.626-1.258.743-1.398 1.629-.101.611-.752 1.132-.883 1.75-.176.827-1.062 1.129-1.197 1.914-.084.491-.496.495-.811.69-.344.219-.291.691-.067.993.491.646 1.298.745 1.918 1.169.096.065.406-.034.506-.155.525-.645.537-1.686 1.309-2.089.772-.403.636-1.387 1.367-1.736.564-1.435 1.856-2.352 2.606-3.687.451-.794 1.124-1.507 1.629-2.313.346-.554.642-1.322 1.148-1.537.677-.288.617-.921 1.007-1.29.497-.466.945-.967.841-1.731a.423.423 0 01.063-.27c.524-.675 1.054-1.344 1.585-2.013-.172-.913.684-1.317.969-1.99.35-.834 1.025-1.368 1.495-2.066.999-1.488 1.842-3.087 3.13-4.362.187-.911.94-1.409 1.495-2.055.188-.217.473-.394.572-.646.645-1.621 1.91-2.806 2.863-4.204.94-1.379 1.893-2.776 2.731-4.244.644-1.13 1.457-2.185 2.162-3.293.1-.157.187-.391.324-.428 1.494-.423 1.861-1.802 2.482-2.938.404-.746.61-1.615 1.29-2.178a34.78 34.78 0 012.251-1.716 1.61 1.61 0 01.792-.254c1.217-.067 2.487.26 3.601-.577.189-.14.566-.072.853-.045 1.298.129 2.422-.289 3.477-1.012.498-.34.504-.287.416-1.32-.068-.764.001-1.548-.109-2.306-.045-.335-.389-.624-.595-.932-.158-.238-.271-.207-.454-.007-.544.573-1.315.486-1.89.289-.972-.336-1.962-.786-2.563-1.718-.146-.225-.263-.541-.23-.792.211-1.467 1.299-2.471 2.033-3.663.135-.217.709-.157 1.072-.245.179-.043.322-.625.177-.737-.138-.106-.355-.253-.48-.21-.351.118-.652.39-.998.477-.584.144-1.152.049-1.546-.479a.99.99 0 01-.16-.447c-.006-.048.136-.157.219-.164 1.02-.118 2.037.032 3.052-.529.588-.329 1.486-.171 2.155.407.241.201.782.022 1.065.204.469.3.266.882.277 1.336.056 3.467.069 6.94.131 10.406.014.705-.166 1.263-.637 1.818-.714.839-.662 1.215-.11 2.01.431.617.832 1.253 1.251 1.882-.184 1.191.847 2.125.716 3.28-.109.934.376 1.646.677 2.425.142.364.638.454.946.146.626-.629 1.339-.977 2.221-1.154.429-.089.83-.499 1.321-.391 1.114.245 1.958-.637 3.009-.655.938-.016 1.925.165 2.748-.531.118-.097.394.031.56-.042.666-.277 1.165.579 1.837.237.492-.257.992-.495 1.491-.74.447.515.777.087 1.199-.079.434-.172.954-.159 1.346.213.181.171.301.188.479.061.954-.674 2.051-.232 3.077-.363.587.646 1.165.03 1.75.005a1.977 1.977 0 001.29-.522c1.024.79 2.231.281 3.326.49.539.102 1.056.419 1.525.731.457.306.859.409 1.278.016.195-.181.326-.219.472-.005.546.771 1.401.857 2.227 1.076 1.348.368 2.627.958 3.893 1.548.258.122.531.478.728.434 2.251-.52 3.395 1.392 4.987 2.271.799.44 1.293 1.415 2.427 1.301.203-.02.547.293.639.531.601 1.5 1.989 2.286 2.975 3.435.514.599 1.246.872 1.789 1.362.452.407.592 1.159.891 1.742.085.166.242.296.381.432.887.887 1.733 1.816 2.668 2.637.868.768 1.15 1.96 2.113 2.661.614.448 1.134 1.046 1.63 1.633.484.568.814 1.282 1.334 1.808.615.616.679 1.559 1.461 2.077.632.418 1.117 1.052 1.678 1.584.573.544 1.075 1.106.923 1.992-.034.18-.043.425.054.562 1.129 1.655 1.443 3.649 2.257 5.439.575 1.267 1.264 2.533 1.273 3.992.002.681.741 1.121.576 1.87-.137.618.245 1.08.525 1.585.122.22.157.686.015.837-.632.658-.094 1.202.109 1.768.092.262.473.658.425.701-.744.767.224 1.354.196 2.066-.094 2.309.002 4.621.021 6.934.005.383.039.771-.239 1.085-.383.434-.188.791.002 1.279.479 1.202.396 3.415-.086 4.718-.11.294-.191.564-.009.789.266.338.371.612.04.968a.587.587 0 00-.027.783c.557.688.588 1.357.094 2.097-.147.217-.179.534-.206.81-.098.927.302 1.933-.436 2.76.988.803-.204 1.557-.053 2.284.196.967-.55 1.585-.624 2.446-.075.82-.437 1.613-.691 2.411-.052.168-.3.41-.258.463 1.024 1.328-.348 2.024-.768 2.961-.076.169-.337.291-.347.447-.058 1.274-1.003 2.234-1.217 3.426-.09.503-.223.905-.578 1.256-.609.598-1.373 1.109-1.195 2.153.013.077-.052.186-.111.252-.501.585-1.272 1.096-1.438 1.761-.183.738-.414 1.457-.741 2.119-.246.498-.707.898-1.103 1.315-.927.978-1.86 1.957-2.823 2.894-.455.447-.605.933-.575 1.548.024.472-.038.856-.608 1.131-.577.275-1.079.789-1.503 1.301-.66.803-1.326 1.635-1.806 2.549-.474.913-1.847.994-1.916 2.268-.015.287-.459.71-.774.792-1.132.305-1.725 1.226-2.343 2.034-2.255 2.953-2.219 2.983-5.401 4.183-.518.197-1.114.257-1.571.543-.475.298-.864.769-1.235 1.209-.525.621-1.111 1.076-1.979.906-1.179-.232-2.086.932-3.278.628-.988.823-2.167.591-3.302.585-.615-.005-1.14.09-1.522.615-.383.53-.963.482-1.529.608-1.281.277-2.524.769-3.875.622-1.121.706-2.377.54-3.601.577-.095.001-.191.002-.286.015-.746.098-1.264.743-2.137.669-.717-.064-1.113-.717-1.858-.644-1.05.107-2.114.077-3.171.059-.364-.008-.831-.045-1.06-.264-.76-.709-1.434-1.18-2.526-.528-.433.261-1.054-.234-1.469-.528-.626-.448-1.27-.327-1.926-.314-.886.93-1.812.324-2.528-.14-.686-.447-1.502-.241-2.122-.742-.585-.472-1.298-.166-1.955-.206-1.226-.077-2.337-.698-3.568-.727-.676-.722-1.668-.185-2.437-.619-.733-.417-1.519-.749-2.282-1.111-.252-.117-.517-.311-.773-.309-1.726.025-2.991-.995-4.362-1.811-.967-.576-1.97-1.091-2.979-1.594-.841-.421-1.793-.668-2.405-1.445-.575-.729-1.741-.818-2.009-1.867-.938-.617-1.865-1.265-2.821-1.852-.601-.37-1.095-.772-1.074-1.549.009-.311-.102-.639-.371-.689-1.287-.243-1.58-1.4-1.853-2.318-.267-.911-.512-1.519-1.495-1.819-.641-.202-1.054-.813-.961-1.603.11-.886-.079-1.769-.623-2.427-.739-.894-1.114-1.936-1.567-2.954-.459-1.029-.818-2.155-1.502-3.02-.715-.907-.154-2.067-.946-2.955-.598-.675-1.129-1.644-1.18-2.51-.066-1.171-.913-2.124-.716-3.31-.692-1.015-.567-2.17-.64-3.311-.057-.932-.693-1.732-.609-2.737.086-.957.003-1.925-.019-2.887-.009-.281.011-.64-.146-.818-.598-.651-.131-1.642-.537-2.152-.672-.835.194-1.383.091-2.099-.162-1.134-.079-2.307-.038-3.461.032-.933-.17-1.899.46-2.773.318-.434-.738-.859-.148-1.522.254-.29.163-.905.188-1.377.04-.754-.016-1.465.418-2.211.299-.511-.027-1.357.188-1.963.249-.708.456-1.415.621-2.147.08-.359.393-.697.383-1.038-.038-1.362.438-2.587.885-3.829.121-.348.201-.726.233-1.091.047-.574.029-1.154.04-1.734.005-.096-.008-.233.051-.27.723-.527.253-1.497.784-2.1.519-.586-.017-1.584.796-2.065.35-1.265 1.019-2.403 1.453-3.645.423-1.218 1.307-2.274 2.018-3.381.205-.319.507-.556.509-.986.008-.903.58-1.567 1.014-2.289.287-.481.593-.957.868-1.444.469-.824.884-1.665 1.636-2.307.574-.491 1.141-1.041 1.065-1.937-.013-.155.139-.443.252-.463 1.288-.235 1.472-1.432 1.916-2.31.503-.986 1.187-1.836 2.065-2.312.802-.433 1.327-1.072 1.966-1.623.36-.315.63-.82 1.04-.986 1.475-.596 2.253-2.021 3.553-2.83 1.346-.84 2.462-2.018 3.99-2.638 1.392-.559 2.667-1.392 4.033-2.022.416-.19.611-.402.607-.814 0-.484.126-1.042-.075-1.428-.854-1.629-.467-3.366-.569-5.063-.036-.58.017-1.16-.055-1.733-.052-.436-.47-.981-.318-1.252.481-.86-.244-1.079-.652-1.218-.516-.18-1.136-.078-1.715-.066-.179.002-.477.065-.506.167-.316 1.062-1.671 1.13-2.018 2.228-.306.978-.773 1.951-1.373 2.771-.836 1.145-1.551 2.384-2.603 3.394-.81.774-1.33 1.843-2.109 2.653-.81.84-1.433 1.749-1.857 2.83-.418 1.074-1.733 1.537-1.923 2.782-1.819 2.399-3.56 4.857-5.073 7.468-.281.487-.749.875-1.156 1.28-1.371 1.348-2.357 2.961-3.175 4.679-.49 1.034-.975 2.049-1.856 2.818-.58.508-.889 1.217-1.318 1.832-.806 1.162-1.696 2.278-2.573 3.393-1.632 2.062-3.029 4.313-4.511 6.487-.158.229-.233.517-.38.752-.399.644-.81 1.276-1.221 1.908.736.667.352 1.622.611 2.414.692 2.139.666 2.42.144 4.399a5.69 5.69 0 00-.182 1.394c-.017 1.202-.341 2.144-1.529 2.767-.653.342-1.13 1.034-1.661 1.59-.502.526-1.427.595-1.579 1.488-.726.223-1.025.668-.951 1.469.081.86.019 1.733-.002 2.6-.012.568.152 1.314-.143 1.664-.578.693.262 1.013.178 1.522-.017.096.038.209-.003.287-.784 1.527-.432 3.173-.48 4.77-.013.484-.013.95-.356 1.348-.312.363-.147.713.107 1.022.339.414.435 1.005.188 1.343-.512.699-.42 1.445-.454 2.198-.054 1.125.24 2.299-.484 3.335-.064.097.04.377.137.519.225.32.533.676.268 1.025-.671.868-.332 1.851-.399 2.784-.031.455-.269 1.133.211 1.325.678.274 1.344 1.109 2.068.695 1.051-.597 1.943.212 2.933.052.978-.154 1.791.471 2.532 1.073.108.088.207.392.16.44-.343.351-.226.612.028.962.152.202.252.619.146.8-.674 1.149-.428 2.408-.516 3.628-.041.592-.733 1.21-1.397 1.163-1.016-.073-2.104.34-3.045-.481-.187-.166-.807-.063-1.073.131-.972.692-2.052.279-3.065.422-1.023-.683-2.186-.485-3.309-.562-.538-.036-1.049-.359-1.582-.521-1.396-.415-1.928-.965-1.47-2.22.482-1.314.426-2.605.477-3.927.029-.681.583-1.297 1.204-1.364.095-.007.191-.014.286-.015.191-.002.388-.016.579-.006 2.79.089 3.224-.154 3.067-3.016-.045-.843-.227-1.725.397-2.497.148-.187.096-.545.105-.826.043-.939-.194-1.905.489-2.762.189-.241.082-.748.048-1.124-.076-.932.242-1.933-.454-2.763.607-.736.419-1.606.421-2.449.002-.963-.074-1.936-.001-2.888.089-1.119-.413-2.315.382-3.351-.365-.576-.49-1.071-.079-1.781.293-.511.051-1.31.163-1.963.186-1.09-.209-1.689-1.218-2.198-.828-.416-1.365-1.468-2.205-1.776-.845-.313-1.9-.057-2.861-.052-.579 0-1.153-.018-1.732-.012-.448.005-.643.247-.685.689-.21 2.173.549 4.406-.395 6.533.887 1.413.36 2.985.49 4.478.082.961.104 1.912-.514 2.737.134.776-.754 1.527-.052 2.338.06.071-.068.36-.162.504-.705 1.072-1.027 2.247-.887 3.513.138 1.23-.341 2.215-1.041 3.15-.171.229-.408.428-.524.681-.322.679.117 1.499-.514 2.169-.573.61-.935 1.409-1.447 2.084-.459.603-.588 1.412-1.252 1.891-.331.243-.333.679-.299 1.061.088.884-.282 1.51-1.091 1.794-.446.154-.635.407-.606.819.062.819-.115 1.508-.766 2.059-.51.43-.777 1.067-1.166 1.585-.835 1.139-1.406 2.478-2.548 3.417-.48.394-.801 1.055-1.045 1.661-.43 1.069-1.282 1.855-1.779 2.871-.04.078-.13.181-.207.194-1.24.222-1.613 1.613-2.72 1.996-.701.241-1.006.758-1.25 1.43-.22.612-.596 1.184-1.003 1.703-.341.434-.694.928-1.37.935-1.152.007-1.572.926-2.1 1.715.334 1.132-.674 1.262-1.28 1.58-.819.433-1.631.98-2.654.866-.478-.055-.683.312-.649.73.055.681-.291 1.187-.815 1.408-1.575.68-2.956 1.64-4.258 2.73-.314.26-.66.312-1.029.418-.893.254-1.785.551-2.623.949-.862.41-1.936-.051-2.697.746-.142.145-.68.151-.819.009-.549-.55-.985-.007-1.475.016-1.54.071-2.969.439-4.341 1.111-.446.22-.876.153-1.362-.027-1.355-.505-1.858-.577-2.98-.051-.684.324-1.54.1-2.112.788-.16.187-.864.207-1.063.023-.664-.602-1.41-.498-2.174-.508-.836-.009-1.74.318-2.465-.404-.474.346-1.109.7-1.554.394-.8-.554-1.63-.479-2.477-.458-.83.027-1.369-.607-2.059-.892-.515-.21-.868-.236-1.288.104-.498.406-.895.099-1.24-.256-.597-.609-.927-.761-1.774-.644-.841.11-1.37-.117-1.749-.986-.337-.767-.671-.775-1.604-.323-.416.202-.72.181-1.04-.078-.512-.413-.93-.899-1.718-.914-.83-.021-1.233-.86-1.765-1.38-.591-.573-1.15-.98-2.015-.857-.257.039-.586-.059-.797-.206-.77-.542-1.3-1.415-2.27-1.692-.224-1.354-1.915-1.461-2.299-2.701-.074-.244-.363-.444-.592-.621-2.186-1.752-3.534-4.272-5.626-6.108-.594-1.363-1.744-2.241-2.77-3.24-.26-.254-.378-.653-.608-.944-.932-1.191-1.622-2.547-2.774-3.592-.688-.621-1.163-1.482-1.685-2.266-.145-.213-.197-.542-.182-.811.068-.933-.43-1.693-.915-2.333-.545-.718-1.024-1.358-.927-2.292.05-.437-.264-.708-.53-.974-.936-.941-1.318-2.078-1.189-3.371.13-1.281-1.016-2.267-.755-3.561-.922-.761-.113-2.121-1-2.894-.034-1.052-.064-2.104-.11-3.155-.032-.658.098-1.358-.446-1.902-.066-.065-.145-.16-.146-.244-.026-.771-.028-1.542-.06-2.313-.033-.753-.034-1.464-.413-2.207-.317-.624-.064-1.512-.21-2.258-.107-.572.72-.946.235-1.532-.514-.623.048-1.041.27-1.534.076-.162.032-.383.018-.574-.105-1.368.078-2.661.932-3.794.294-.386.124-.707-.119-1.021-.248-.32-.317-.618-.094-1.033.573-1.076.649-2.362 1.432-3.351-.018-1.142.97-2.079.652-3.295-.1-.382.003-.789.329-1.044.663-.521.63-1.328.928-2.001.414-.919.456-2.007 1.307-2.782.438-.399.609-1.154.757-1.783.24-1.049.648-1.98 1.434-2.718.496-.466.951-.925.907-1.702-.014-.233.222-.51.398-.721.614-.712 1.461-1.295 1.276-2.429.665-.922 1.288-1.873 2.013-2.748.436-.525.717-1.03.889-1.725.217-.887.65-1.765 1.413-2.425.562-.49 1.238-.928 1.402-1.766.09-.45.611-.372.89-.602.36-.297.781-.57.757-1.144-.023-.514.261-.744.663-1.089 1.297-1.09 2.73-2.098 3.453-3.75.146-.336.484-.597.75-.869.336-.344.636-.796 1.046-.98 1.753-.772 2.96-2.327 4.641-3.194.422-.22.759-.582 1.297-.505.73.106 1.3-.169 1.76-.736.56-.682 1.303-.953 2.136-1.255.839-.308 1.482-.99 2.533-1.067.776-.057 1.51-.692 2.264-1.071 1.658.383 2.708-1.333 4.28-1.26.077.005.166-.085.25-.134 2.522-1.414 3.414-1.759 5.66-2.238.358-.075.684-.294 1.041-.405 1.44-.44 2.838-1.035 4.417-.819.646.088 1.276-.158 1.925-.35 1.446-.434 3.004-.583 4.462.059.582.257 1.09.317 1.606-.023.261-.17.487-.257.705.01.532.64 1.197.77 2.016.857.795.081 1.536.635 2.31.961.701.298 1.784-.085 1.86-.827.189-1.843 1.74-3.139 1.827-4.987 1.188-1.167 1.168-2.942 2.128-4.232.736-.982.65-2.297 1.487-3.31.76-.917 1.153-2.129 1.871-3.141.694-.982 1.201-2.123 1.998-3.052.341-.404.462-.836.41-1.32-.125-1.039.224-1.843 1.035-2.504.545-.448.921-.966.31-1.707-.206-.255-.205-.721-.215-1.092-.04-1.446.028-2.899-.083-4.333-.11-1.397.34-2.891-.577-4.19-.09-.131-.033-.376-.036-.568-.026-2.408-.052-4.817-.09-7.226-.004-.406.063-.76.371-1.038.142-.127.284-.29.45-.34.072-.025.325.218.308.308-.123.736.503 1.232.57 1.877.087.86.043 1.733.058 2.599.029 1.542.2 3.101.038 4.621-.108 1.023.726 1.923.2 2.921.744.925.427 2.022.474 3.056.072 1.631.071 3.269.107 4.9 0 .078.097.179.176.22.054.023.16-.032.226-.075.782-.594 1.486-1.211 1.288-2.369-.096-.561-.108-1.146.34-1.63a.574.574 0 00.016-.783c-.58-.663-.398-1.448-.418-2.201-.02-.771-.106-1.553-.013-2.307.077-.617-.956-1.12-.139-1.762-1.031-1.49-.309-3.183-.553-4.771-.116-.74.061-1.501-.46-2.201-.273-.361-.099-.877.081-1.358.279-.744-.402-1.8-1.059-1.8-1.827.008-3.654.022-5.481.066-.562.012-1.184-.13-1.67.251-.699.552-1.14-.436-1.824-.231-.53.161-1.153-.006-1.72.054-.888.094-1.673-.143-2.442-.559-.493-.264-.933-.647-1.571-.575-.495.053-.625-.328-.635-.746-.033-1.35-.113-2.7-.08-4.046.025-1.029-.195-2.06.439-3.078.305-.493.08-1.31.11-1.98.014-.28-.044-.699.116-.82 1.042-.8.934-2.013 1.197-3.098.223-.916.946-1.39 1.707-1.716.85-.362 1.88-.128 2.692-.704.053-.043.18.016.269.026 1.46.23 1.46.23 1.44-1.073-.018-1.058-.035-2.122-.047-3.18-.002-.191-.04-.4.018-.574.248-.768-.598-1.147-.618-1.853-.013-.68.088-1.292.434-1.87-.831-.642.322-1.127.136-1.788-.174-.626-.027-1.339-.028-2.015.9-.655-.017-1.554.28-2.244.326-.757.264-1.522.185-2.256-.099-.842.654-1.364.591-2.17-.055-.747-.195-1.547.425-2.181.059-.06.105-.18.087-.258-.293-1.647.844-3.118.58-4.765-.044-.268-.03-.621.117-.826 1.165-1.674 1.022-3.777 1.851-5.574.42-.913.319-2.024.816-2.962.486-.907 1.134-1.74 1.17-2.858.008-.317.429-.608.634-.927.153-.235.395-.5.38-.734-.103-1.332.704-2.327 1.152-3.455.238-.607.758-1.127.6-1.86.719-1.526 1.173-3.157 1.987-4.655.351-.637.78-1.263.837-2.077.046-.682.23-.744.576-.347.538.61 1.333.72 1.93 1.187 1.63.042 2.835 1.493 4.559 1.343.483-.041 1.014.45 1.524.7 1.177.586 2.419 1.075 3.514 1.786.787.512 1.644.173 2.466.541.816.368 1.297 1.164 2.129 1.388.449.12.904.17 1.359.326 1.049.365 2.162.55 3.252.778.377.08.801-.41.607-.73-.365-.6-.705-1.152-.091-1.78-.045-1.925.803-3.638 1.249-5.448.057-.24-.006-.574.383-.47.108.028.141.32.208.493.086.232.219.32.379.23.166-.092.308-.25.486-.305.762-.253 1.547 1.077 2.311-.019.764-.038 1.534-.142 2.293-.096 1.117.071 2.301-.408 3.366.328.078.053.321-.076.464-.16.54-.317 1.077-.33 1.618-.006.673.405 1.142-.467 1.825-.271.527.155 1.139-.12 1.669.25.12.089.371.152.466.091.729-.516 1.376-.403 2.127.025.366.211.926.098 1.399.128a.651.651 0 00.28-.039.471.471 0 00.231-.163c.023-.043-.02-.174-.074-.215-.289-.236-.567-.508-.897-.672-1.261-.626-2.551-1.192-3.8-1.835-.163-.082-.215-.482-.211-.74-.001-.095.289-.272.445-.267 1.045.012 1.935.6 2.929.835.426.718 1.357.69 1.871 1.24 1.033 1.107 2.539 1.18 3.8 1.783.462.222 1.161.232 1.664-.132.374-.273.595-.204.985-.028.222.099.647-.372.97-.358 1.536.073 2.636-.93 3.901-1.5.654-.3.956-1.123.549-1.716-.855-1.258-.428-2.596-.46-3.905-.009-.275.408-.351.579-.526.491-.496 1.795-.27 1.533-1.29-.193-.757-1.169-.406-1.784-.381-.806.032-1.339-.703-2.168-.622-.287.027-.62-.382-.932-.594-.235-.159-.483-.455-.71-.44-.758.037-1.264-.322-1.747-.83-.399-.42-.78-.889-1.261-1.177-.463-.276-1.078-.299-1.576-.532-2.071-.952-4.018-2.091-5.66-3.711-.604-.591-1.108-1.37-2.152-1.232-.149.02-.336-.164-.486-.27-1.427-1.03-6.649-3.999-8.328-4.626-.863-.326-1.786-.543-2.695-.706-1.197-.215-2.314-.77-3.602-.589-1.133.162-2.304.079-3.457.085-.394.005-.715.134-1.071.305a19.813 19.813 0 00-4.496 2.882c-1.077.926-2.384 1.586-3.255 2.761-.259.35-.225.714-.203 1.096-.148.062-.351.088-.428.197-.106.15.04.298.194.2.112-.072.14-.276.204-.426.964.199 1.546-.615 2.325-.898.702-.253.983-.25 1.455.33.267.333.342.685.041 1.029-.501.567-.943 1.164-1.771 1.382-1.756.461-2.252 2.128-3.097 3.447.127.794-.483 1.2-.89 1.72-1.143 1.44-2.667 2.431-4.149 3.452-1.612 1.105-3.243 2.18-5.197 2.668-.714.175-1.415.548-2.031.967-.593.4-1.177.575-1.87.558-.573-.018-1.128.018-1.613.436-.184.158-.543.084-.81.164-.477.149-.695-.686-1.252-.29-.38.266-.807.528-1.253.64-1.263.307-2.413 1.079-3.807.902-.747-.093-1.524-.12-2.18.46-.178.158-.549.12-.83.123-1.731.025-3.463.026-5.195.056-.495.012-.944-.055-1.341-.38a.621.621 0 00-.789-.015c-1.108.825-2.111.256-3.202-.12-2.164-.742-3.176-2.597-4.418-4.257-.038-.759-.286-1.587-.06-2.259.358-1.056 1.029-2.008 1.568-3 .714-1.317 2.194-1.38 3.322-2.015.148-.085.376-.022.573-.024.096 0 .239-.044.281.01.786.917 2.021.228 2.96.864.565.388 1.262.787 2.08.814.628.017 1.114.753 1.852.56 1.978 1.162 3.856.335 5.67-.396.945-.381 2-.632 2.811-1.203.86-.607 1.787-1.035 2.67-1.57a3.002 3.002 0 011.608-.473c1.54-.01 3.08-.087 4.616-.014 1.016.049 1.92.72 3.028.523.668-.12 1.234-.204 1.82-.641.895-.673 1.941-1.145 2.92-1.706 1.37.23 1.405-.965 1.833-1.73.041-.071.022-.197-.015-.28-.037-.083-.158-.22-.181-.207-1.616.794-3.352.395-5.035.497-.651.037-1.272.008-1.927-.356-.53-.293-1.293-.19-1.956-.206-.758-.022-1.486.058-2.196-.43-.764-.53-1.416.54-2.116.405-.616-.125-1.19-.74-1.855-.344-.516.31-1.02.59-1.601.477-1.203-.244-2.248.335-3.277.7-.916.32-1.792.539-2.748.531-1.057 0-2.12.047-3.177.035-.663-.011-1.379.05-1.978-.176-1.307-.488-2.806-.418-3.95-1.368-.272-.224-.773-.153-.88-.612-.3-1.312-1.7-2.056-1.799-3.466-.07-.98.617-2.051 1.7-2.362.554-.161 1.084-.292 1.577-.59.142-.086.376-.023.567-.03.686-.032 1.124.674 1.875.57.543-.077 1.175-.215 1.663.186.512.413 1.09.305 1.657.305 2.114-.011 4.234-.07 6.348-.07.729-.001 1.217-.12 1.53-.918.163-.42 3.067-1.409 3.593-1.414.376-.01.8-.039 1.118.113.432.21.828.398 1.336.41.753.016 1.503-.16 2.265.149 1.902.774 3.925 1.219 5.74 2.221.73 1.337 2.317.627 3.305 1.37.072.052.316-.094.464-.18.546-.316 1.095-.346 1.607.025.463.342.825.081 1.29-.008 1.99-.38 3.774-1.117 5.282-2.478.955-.046 1.718-.748 2.691-.753 1.923-.002 3.846-.06 5.774-.08.281-.003.675-.043.826.116.816.87 2.102.031 2.948.901.356.367 1.01.629 1.524.623.806-.009 1.165.585 1.729.896.475.264 1.096.263 1.583.515 1.669.855 3.157 2.046 4.956 2.666.257.087.463.342.668.543 2.125 2.07 4.644 3.578 7.314 4.775 1.729.776 3.123 2.112 4.933 2.72.707.238 1.347.9 2.028.905.639.005 1.114.854 1.819.26.278-.235.479.14.666.305a4.914 4.914 0 002.521 1.198c.263.045.528.185.762.332.848.511.513 1.567 1.022 2.29.267.38.114 1.105.036 1.662-.033.24-.304.577-.53.646-.982.291-1.565 1.063-2.215 1.751-1.576 1.673-3.602 2.7-5.499 3.921a2.841 2.841 0 01-1.602.484c-.656.013-1.424-.241-1.944.23-.509.466-1.05-.454-1.473.178-.083.12-.339.159-.518.173-.477.029-.962-.014-1.439.027-.597.049-1.147-.029-1.605-.454-.404.249-.79.45-1.297.492-.531.041-.881-.845-1.519-.175-.425.441-.855-.08-1.257-.285-.985 1.128-1.885-.315-2.904-.094-1.012.22-2.107.07-3.164.082-1.923.02-3.852.042-5.775.044-.561 0-1.18.169-1.662-.238-.465-.396-.952.398-1.477-.146-.314-.325-.818-.009-.844.35-.016.191-.014.383-.036.574-.119 1.113.161 2.216-.441 3.353-.451.847.094 2.067-.571 3.013-.088.126.137.53.289.75.158.225.171.393-.109.408-.752.038-1.634.262-2.24-.036-.751-.374-1.444-.39-2.202-.395-.663-.004-1.342.14-1.979-.17-1.086-.526-2.419-.553-3.301-1.482-.61-.639-1.56-.659-2.129-1.388-.32-.409-.94-.737-1.46-.797-1.369-.152-2.464-.924-3.623-1.503-.546-.269-1.148-.13-1.612-.473-.463-.341-.927-.707-1.296-1.14-.563-.657-1.537-.174-2.07-.832-.272.236-.741.45-.774.714-.11.97-.578 1.782-.975 2.629-.438.931-.594 1.967-1.086 2.881-.532.986-.723 2.106-1.238 3.128-.45.896-.426 2.031-.87 2.933-.461.943-.618 1.955-1.013 2.904-.355.853-.578 1.764-.843 2.657-.375 1.254-1.013 2.45-.849 3.824.085.716-.8 1.108-.583 1.86.205.726-.219 1.317-.553 1.858-.657 1.066-.508 2.212-.501 3.342.002.729-.195 1.299-.722 1.789-.189.175-.396.369-.135.7.478.611.395 1.246-.052 1.842-.324.428-.193.923-.206 1.39-.021.753.118 1.499-.364 2.221-.23.344-.145.922-.146 1.395-.001 2.122.034 4.238.033 6.36.002.753.166 1.535-.442 2.199-.147.163-.16.623-.039.825.973 1.61.401 3.373.569 5.057.007.096.032.221-.015.281-.112.139-.253.344-.402.357-.573.06-1.159.019-1.725.09-.645.08-1.086-1.004-1.807-.308-.485.465-1.09.269-1.645.322-.448.041-.552.341-.77.678-.692 1.066-.481 2.367-1.03 3.485-.351.715.125 1.66-.433 2.48-.465.686.162 1.755-.637 2.415-.12 1.048-.151 2.022.475 3.02.547.873 1.54 1.041 2.145 1.752.072.083.43.061.53-.041.987-.974 2.49-.063 3.478-.983.391.295.805.47 1.325.446.596-.03.929-.745 1.576-.555.533.156 1.05.407 1.594.497.562.09 1.153.017 1.727.047 1.021.06 2.116-.388 3.05.421.102.089.425.067.531-.036.645-.598 1.44-.434 2.187-.466.96-.04 1.93.033 2.884-.043 1.02-.077 2.08.193 3.058-.505.397-.28 1.128-.042 1.683-.15.882-.17 1.752.8 2.622.013.865-.015 1.731-.018 2.597-.058.752-.038 1.481.008 2.223-.394.535-.293 1.306-.236 1.963-.195 2.056.14 3.912-.497 5.676-1.436.433-.232.837-.464 1.333-.397.174.022.33.151.493.233-.047.085-.088.175-.141.253-.917 1.337-2.46 1.718-3.797 2.367-.475.232-1.034.43-1.564.602-.613.192-1.326-.081-1.925.38-.408.315-.916-.265-1.467.165-.367.291-1.104.12-1.683.126-2.114.04-4.233.064-6.347.105-.752.014-1.512-.121-2.2.424-.254.2-.72.157-1.096.167-1.248.032-2.513.147-3.745.011-.747-.081-1.323.828-2.087.25-.036-.024-.339.171-.344.267-.007 1.542.016 3.084.032 4.62.008.676.717 1.092.6 1.859-.095.641-.123 1.34.397 1.909.314.349.079.686-.108 1.035-.123.228-.262.66-.153.767.628.645.451 1.43.483 2.182.024.58.186 1.2.03 1.722-.2.678.73 1.08.23 1.833-.276.421-.191 1.102-.21 1.67-.017.574.025 1.153.055 1.733.06 1.045.573 1.56 1.588 1.573.866.014 1.732.005 2.598.013.848.009 1.742-.24 2.471.434.71-.707 1.608-.478 2.456-.493 4.138-.063 8.27-.12 12.408-.188.842-.016 1.734.214 2.473-.458.113-.103.364-.081.549-.083 2.502-.045 5.009-.168 7.5-.07.789.034 1.531.157 2.341-.013.614-.132 1.371-.284 1.943.188.603.496 1.085-.155 1.51-.094.532.078.979.539 1.541.031.13-.115.35-.207.518-.191 1.59.174 3.249-.549 4.793.331.698-.63 1.352-.314 2.031.061.114.065.388-.04.512-.143.397-.333.893-.272 1.334-.409.851-.266 1.565.635 2.384.184.725-.403 1.503-.184 2.255-.228.663-.037 1.259-.175 1.907-.391 1.149-.389 2.462-.439 3.632.014.563.215 1.089.269 1.652.335 1.686.197 3.434-.492 5.092.339.096.047.321-.117.463-.214.528-.352 1.155-.317 1.67-.168 1.073.306 2.105.761 3.137 1.192.12.052.206.297.226.464.045.358-.204.522-.508.525-2.018.046-4.047.194-6.055.06-.801-.051-1.519-.121-2.323.055-.709.151-1.538.268-2.189-.341a32.694 32.694 0 00-7.131.036c-.62.64-1.44.452-2.181.46-6.156.078-12.313.121-18.464.17-.567.006-1.139.108-1.657-.305-.097-.082-.452.208-.696.247-.37.052-.764.116-1.117.03-1.94-.481-1.934-.481-4.079.008-.458.107-.942.112-1.42.117-2.018.04-4.043.044-6.061.096-.746.02-1.506-.109-2.229.365-.249.164-.966-.384-1.221-.22-.652.419-1.135.484-1.797.025-.38-.265-.922-.193-1.337.134-.68.534-1.534.555-2.154.185-.835-.505-1.669-.263-2.5-.385-.61-.089-1.082.43-1.566.411-.4-.013-.829-.373-1.33-.362-.484.011-.92.064-1.352.35-.29.188-.79.337-1.067.214-.708-.321-1.346-.816-2.03-.002-.669.026-1.356-.015-2.006.106-.328.063-.79.379-.858.667-.23.917-.923 1.433-1.489 2.066-.13.145-.349.321-.33.458.131 1.015-.719 1.389-1.22 1.998-.236.29-.47.639-.539.992-.147.737-.72 1.288-.687 2.148.024.598-.922.907-1.093 1.62-.086.359-.489.681-.48 1.009.044 1.213-.513 2.182-1.04 3.192-.48.92-.87 1.863-1.499 2.712-.612.82-1.181 1.783-1.391 2.759-.506 2.379-1.973 4.248-3.031 6.328-1.116.676-.826 2.083-1.539 2.97-.168 1.556-1.033 2.791-1.837 4.067-.599.951-1.035 1.996-1.568 2.988-.662 1.244-1.209 2.53-2.02 3.716-.612.897-1.264 1.909-1.37 3.058-.07.784-.765 1.078-1.022 1.679-.25.594-.087 1.316-.685 1.818-.9.745-.513 2.26-1.658 2.882-.234 1.054-1.225 1.663-1.56 2.677-.127.378-.19.725-.18 1.108-.37.004-.956-.097-.993.298-.097 1.017-.68 1.717-1.252 2.446.262 1.049-.575 1.519-1.111 2.158-.236.284-.537.604-.575.933-.153 1.359-1.014 2.384-1.562 3.544-.181.379-.16.719-.162 1.09-.814.331-1.381.929-1.713 1.728-.436 1.051-.97 2.019-1.839 2.782-.668.587-.493 1.374-.371 2.114.044.269.212.303.383.133.591-.586 1.393-1.043 1.28-2.064.639-1.125.911-2.449 1.844-3.403.372-.381.445-.812.392-1.302.167-.062.405-.076.494-.197.6-.825 1.17-1.668 1.752-2.505.015-1.411.918-2.372 1.629-3.467.746-1.15 1.215-2.482 1.787-3.738.088-.168.02-.383.018-.574zm88.023 64.409c.711.034 1.079-.179 1.237-.522.443-.973 1.103-1.769 1.848-2.513a.793.793 0 00.203-.51c-.007-.646.155-1.132.895-1.217.523-1.273 1.854-1.975 2.42-3.141.625-1.286 1.613-2.176 2.644-2.964.781-.6 1.56-.961 1.571-2.127.003-.335.59-.688.951-.991.284-.236.82-.35.901-.619.409-1.386 2.17-1.973 2.081-3.622.355-.285.71-.563 1.066-.848-.271-1.241 1.05-1.745 1.283-2.776.097-.437.851-.278 1.03-.866.433-1.409 1.413-2.454 2.459-3.446.485-.454.874-.942 1.129-1.608a3.3 3.3 0 011.374-1.665c1.032-.657 1.924-1.599 2.286-2.865.167-.581.539-.98.904-1.426.661-.802 1.188-1.729 1.903-2.472.732-.767 1.296-1.622 1.848-2.507.704-1.125 1.451-2.227 2.444-3.147.627-.58.531-1.189-.227-1.611-.654-.364-1.362-.631-2.023-.989-.751-.404-1.11-1.584-2.023-1.478-1.097.125-1.007-.964-1.691-1.243-1.812-.746-2.973-2.604-5.008-3.001-.214-.541-.535-.896-1.135-1.123-.599-.227-1.012-.796-1.648-1.088-.648-.304-1.293-.847-1.517-1.651-.086-.298-.286-.523-.608-.484-.781.086-1.318-.344-1.688-.902-.443-.677-1.393-.655-1.735-1.363-.311-.648-.84-.929-1.423-1.287-.583-.365-1.581-.348-1.669-1.351-1.29-.524-2.126-1.609-3.056-2.549-.948-.959-2.19-1.543-3.096-2.484-1.148-1.183-2.472-2.107-3.813-2.989-.638-.418-1.246-.847-1.806-1.355-.929-.845-.935-.839-1.493.614-.064.168-.168.438-.282.457-.781.116-.835.643-.822 1.264.01.371.099.86-.293 1.038-.458.208-.94.368-.838.959.166.997-.335 1.63-.997 2.241-.272.254-.674.629-.641.897.144 1.194-.771 2.155-.627 3.331.118.973.104 1.912-.802 2.603-.183.14-.275.511-.266.768.019.699-.333 1.271-.499 1.895-.304 1.157-.5 2.39-.87 3.506-.445 1.356-.246 2.639-.268 3.96-.01.676.183 1.451-.085 2.004-.444.913-.309 1.868-.532 2.768-.229.917-.572 1.787-.495 2.761.02.257-.162.528-.248.798-.422 1.313-.451 1.977-.271 3.649.059.561.107 1.129-.299 1.647-.383.489-.394 1.087-.025 1.591.309.421.38.856.385 1.347.014 1.255.033 2.504.065 3.759.018.592-.03 1.13-.443 1.613-.182.211-.137.509.045.788.261.392.374.923.706 1.218.717.638.983 1.4.879 2.31-.12 1.042.175 1.851 1.036 2.488.373.271.741.619.724 1.176-.031 1.064-.055 2.11.968 2.835.175.123.203.511.229.786.04.382-.003.771.019 1.154.022.394.127.692.606.824.833.236 1.257.823 1.165 1.727-.048.497.046.932.439 1.304.271.261.502.575.708.889.407.624 1.071 1.25 1.12 1.913.076 1.022.988 1.376 1.26 2.192.426 1.287 1.698 1.333 2.431 1.726zm83.421-24.087c.089-.019.239-.015.256-.063.267-.69.871-1.229.838-2.054-.033-.866-.001-1.727.008-2.594.837-1.007.448-2.193.489-3.317.019-.479-.143-1.122.105-1.4.831-.948.088-2.327.986-3.203-.014-1.249-.033-2.504-.029-3.754 0-.568-.042-1.141.359-1.648.318-.404.353-.972.081-1.346-.437-.599-.45-1.238-.457-1.908-.014-.771-.124-1.547-.031-2.307.12-1.017-.242-1.916-.71-2.694-.663-1.105-.722-2.138-.184-3.238.187-.379.225-.666.006-1.046-.182-.315-.354-.708-.334-1.055.08-1.406-.047-2.69-1.37-3.536-.156-.1-.314-.278-.351-.445-.126-.548-.048-1.141-.561-1.566-.367-.301-.516-.825-.788-1.133-.478-.539.036-1.029-.171-1.463a225.29 225.29 0 00-2.143-4.287c-.214-.416-.641-.746-.534-1.279.204-1.018-.447-1.591-1.075-2.2-.621-.597-1.207-1.237-1.805-1.852.038-1.465-1.182-2.103-1.997-2.979-.526-.562-1.046-1.107-1.287-1.851-.142-.447-.124-1.003-.39-1.335-.339-.415-.939-.612-1.355-.978-.645-.573-1.427-1.108-1.799-1.845-.385-.767-1.062-.999-1.611-1.465-.934-.797-2.116-1.269-2.944-2.222-.194-.225-.528-.192-.771.008-.296.249-.657.474-.821.798-.795 1.569-2.109 2.689-3.272 3.939a3.937 3.937 0 00-.635.928c-.456.937-.942 1.827-1.68 2.606-.773.816-1.269 1.915-2.091 2.665-2.413 2.209-4.03 5.036-6.1 7.509-.595.712-1.243 1.52-1.443 2.389-.194.821-.594 1.363-1.108 1.925a31.966 31.966 0 00-2.328 2.865c-.765 1.06-1.71 2.015-2.36 3.164-.569 1.004-1.492 1.756-2.013 2.718a30.879 30.879 0 01-2.45 3.78c-.459.615-.993 1.458-.094 2.303.199.189.062.741.078 1.123.022.436.223.781.682.71.751-.116 1.212.489 1.853.661.707.19 1.312.919 2.005.983 1.196.112 2.041.988 3.142 1.173 1.251.214 2.221.993 3.348 1.447.606.244 1.166.686 1.789.787.61.101 1.066.317 1.5.719 1.255 1.158 2.78 1.913 4.247 2.758 1.31.757 2.936.877 4.104 1.749 1.228.913 2.818 1.039 3.917 2.145.308.308.824.535 1.266.566a4 4 0 012.521 1.145c.815.786 2 .522 2.814 1.201.138.118.378.211.41.348.239 1.127 1.283 1.002 2.02 1.257.485.162.886.23 1.018.796.031.143.279.362.398.343.9-.124 1.432.427 1.946 1.013.919 1.048 2.249 1.446 3.459 1.815 1.133.341 2.099.779 2.961 1.547.103.112.312.128.486.18zm-30.458 35.253c.647.172.659.19.907-.028.87-.768 1.789-1.382 3.026-1.342 1.033.031 1.472-.847 1.936-1.515.294-.428-.319-.822-.515-1.238-.605-1.273-1.109-2.606-1.857-3.794-.498-.795-1.085-1.554-1.56-2.368-.475-.808-1.093-1.644-1.21-2.522-.124-.967-.67-1.732-.853-2.669-.171-.858-.771-1.671-1.109-2.558-.362-.947-.499-1.985-1.064-2.888-.541-.855-.732-1.923-1.231-2.814-.871-1.563-1.219-3.346-2.161-4.879a1.464 1.464 0 01-.2-.804c.06-1.089-.559-1.973-.874-2.938-.346-1.06-1.276-1.989-1.419-3.045-.162-1.212-1.666-1.716-1.322-3.047-1.27-.907-1.133-2.552-1.934-3.703-.224-.326-.395-.641-.364-1.054.046-.712-.24-1.259-.718-1.798-.429-.485-.872-1.09-.986-1.699-.133-.686-.431-1.185-.771-1.767-.992-1.681-2.293-3.257-2.322-5.373-.002-.155-.19-.452-.274-.445-.256.021-.697.115-.726.253-.232 1.126-1.338 1.592-1.823 2.536-1.387 2.693-2.929 5.299-5.17 7.397-.142.133-.343.267-.371.429-.221 1.126-1.38 1.605-1.764 2.548-.384.954-1.407 1.39-1.696 2.266-.37 1.104-1.344 1.598-1.956 2.436-.165.223-.413.495-.392.728.081.907-.541 1.386-1.06 1.936-.927.978-1.981 1.863-2.757 2.947-1.26 1.747-1.983 3.853-3.549 5.419-.053.054-.022.191-.057.281-.429 1.195-1.267 2.1-2.129 2.994-.986 1.027-2.189 1.877-2.742 3.264-.937-.014-.778.971-1.251 1.401-.55.496-1.256.94-1.318 1.813a16.047 16.047 0 00-3.276 4.615.995.995 0 01-.396.417c-.754.408-.84 1.24-1.216 1.884-.305.523-.171.719.46 1.035.6.299 1.211.471 1.864.62.622.142.994.808 1.63 1.106.75.35 1.25 1.248 2.006 1.574 2.046.893 3.965 2.193 6.302 2.305.406.02.771.117 1.014.438.539.705 1.273.703 2.068.718.926.02 1.919-.313 2.758.449.163.153.544.077.825.086.382.014.77.004 1.153.012.663.005.468.796.876.983.763.35 1.566.598 2.357.865.767.26 1.331.541 2.103.067.67-.42 1.435-.345 2.173-.036.342.146.733.363 1.061.311 1.454-.231 2.715.898 4.174.541.143-.037.336.14.51.198 1.342.44 3.445.518 4.706.003.945-.387 1.835-.385 2.758-.066.246.087.397.253.73.076.487-.263 1.108-.281 1.57-.567.908-.572 2.107-.113 2.947-.905.159-.151.566-.09.847-.051.838.116 1.486-.148 2.034-.787.425-.513 1.004-.472 1.598-.251zM55.389 195.133c-.15.002-.287-.039-.334.01-.875.864-1.996.452-3.01.582-.393.052-.763.08-.818.577-.043.383-.057.772.245 1.079.404.414.815.816 1.225 1.224.544.545 1.248 1.003 1.595 1.651.433.796 1.177 1.141 1.762 1.709.393.384.584.974.965 1.376.308.325 1.032.455 1.107.777.17.763.856.69 1.242 1.057.205.201.573.478.532.639-.28 1.145.869 1.312 1.294 1.953.789 1.175 1.643 2.314 2.498 3.446.69.913 1.422 1.766 2.196 2.607.193.207.477.449.491.688.08 1.344.847 2.107 1.877 2.897.777.595 1.141 1.715 1.967 2.394.138.112.212.308.297.475.738 1.408 2.087 2.422 2.588 3.995.08.244.393.414.58.633 1.047 1.226 2.26 2.355 3.08 3.715.554.926 1.462 1.538 1.896 2.46.447.946 1.135 1.62 1.74 2.408.71.925 1.553 1.681 2.327 2.51 1.033 1.112 2.232 2.08 2.946 3.471.043.077.15.118.217.183.181.177.402.139.399-.124-.015-.801.93-.668 1.098-1.142.209-.576.563-.992.946-1.415.39-.428.816-.816 1.205-1.244.455-.489 1.005-.938 1.31-1.515a16.738 16.738 0 013.22-4.273c.331-.321.732-.755.758-1.162.04-.76.465-1.201.865-1.743.382-.518.835-1.169.829-1.755-.018-1.07.453-1.768 1.065-2.534.39-.482.034-1.333.686-1.795.521-.37.628-.933.586-1.537-.09-1.206.262-2.244 1.125-3.108.78-.78 1.05-1.745 1.116-2.834.036-.538.413-1.045.502-1.59.096-.563-.187-1.301.089-1.698.676-.988.462-2.02.439-3.048-.015-.819.115-1.514.784-2.047.314-.248.519-.657.24-1.001-.393-.492-.334-1.066-.483-1.597-.186-.655.878-1.073.153-1.819-.507-.52.209-1.108.456-1.511.563-.897.556-1.542-.281-2.191-.331-.253-.383-.635-.375-1.036.007-.478.001-.963-.052-1.44-.013-.108-.319-.29-.325-.278-.597.629-1.187.181-1.774.002-.74.641-1.638.412-2.48.433-2.209.048-4.419.048-6.628.084-.573.006-1.243-.112-1.694.138-1.212.671-2.322.659-3.524.032-.294-.152-.753-.099-1.105-.006-2.257.587-2.257.604-4.06.044-.474-.144-.922-.163-1.36.122-.232.152-.505.323-.761.332-2.305.054-4.616.073-6.921.098-.364.004-.512-.436-.983-.342-2.402.463-2.408.433-4.39-.036a3.663 3.663 0 00-.837-.11c-1.248.007-2.502.033-3.75.07-1.32.039-2.629-.061-3.912.527-.541.245-1.308.038-1.965-.038-.282-.063-.511-.306-.716-.429zM9.874 215.952c-.01 1.811-.034 1.835.98 2.852.502.503.901.983.778 1.743-.078.515.141.92.515 1.274.35.331.563.699.682 1.206.245 1.056.562 1.148 1.253.435 1.193-1.238 2.852-1.926 3.876-3.354a.597.597 0 01.225-.176c1.735-.76 2.74-2.349 3.98-3.641.501-.52.799-1.193 1.53-1.535.677-.325 1.105-1.005 1.746-1.454 1.464-1.032 3.042-1.976 4.149-3.429.565-.741.83-1.724 1.896-1.963.353-1.044 1.224-1.681 1.914-2.46.437-.489.885-.96 1.243-1.556.358-.595 1.191-.891 1.675-1.434.814-.918 1.9-1.587 2.364-2.842.186-.498.694-.976 1.175-1.238 1.989-1.098 3.218-2.874 4.488-4.664.659-.927.668-1.723.133-2.631-.286-.487-.489-.993-.87-1.45-.66-.782-1.29-1.636-1.682-2.57-.227-.535-.226-1.002-.92-1.215-.468-.145-1.908-2.389-2.046-2.955-.093-.37-.038-.783-.517-.903-1.24-.31-1.497-1.467-1.758-2.39-.354-1.246-.92-2.25-1.85-3.107-.27-.248-.59-.519-.559-.962.057-.778-.503-1.196-.95-1.693-.502-.563-1.27-.907-1.434-1.748-1.578-1.765-2.439-4.015-3.94-5.834-.543-1.638-1.87-2.819-2.52-4.396-.208-.506-.352-.505-.73-.1-.26.284-.573.532-.778.851a61.568 61.568 0 00-1.743 2.895c-.275.493-.479.997-.856 1.449-1.32 1.593-2.442 3.333-3.402 5.166-.485.932-.96 1.87-1.818 2.525-.758.582-1.084 1.327-.907 2.258.216 1.169-.235 2.017-1.105 2.773-.74.636-1.267 1.515-1.113 2.511.16 1.027-.644 1.789-.568 2.726.09 1.153-.624 1.938-1.038 2.881-.326.745-.897 1.48-.642 2.416.043.155-.02.431-.138.522-.793.642-.92 1.594-1.227 2.476-.15.444-.385.865-.65 1.256-.376.56.469.766.319 1.252-.081.264 0 .622-.147.815-.395.506-.383 1.05-.37 1.63.024 1.153.03 2.313.02 3.467-.008.466-.027.921-.183 1.401-.572 1.787-.522 1.936.23 3.476.121.256.214.53.378.755.278.38.15.692-.043 1.047-.129.235-.321.649-.224.768.678.841.42 1.83.531 2.756.046.364.128.74.269 1.073.183.434.456.826.658 1.248.275.577-.533.956-.294 1.552.068.178.017.394.015.245zm51.373 37.492c.286-.021.867.104 1.217-.126.61-.396 1.22-.474 1.894-.493.65-.025 1.34.188 1.938-.29.598-.479 1.545-.149 2.05-.865.651-.031.974-.573 1.394-.936.532-.46 1.392.015 1.82-.677 1.038-.071 1.439-1.146 2.385-1.467 1.053-.358 1.97-1.109 2.987-1.599.933-.446 1.683-1.13 2.507-1.719.162-1.041 1.092-1.231 1.816-1.627.909-.494 1.847-.935 2.756-1.423.326-.177.61-.431.913-.644.225-.157.23-.307.018-.46-.758-.56-1.564-1.065-2.263-1.685-1.074-.963-2.077-2.004-3.097-3.021-.272-.272-.55-.55-.75-.865-.437-.677-.458-1.531-1.354-2.03-.673-.375-1.142-1.237-1.526-1.968-.244-.464-.439-.796-.971-.88-.12-.023-2.005-2.591-2.078-2.728-.128-.243-.233-.517-.402-.725-.775-.924-2.03-1.52-1.997-2.997.004-.101-.278-.224-.434-.318-.24-.147-.581-.215-.721-.422-.577-.867-1.083-1.782-1.932-2.43a.707.707 0 01-.181-.22c-.232-.41-.516-.801-.665-1.242-.37-1.108-1.398-1.772-1.822-2.838-1.109-.364-1.382-1.371-1.864-2.275-.488-.903-1.171-1.715-1.825-2.515-1.555-1.89-2.797-4.023-4.53-5.767-.032-.795-.878-.594-1.229-1.009-.369-.439-.797-.834-1.214-1.236-.742-.734-1.408-1.498-1.99-2.388-.711-1.086-1.316-2.335-2.465-3.106a1.096 1.096 0 01-.211-.195c-.23-.266-.534-.209-.777-.099-.131.061-.248.302-.258.469-.029.67-.021 1.346-.014 2.021.001.675.02 1.345.016 2.02-.005.67-.027 1.34-.038 2.009-.782.619.186 1.158.085 1.757-.118.737.207 1.51-.329 2.221-.218.284.438.701.008 1.208-.254.296-.206.917-.159 1.371.04.352.492.741.411.993-.144.438-.421.806-.41 1.326.051 1.924.054 3.849.063 5.774.004.867.145 1.774-.067 2.583-.138.516-.349.943-.098 1.46-.467.471-.341 1.062-.34 1.63 0 .573-.054 1.16.405 1.621.036.036.002.174-.04.234-.676.964-.311 2.054-.324 3.082-.04 2.404.022 4.812.03 7.215.005.956.231 2.012-.1 2.841-.35.864.724 1.839-.337 2.52-.042.03-.01.185-.01.281.002.676-.02 1.351.023 2.02.03.562-.238 1.234.197 1.666.664.65-.189 1.299.043 1.751.58 1.124.245 2.239.263 3.357-.775.696.227 1.145.264 1.743.021.298.487.269.736.171.316-.129.498-.394.966-.166.99.48 2.023.433 2.984-.206.255-.17.507-.095.794-.008 1.911.571 1.923.577 3.798-.029.667-.217 1.364-.326 1.923.015.637.375 1.276.297 2.118.335zm-14.564-48.311h.03c-.018-1.638-.042-3.276-.054-4.914-.005-.526-.205-.781-.722-1.038-.66-.328-1.18-.956-1.747-1.464-.254-.23-.612-.256-.778-.075-.43.483-1.31.361-1.474 1.218-.107.557-.963.423-1.14 1.136-.155.599-.747 1.078-1.063 1.655-.287.523-.63.904-1.188 1.161-1.04.477-1.564 1.679-2.713 2.026-.148 1.251-1.673 1.578-1.863 2.794-1.443 1.809-3.116 3.399-4.795 4.978-1.185.347-1.667 1.608-2.647 2.121-1.146.604-1.918 1.545-2.805 2.392-1.3 1.251-2.425 2.656-4.034 3.618-1.281.767-2.356 1.903-3.474 2.925-.396.363-.617.915-.983 1.32-.932 1.002-.892 1.379.068 2.402.532.568 1.208 1.201.531 2.135-.07.096.022.394.131.512.26.273.538.604.868.708.845.26 1.316.745 1.284 1.648-.013.449.288.691.554.963.525.544 1.044 1.052 1.38 1.79.35.755 1.196 1.183 1.623 1.973.365.684.48 1.412.757 2.09.343.845 1.442.839 2.017 1.509a18.863 18.863 0 002.052 2.028c.519.443.127 1.212.566 1.536.416.312 1.026.378 1.547.563.084.029.127.142.206.195.571.383.203 1.116.554 1.554.442.546 1.356.022 1.775.711.292.481.584.962.911 1.412.243.333.61.52.995.271.332-.207.569-.407.972-.089.362.283.865.397 1.214.687.983.82 2.04 1.364 3.364 1.224.382-.04.764.004 1.072.294.82.768 1.617 1.548 2.894.895.149-.073.504.186.727.339.318.212.58.603.909.665.538.108 1.341.345 1.61-.161.346-.649 1.246-1.298.441-2.288-.254-.314-.248-.912-.212-1.373.16-1.884-.5-3.826.37-5.659-1.02-.981-.052-1.918.046-2.882.06-.556.1-1.154-.365-1.628-.229-.23-.25-.601-.05-.776.497-.442-.135-.913.041-1.196.364-.584.395-1.033-.047-1.548-.054-.065.068-.336.169-.468.494-.645-.245-1.026-.298-1.539-.073-.663.692-1.161.44-1.888a2.21 2.21 0 00-.245-.506c-.224-.332-.42-.682-.113-1.032.431-.495.347-1.074.347-1.642-.008-2.409-.023-4.818-.03-7.221-.002-.664-.044-1.291.343-1.935.334-.553.207-1.257-.015-1.925-.562-1.697-.523-1.901-.036-3.831.115-.456.163-.946.116-1.406-.04-.346-.474-.742-.393-1 .145-.444.415-.824.404-1.338-.029-1.542-.028-3.084-.044-4.626zm159.937 42.042c.089-.024.226-.02.25-.074.589-1.262 1.397-2.167 2.9-2.399.602-.09.982-.817 1.612-1.129.511-.251.801-1.007 1.124-1.573.515-.908.868-1.97 2.231-1.829.072.005.155-.103.238-.152 1.192-.772 1.617-2.307 2.924-2.979.237-.122.509-.388.566-.634.234-1.019 1.226-1.454 1.677-2.284.451-.824.89-1.665 1.215-2.541.18-.487.493-.807.818-1.151.59-.628 1.174-1.274 1.813-1.855.509-.466.82-.924.442-1.607.442-.603.456-1.541 1.277-1.831 1.076-.388 1.442-1.331 1.349-2.215-.159-1.498.436-2.772.809-4.115.121-.438.251-.613-.312-.756a4.997 4.997 0 01-1.525-.707c-.469-.324-.874-.75-1.261-1.176-.429-.479-.88.303-1.447-.181-.97-.821-1.919-1.839-3.359-1.895-.143-.004-.402-.211-.404-.33-.026-.807-.831-.679-1.206-1.051-.477-.473-.935-.923-1.717-.896-.311.009-.667-.322-.944-.558-.579-.49-1.092-1.028-1.842-1.313-.593-.221-.889-1.031-1.688-.956-.889.075-1.192-.866-1.924-1.127-.599-.215-1.067-.981-1.635-1.04-.849-.087-1.409-.451-2.017-.941-.259-.206-.707-.231-1.072-.245-.496-.019-.956-.068-1.283-.489-.37-.486-.956-.587-1.449-.857-.901-.498-1.909-.9-2.645-1.585-.814-.756-1.896-.834-2.714-1.399-1.781-1.231-3.621-2.317-5.595-3.192a43.035 43.035 0 01-3.771-1.914c-1.623-.927-3.555-1.199-5.031-2.432-.115-.094-.371-.014-.568-.018-.412-.013-.796.403-.649.719.367.761.686 1.552 1.141 2.259.674 1.039.867 2.292 1.487 3.308 1.904 3.129 1.951 3.099 3.248 7.09 1.096 1.303.968 3.295 2.485 4.373.198.141.393.492.372.725-.09 1.065.55 1.74 1.084 2.541.389.582.689 1.278.811 2.078.174 1.169.379 2.417 1.326 3.333.187.183.286.475.373.737.432 1.328.769 2.7 1.499 3.905.213.351.312.69.281 1.079-.042.611.232 1.074.536 1.585.621 1.045 1.141 2.157 1.666 3.258.281.588.712 1.205.701 1.809-.015.837.582 1.417.65 2.133.087.908.721 1.523.986 2.315.389 1.156 1.343 2.066 1.434 3.35.014.167.124.435.244.47 1.037.317 1.623.945 1.552 2.081 1.159 1.165 1.654 2.726 2.439 4.11.073.101.33.11.498.168zM46.26 189.344c.248-.272.711-.552.708-.821-.018-1.106.692-1.729 1.36-2.412.265-.278.507-.585.803-.834a3.969 3.969 0 001.29-2.16c.205-.964.638-1.758 1.047-2.606.45-.931.78-1.903 1.488-2.712.607-.694.632-1.686 1.233-2.488 1.236-1.645 2.183-3.509 3.395-5.19.377-.524.704-1.167.781-1.79.116-.898.694-1.544.99-2.33.453-1.206 1.632-2.128 1.389-3.602.334-.571.572-1.237 1.02-1.685.904-.9 1.322-2.052 1.926-3.123.82-1.462.961-3.298 2.418-4.414.172-.133.114-.539.224-.792.396-.948.72-1.956 1.26-2.823.546-.879.323-2.12 1.344-2.758a.202.202 0 00-.154-.369c-1.102.185-2.04-.373-3.01-.661-.918-.271-1.781-.609-2.754-.508-.978.106-1.921.116-2.57-.833-.243-.356-.467-.001-.705.085-.79.272-1.582.567-2.392.755-.381.088-.77.104-1.01.442-.506.717-1.203.903-2.022.805-1.011-.127-1.869.098-2.576.918-.2.23-.702.283-1.06.269-.64-.023-1.109.215-1.51.674-.336.386-.759.516-1.279.51-.561-.006-1.154-.125-1.675.233-.854.589-1.939.769-2.707 1.524-.26.254-.633.581-.944.566-1.23-.04-2.185.556-3.152 1.17-1.308-.045-2.199 1.005-3.396 1.287-1.293.306-2.164 1.446-3.438 1.878-.684.235-1.003 1.129-1.929 1.115-1.129-.018-1.074 1.189-1.635 1.769-.195.2-.431.411-.687.486-.596.174-.937.65-1.35 1.043-.072.066-.112.162-.183.223-.201.169-.182.307.035.472 1.108.849 1.148 2.384 2.144 3.318.694.65.92 1.646 1.703 2.265.686.543.804 1.486 1.271 2.174.534.784 1.3 1.415 1.946 2.125.121.131.26.332.25.494-.078 1.035.781 1.468 1.314 2.114.357.438.947.868.994 1.34.08.884.576 1.375 1.113 1.919.266.266.645.561.685.877.143 1.081.671 1.924 1.29 2.778.606.83 1.04 1.782 1.6 2.649.607.944 1.143 1.978 1.928 2.753.803.798 1.422 1.64 1.886 2.657.19.411.653.693.997 1.03.09.052.174.099.307.194zm125.019-35.52c-.415.226-.257.499.069.824.266.26.687.609.667.89-.111 1.37.994 2.488.704 3.872-.176.845.178 1.474.823 2.011.186.16.291.487.318.75.047.478.017.962.016 1.441-.006.586.066 1.123.572 1.554.271.23.466.592.59.938.431 1.227.922 2.453 1.175 3.723.119.591.625.938.638 1.548.024 1.123-.161 2.303.62 3.293-.134 1.394.285 2.603 1.092 3.736.188.267.092.734.143 1.105.059.435.937 2.679 1.282 3.046.35.385.438.809.498 1.298.026.257.226.506.384.731.4.57 1.021.587 1.422.069.53-.676.772-1.491 1.164-2.237.837-1.587 1.938-3.01 3.058-4.415 1.083-.34 1.303-1.544 2.103-2.139.734-.552.82-1.491 1.44-2.072.704-.659 1.414-1.295 1.336-2.406-.008-.143.187-.336.329-.457 1.125-.915 1.966-2.108 2.58-3.364.397-.811 1.273-1.03 1.586-1.829.367-.924 1.245-1.436 1.864-2.16.437-.513 1.149-.915 1.322-1.491.294-.954 1.136-1.471 1.485-2.389.284-.751 1.054-1.369 1.723-1.896.788-.624.962-1.63 1.641-2.301.544-.538 1.297-1.049 1.505-1.714.282-.912 1.233-.827 1.608-1.5.187-.343.253-.912-.07-.98-1.114-.245-1.924-1.151-3.12-1.275-.813-.087-1.594-.551-2.204-1.184-.272-.284-.603-.532-1.003-.438-.833.201-1.495-.222-2.144-.586-.691-.381-1.362-.577-2.162-.521-1.038.071-2.113.089-3.022-.559-.746-.53-1.564-.557-2.436-.571-1.309-.022-2.661.28-3.911-.472-.283-.17-.886-.199-1.111-.012-.906.74-1.718.198-2.592.011-.545-.114-1.088-.078-1.658-.305-.402-.163-1.012.256-1.537.321-.567.072-1.152.019-1.725.049-.579.03-.907.631-1.558.627-.526-.001-1.035.411-1.578.501-.56.096-1.146.03-1.725.042l-3.744.077c-.382.01-.8.547-.565.747.663.573.439 1.424.787 2.096.513.993.888 2.053 1.353 3.07.129.292.155.536-.032.903zm-90.36 35.772c0-.012 0-.024.007-.036 1.147.041 2.31-.037 3.423.172.485.09.778.117 1.236-.073.505-.209 1.067-.215 1.601-.496.665-.354 1.453-.357 2.163.132.199.141.642.244.766.129.734-.671 1.613-.514 2.461-.529 1.248-.019 2.503.015 3.75-.011.848-.015 1.728.131 2.473-.517.124-.108.544.018.772.142.343.187.655.399 1.029.126.284-.206.349-.847.057-1.316-.492-.802-.896-1.67-1.667-2.289-.494-.395-.678-.878-.201-1.481.389-.494.358-1.08-.017-1.59-.394-.533-.468-1.256-1.07-1.662-.878-.594-1.18-1.446-1.054-2.481.033-.282 0-.58-.015-.867-.022-.406-.186-.632-.612-.824-1.11-.502-1.877-1.295-1.755-2.665.021-.252-.12-.573-.295-.768-.447-.503-.763-.996-.914-1.712-.151-.71-.672-1.332-.573-2.152.027-.239-.114-.596-.3-.744-.652-.525-1.028-1.118-.888-1.987.067-.407-.122-.74-.418-1.012-.56-.525-1.029-1.304-1.688-1.512-.827-.266-1.174.814-1.784 1.221-.309.207-.654.36-.98.549-1.715 1.011-3.382 2.081-4.733 3.578-.507.562-1.009 1.129-1.917 1.103-.299-.009-.647.372-.919.626a58.72 58.72 0 00-1.837 1.837c-1.837 1.927-3.57 3.972-6.042 5.159-.166.079-.296.242-.432.381-.874.87-1.912 1.563-2.823 2.362-1.023.902-2.278 1.37-3.273 2.2-.669.557-1.556.74-2.086 1.433-.601.79-1.48 1.242-2.312 1.615-.969.441-1.537 1.422-2.585 1.696-.155.038-.35.255-.378.417-.135.778-.832.947-1.354 1.306-.622.431-.948 1.223-1.746 1.447-.149.044-.266.2-.396.309.162.082.324.236.486.24 1.636-.006 3.272-.029 4.902-.059.377-.01.873.08 1.11-.12.775-.636 1.644-.406 2.485-.445.675-.031 1.35-.044 2.019-.034.561.012 1.098-.03 1.669.257.57.293 1.117-.514 1.818-.318.533.143 1.14-.108 1.652.322.18.148.641.233.76.118.656-.605 1.428-.446 2.186-.466.58-.013 1.175-.145 1.726-.037.604.119 1.007-.687 1.537-.304.65.477 1.027.007 1.539-.22.332-.147.75-.109 1.133-.12.764-.026 1.535-.022 2.305-.03zm80.734-39.003c-.437-.067-.77.014-1.133.209-1.235.665-2.458 1.324-3.839 1.722-1.333.385-1.705.849-3.002 2.334-.319.362-.662.7-1.004 1.039-.751.749-1.385 1.737-2.288 2.171-1.153.55-1.02 1.744-1.711 2.457-.455.472-.819 1.043-1.54 1.242-.452.125-.818.535-.932 1.021-.286 1.193-1.223 1.789-2.069 2.527-1.716 1.501-2.218 2.033.157 4.039.657.555 1.495.761 2.112 1.424.816.876 1.521 2.016 2.984 1.994.221-.002.451.33.668.519.651.555 1.221 1.338 1.971 1.611.995.36 1.035 1.316 1.638 1.877.205.189.47.306.704.465.939.623 1.948 1.168 2.792 1.906.862.75 1.765 1.416 2.68 2.093.982.725 1.775 1.703 2.921 2.246.504.24.95.6 1.425.906-.015.789.737.745 1.153 1.075.451.36.838.792 1.267 1.182.283.26.538.646.868.744 1.635.466 2.717 1.674 3.935 2.719.482.413 1.165.609 1.636 1.1.381.396.942.408 1.34.207.582-.294.16-.737.035-1.19-.317-1.175-.438-2.399-1.201-3.413-.509-.682-.208-1.492-.299-2.238-.099-.8-1.152-1.016-1.132-1.913.013-.46.001-1.022-.242-1.372-.479-.706-.239-1.683-1.058-2.284-.921-.672-.336-1.808-.584-2.708a.542.542 0 00-.158-.237c-.766-.685-1.134-1.524-1.002-2.56-.607-.968-.96-2.07-1.109-3.15-.155-1.122-1.008-2.082-.716-3.286-.801-.643-.257-1.695-.707-2.402-.863-1.365-1.006-3.038-1.952-4.349-.146-.201-.171-.285.006-.484.378-.416.391-.871-.055-1.243-.645-.537-.915-1.191-.84-2.029.032-.371.068-.862-.131-1.105-.569-.675-.191-1.594-.543-2.152-.462-.724-.47-1.423-.55-2.176a.541.541 0 00-.495-.538zM49.815 191.081c.09-.001.203.033.28-.009.713-.397 1.547-.603 1.853-1.557.133-.42.583-.759 1.133-.736.555.024.917-.195.989-.781 1.77-1.401 3.456-2.913 5.257-4.26 1.12-.837 2.354-1.55 3.461-2.429 1.135 0 1.775-1.011 2.72-1.338.667-.229.487-.92 1.063-1.231 1.145-.622 2.17-1.482 3.2-2.295 1.19-.939 2.27-2.027 3.522-2.865.57-.377 1.026-.693 1.383-1.307.833-1.414 2.04-2.497 3.507-3.254.736-.378 1.725-.563 2.112-1.26.504-.914 1.469-1.116 2.088-1.828 1.121-1.28 2.253-2.613 4.016-3.092.083-.025.16-.104.231-.17 1.317-1.33 1.64-1.345.222-2.681-.423-.396-.94-.767-1.166-1.261-.33-.725-.74-1.528-1.393-1.736-.977-.318-1.065-1.274-1.71-1.763-.21-.165-.504-.323-.755-.309-.788.033-1.282-.386-1.564-1.029-.453-1.035-1.088-1.781-2.283-1.852-.443-.025-.703-.309-.944-.588-.738-.852-1.902-1.336-2.196-2.582-.05-.203-.241-.177-.418.028-.189.217-.462.4-.56.652-.546 1.417-1.147 2.792-2.155 3.957-.112.127-.128.348-.15.533-.131 1.084-.756 1.892-1.392 2.735-.67.893-.963 2.008-1.706 2.918-1.243 1.526-2.294 3.199-3.249 4.937-1.265 2.31-2.35 4.737-4.137 6.729-.242.265-.315.679-.503 1.003-.756 1.3-1.513 2.587-2.48 3.764-1.255 1.532-1.77 3.522-2.978 5.107a2.841 2.841 0 00-.535 1.291c-.15 1.09-.726 1.915-1.398 2.741-1.373 1.677-2.656 3.419-3.542 5.425-.088.18-.075.294.177.393zm58.639-2.95v.012c.483-.005.968.026 1.439-.027.262-.033.535-.168.761-.319.32-.213.98-2.175.809-2.514-.507-.999-.502-2.23-1.365-3.064-.423-.408-.613-.89-.769-1.48-.305-1.168-1.134-2.152-1.315-3.387-1.275-1.433-1.916-3.225-2.77-4.902-.47-.921-.934-1.855-1.493-2.722-.358-.558-1.061-.933-1.294-1.516-.24-.595-.378-1.233-.713-1.822-.7-1.217-1.162-2.552-1.672-3.855-.166-.435-.178-.937-.379-1.347-.666-1.35-1.516-2.626-2.056-4.019-.541-1.405-1.883-2.383-2.02-3.971-.858-.912-1.442-1.916-1.677-3.216-.16-.883-.689-1.792-1.287-2.491-.763-.888-1.044-2.081-1.787-2.862-.858-.899-.835-2.089-1.496-3.009-.382-.528-.503-1.256-.92-1.735-.49-.563-.128-1.308-.642-1.858-1.045-1.119-1.687-2.469-2.067-3.959-.138-.537-.454-1.03-.692-1.535-.08-.167-.713-.243-.747-.088-.188.899-1.258 1.317-1.339 2.137-.086.88-.54 1.393-1.066 1.948-.324.345-.505.813-.77 1.157-.818 1.061-1.156 2.433-2.041 3.369-1.016 1.075-1.54 2.372-2.243 3.594-.305.529-.195.737.418 1.047 1.003.509 2.07.94 2.973 1.6.988.724 1.745 1.762 2.939 2.222 1.492 1.615 3.54 2.586 4.98 4.268.247.29.513.604.844.78.582.316 1.189.585 1.63 1.112.37.438.959.802 1.095 1.297.236.835 1.171.609 1.465 1.228.116.25.292.499.325.761.046.388.074.783.399 1.036.71.554.87 1.455 1.373 2.143.157.214.25.56.455.647 1.572.659 1.944 1.982 1.937 3.482-.005.634.19 1.098.655 1.511a5.106 5.106 0 011.692 2.881c.056.269.126.597.313.768.874.798 1.149 1.942 1.739 2.899.14.225.324.654.229.762-.513.598-.246.977.219 1.403.199.183.447.485.419.707-.163 1.454.875 2.471 1.295 3.704.148.429.569.753.515 1.291-.124 1.203.448 2.184.973 3.206.335.654.891 1.234.852 2.065-.025.467.264.673.712.674l1.165-.013zm56.469-47.742l.047-.001c-.005-.478.055-.975-.027-1.44-.261-1.486-.778-2.885-1.604-4.149-.297-.452-.794-.506-1.283-.423-.518.083-1.175.676-1.146 1.124.086 1.303-.425 2.701.568 3.874-.024 1.148.996 2.081.656 3.299-.184.659.56.98.585 1.56.024.579.012 1.153.054 1.733.014.173.136.351.239.499.806 1.145 1.071 2.445.931 3.798-.158 1.448 1.243 2.336 1.187 3.717-.005.096.014.192.003.287-.058.694.288 1.247.54 1.866.558 1.374 1.367 2.711 1.24 4.278-.052.652.358 1.066.609 1.566.384.773.685 1.547.653 2.438-.014.359.033.872.262 1.055.88.696.944 1.616.9 2.585-.034.694.08 1.308.522 1.883.279.362.607.836.593 1.249-.025.993.676 1.726.723 2.736.04.956.784 1.863 1.093 2.834.452 1.418 1.237 2.736 1.265 4.278.002.174.088.4.215.506 1.018.844.92 2.256 1.629 3.222.534.73.442 1.622.934 2.364.321.486.241 1.3.17 1.952-.086.85.564 1.381.746 2.109.087.339.48.269.736.171.345-.129.647-.384.992-.495.988-.31.97-.286.71-1.179-.211-.715-.208-1.54-.567-2.158-.578-.992-.877-2.071-1.276-3.119-.535-1.387-.95-2.817-1.414-4.229.263-1.097-.297-2.059-.647-3-.357-.97-.327-2.077-.844-2.92-.45-.742-.041-1.584-.477-2.171-.528-.699-.179-1.576-.538-2.158-.492-.808-.56-1.608-.552-2.463.006-.55-.29-.893-.646-1.212-.38-.349-.575-.747-.551-1.262.024-.484-.165-.901-.319-1.353-.42-1.233-.506-2.571-1.342-3.662-.145-.196-.132-.561-.099-.836.11-.904-.304-1.653-.659-2.426-.196-.428-.565-.878-.522-1.285.099-.844-.505-1.436-.578-2.152-.08-.776-.196-1.499-.627-2.151.227-1.103-.505-1.986-.701-3-.209-1.08-.793-2.089-1.223-3.119-.324-.774-.757-1.516-.968-2.321-.188-.745-.136-1.535-.192-2.299zm-46.9 41.272c-.585.048-1.07-.054-1.319.14-.562.448-1.31.313-1.826.683-.344.243-.487.783-.709 1.191-.375.68.112 1.524-.437 2.193-.341.416.294.613.298.971.002.192.058.4.006.574-.11.348-.393.68-.389 1.015.003.34.425.7.387 1.018-.149 1.137.497 1.776 1.262 2.395.488.395.864.338 1.127-.168.445-.859.686-1.758.58-2.732-.06-.537.253-.893.632-1.208.071-.061.171-.151.237-.14.072.011.181.141.175.213-.11 1.352.828 2.508.711 3.866-.01.12.213.321.357.367.155.046.471.007.518-.095.66-1.341 1.711-2.452 2.222-3.88.347-.973.377-2.067-.069-3.001-.244-.505-.578-.98-.775-1.504-.565-1.512-1.881-1.671-2.988-1.898zm-6.34 9.633c-.055-.083-.097-.166-.158-.237-.696-.877-1.431-1.485-2.599-.647-.207.151-.77-.01-1.059-.192-.445-.282-.99-.468-1.346-.231-.961.639-2.001.518-3.04.571-.841.045-1.692-.155-2.461.505-.29.249-.918.13-1.34-.188-.319-.242-.679-.399-1.022-.067-.478.466-1.071.317-1.632.352-.758.051-1.547-.007-2.273.187-1.745.467-1.721.479-4.067.014-.725-.142-1.651-.239-2.233.084-.932.524-1.853.402-2.784.43-1.726.061-3.465-.04-5.183.081-1.779.12-3.63-.427-5.346.5-.13.073-.463-.306-.727-.375-.287-.074-.548.066-.629.39a.506.506 0 00.372.647c.27.075.574.06.86.057.77-.009 1.535-.023 2.305-.043.854-.022 1.8.255 2.536-.225.824-.535 1.325.5 2.104.21.435-.16.906-.219 1.285-.534.446.444 1.002.474 1.593.467.675-.007 1.338.033 1.882-.499.1-.096.429-.118.531-.029.591.508 1.136.597 1.756.029.19-.176.519-.114.784.093.59.46 1.23.53 1.834.034.467-.382.85-.249 1.272.064.428.306.93.282 1.357.057 1.354-.709 2.77-.562 4.154-.237.419.097.638-.031.972-.1 1.555-.328 3.145-.195 5.307.295.275.063.676.148.836.015.864-.739 2.069-.256 2.934-.905.178-.133.28-.104.484.037.993.695 1.678-.634 2.612-.423.018 0 .076-.126.129-.187zm4.732 34.37v-.018c-1.242.014-2.49.021-3.732.041-.83.015-.836.021-1.065.92-.046.18.005.43-.102.545-.702.779-.343 1.337.278 1.94.713.692 1.432.929 2.273.274.373-.291.703-.169 1.028.067.325.229.673.405 1.022.084.384-.351.832-.403 1.321-.397 1.147.006 2.3.017 3.446-.037.734-.032 1.628.323 2.164-.316.39-.459.106-1.305.65-1.807.047-.042.033-.197-.003-.275-.068-.16-.172-.446-.256-.445-1.511-.002-2.893-.818-4.444-.628-.847.111-1.714.043-2.58.052zM62.182 17.448c-.705.008-1.028-.079-1.272.032-.856.367-1.952.577-2.282 1.537-.452 1.326-.849 2.717-.594 4.16.044.263.19.543.366.744.381.432.833.798 1.226 1.224.453.497 1.038.443 1.605.401.25-.02.649-.156.7-.33.11-.336.16-.809-.005-1.088-.286-.487-.768-.852-1.143-1.29-1.046-1.22-.643-2.576.905-3.047.268-.081.584-.09.797-.248.73-.522 1.37-.457 2.097.037.391.265.806.01 1.195-.473.171-.212.194-.343-.028-.436-1.284-.555-2.592-1.048-3.567-1.223zm8.881-10.97c-.05-.167-.059-.448-.154-.483-.348-.116-.724-.13-1.084-.21-1.077-.239-2.184-.454-3.21-.807-.863-.296-1.669-.27-2.498-.236-.675.025-1.209.945-1.063 1.733.121.656.657.543 1.111.544a72.55 72.55 0 002.281-.013c.663-.02 1.326-.062 1.988-.1.678-.85 1.347.273 2.019.015.166-.068.339-.124.493-.209.066-.043.076-.156.117-.234zm15.918 10.689c.275-.02.759-.026 1.224-.103.113-.02.253-.278.264-.433.01-.156-.137-.465-.19-.459-1.068.126-2.022-.79-3.186-.21-.517.257-1.323.26-1.896-.272-.241-.225-.51-.156-.79-.07-1.725.545-3.465 1.509-5.11 2.842a.45.45 0 00-.16.235c-.01.053.074.142.134.183.073.053.187.118.252.093 1.577-.567 2.97-1.532 4.595-2.022.958-.292 1.9-.523 2.74-.108.66.322 1.27.303 2.123.324zM82.64 3.925c-.668.007-1.248-.004-1.82.038-.126.007-.231.205-.35.32.073.065.14.178.217.183.754.064 1.588-.077 2.242.203.648.28 1.247.429 1.915.386.866-.051 1.633.221 2.448.487.905.296 1.768.58 2.527 1.15.295.225.609.502.956.57.64.125 1.29-.032 1.915.404.662.459 1.494.05 2.248.149.077.011.188-.217.283-.332-.073-.059-.158-.178-.223-.17-.978.123-1.82-.46-2.724-.557-.8-.081-1.459-.17-2.033-.803-.363-.403-.721-1.009-1.372-.93-.817.099-1.328-.739-2.168-.574-.453.089-1.091.155-1.392-.087-.88-.684-1.838-.374-2.669-.437zm-1.62 18.472c-.75-.267-1.718.251-2.536.822-.735.51-1.718.186-2.331.928-.124.15-.542.108-.817.08-.622-.058-1.066.27-1.553.573-.196.122-.572.072-.545.383.007.09.504.24.742.19.9-.184 1.712-.779 2.693-.598.716-.665 1.853-.385 2.526-1.133a548.63 548.63 0 003.14-.094c.084 0 .197-.05.238-.116.088-.15.2-.325.192-.486-.014-.156-.142-.4-.255-.428-.36-.08-.742-.07-1.495-.121zm-27.238 170.9c.943-.01 1.893.004 2.836-.06.107-.008.228-.445.261-.697.011-.078-.338-.307-.409-.264-1.49.811-3.112.47-4.682.535-.382.016-.765.002-1.14.048-.173.02-.382.1-.482.226-.1.127-.175.415-.102.51.236.296-.157.378.158.213 1.152-.622 2.373-.354 3.56-.511zM70.878 21.365c1.028.084 1.213.029 1.81-.534.1-.09.122-.288.132-.438.006-.048-.138-.154-.222-.153-1.29-.046-2.609.124-3.84-.484-.047-.024-.296.212-.33.356-.034.156.029.46.125.495.857.307 1.732.573 2.325.758zm93.327 101.887c-.038-.209.183-.809-.363-.983-.839-.26-.728.624-1.004 1.015-.153.211-.21.487-.291.739-.023.066.02.185.075.244.278.332.665.244 1.03.246.328.002.487-.214.562-.478.034-.18-.004-.377-.009-.783zm-70.34-107.9v.019c.371-.004.748.021 1.117-.024.155-.02.363-.16.427-.304.18-.396.55-.986.405-1.194-.376-.54-.77.044-1.156.228-.576.27-1.165.509-1.742.772-.243.11-.272.254-.115.372.072.053.15.136.229.14.28.01.56-.005.836-.008zm-19.302-6.12c-.973-.462-1.868.731-3.01.618-.06-.005-.164.223-.21.355-.012.03.139.166.21.159.555-.03 1.238.112 1.64-.161.706-.474 1.424-.374 2.152-.46.09-.007.165-.217.211-.343.012-.03-.127-.154-.21-.165-.18-.028-.371-.008-.783-.004zM59.09 193.28c.86-.009 1.159.03 1.433-.027.28-.057.505-.245.447-.591a.617.617 0 00-.08-.25c-.11-.19-.259-.176-.442.017-.372.386-.869.29-1.328.337-.095.007-.177.217-.235.349-.012.018.133.148.217.159.185.028.376.02-.012.006zm12.701-.663a.48.48 0 000 .012c-.37.004-.74-.016-1.104.024-.108.013-.189.205-.283.314.072.053.15.159.222.159a66.006 66.006 0 002.18-.06c.071-.001.142-.109.213-.17-.133-.094-.254-.254-.398-.276-.275-.039-.555-.006-.83-.003zM97.887 7.807c-.89.01-1.177-.023-1.451.033-.125.026-.219.212-.331.32.072.066.133.149.21.184.253.11.558.15.757.315.452.377.632-.025.857-.26.094-.097.116-.289.126-.439.006-.047-.132-.142-.216-.153-.18-.022-.37-.014.048 0zM65.025 192.093c-.322.075-.748-.105-1.012.262a.718.718 0 00-.09.521c.05.245.212.273.396.175.326-.171.665-.312.998-.477.083-.042.142-.121.213-.187a8.792 8.792 0 01-.505-.294zM85.683 21.892c-.05-.155-.099-.316-.166-.465-.013-.023-.156-.022-.197.014-.201.176-.39.363-.574.55-.141.151-.092.324.154.364.359.055.717.028.783-.463zM66.856 192.916c.144.094.277.248.433.271a.674.674 0 00.464-.167c.16-.157-.13-.405-.452-.342-.155.032-.297.159-.445.238zM89.367 19.628c-.03.054-.088.12-.076.156.025.072.127.178.145.172.202-.092.237-.218.098-.318-.036-.023-.107-.005-.167-.01zm-14.236-.378c-.054-.023-.12-.082-.162-.07-.071.025-.124.097-.183.146.114.028.221.063.335.092a.793.793 0 00.01-.168zM58 193.012c-.054-.059-.11-.16-.163-.165-.06 0-.119.097-.178.151.085.059.169.118.259.171.023-.054.053-.103.082-.157zM92.126 8.617c-.023.048-.082.108-.064.15.025.065.097.118.145.177.03-.107.064-.215.093-.323a1.617 1.617 0 00-.174-.004z" fill="#284855"/><path d="M96.722 75.513c-.081-.363-.039-.854-.262-1.073-1.256-1.236-1.61-2.983-2.58-4.372-.107-1.618-.952-3.032-1.256-4.577a15.629 15.629 0 00-.99-3.205c-.288-.667-.265-1.289-.266-1.946 0-.072.106-.163.183-.218.035-.024.16-.001.18.034.127.25.244.5.354.762.362.857 1.163 1.56 1.007 2.59-.172 1.13 1.073 1.464 1.246 2.485.197 1.157.456 2.41 1.48 3.265.175.148.161.525.242.793.551 1.835 1.993 3.176 2.752 4.896.037.083.122.178.206.195.778.207 1.05 1.047 1.633 1.381.595.34 1.019.868 1.601 1.178.247.129.552.168.774.327.337.235.713.219 1.067.317.623.178 1.27.404 1.794.775.511.365.945-.41 1.488.11.411.396 1.078.227 1.569-.185.414-.345.917-.225 1.383-.212.711.022 1.319-.122 1.784-.7.324-.399.771-.505 1.272-.546.251-.021.548-.198.719-.39.542-.61.869-1.373 1.706-1.765.684-.318.992-1.11 1.319-1.808.116-.246.365-.44.578-.634 1.762-1.62 2.958-3.69 4.329-5.618a83.984 83.984 0 002.503-3.763c.346-.548.758-1.15.829-1.76.087-.743.405-1.243.883-1.726.744-.755 1.177-1.657 1.44-2.706.2-.803.736-1.514 1.032-2.3.122-.325.14-.839-.036-1.088-.527-.742-.635-1.876-1.802-2.055-.365-.642-.718-1.29-1.102-1.925-.243-.41-1.378-.493-1.511-.08-.312.973-1.07 1.56-1.72 2.25-.195.21-.449.399-.572.645-.538 1.106-1.074 2.29-2.01 3.023-.983.776-1.683 1.764-2.413 2.686-1.243 1.574-2.487 3.13-3.929 4.526-1.389 1.342-2.936 2.375-4.948 2.451-.836.6-1.563.125-2.237-.299-.288-.182-.634-.626-.595-.902.173-1.12-.821-1.934-.701-3.011-.934-1.281-1.147-2.743-1.241-4.29-.045-.807-.614-1.554-.553-2.458.052-.76-.117-1.463-.489-2.188-.281-.541-.128-1.32-.135-1.995-.007-.67.075-1.352-.48-1.884.858-.72.093-1.334-.088-2.026-.162-.638-.068-1.332-.159-1.995-.039-.256-.322-.474-.42-.736-.056-.15-.005-.449.102-.516.296-.188.538.09.624.298.392.94.785 1.887.981 2.895.253 1.289.786 2.52.657 3.89-.069.743.779 1.295.573 2.159-.16.677.056 1.302.51 1.871.145.184.108.56.069.842-.215 1.646.941 3.099.667 4.751.9.96.449 2.375 1.172 3.425.619.908 1.315 1.26 2.458.906a.642.642 0 00.372-.387c.069-.275.053-.574.05-.861-.046-4.812-.128-9.63-.132-14.441-.002-1.262-.915-2.31-.69-3.586-.664-.596-.511-1.393-.549-2.152-.023-.472.072-1.106-.188-1.379-.912-.94.192-1.556.255-2.322.022-.215.213-.181.424-.005.699.579 1.043 1.418 1.141 2.218.098.782.326 1.455.627 2.157.214.494.31 1.031.464 1.555-.562.485.087.8.145 1.206.084.567.054 1.154.072 1.733.012.478-.043.975.344 1.353.175.172.14.286-.019.485-.542.681-.205 1.485-.256 2.232-.052.754-.157 1.538.477 2.183.103.107-.03.556-.171.767-.311.464-.265.834.026 1.297.189.291.355.815.221 1.062-.65 1.167-.512 2.409-.462 3.633.024.64-.497 1.022-.497 1.596.002.161.106.388.238.47.138.082.443.108.532.018 1.223-1.221 2.422-2.465 3.633-3.704-.006-1.028 1.269-.815 1.512-1.529.289-.864.934-1.415 1.477-2.072.353-.429.568-.969.904-1.415.347-.458.791-.845 1.132-1.31.153-.21.144-.533.219-.803.045-.18.072-.479.167-.51.899-.267.782-1.138 1.14-1.728.64-1.047 1.513-2 2.63-2.599.397-.213.58-.425.6-.831.01-.192-.047-.442.053-.563.613-.73.999-1.535 1.281-2.47.26-.876 1.046-1.59 1.425-2.42.467-1.026 1.501-1.498 1.969-2.418.421-.83 1.027-1.11 1.854-1.437 1.201-.473 2.273-1.304 3.334-2.068.438-.316.923-.74.898-1.397a1.521 1.521 0 01.56-1.267c.675-.558.584-1.758 1.513-2.001.721-.188 1.545-.179 2.281-.043 1.227.232 2.154-.71 3.295-.687.887-.805 1.989-.554 3.01-.553.932.002 1.908-.32 2.792.31.205.148.539.156.814.153.866-.004 1.645.197 2.466.511.66.256 1.47.044 2.15.569.308.236.704-.074.759-.547l-.041.043 1.2.525c.022.37-.07.748.22 1.073.617.693 1.417 1.234 1.679 2.212.062.232.364.528.597.567.952.175 1.061.88 1.159 1.638.019.167.606.31.724.171.112-.133.271-.361.222-.468-.41-.923-.85-1.833-1.308-2.73-.079-.16-.231-.356-.386-.402-1.211-.352-1.791-1.601-2.943-2.025-.023-1.052-.588-1.948-.921-2.901-.339-.965-.957-1.813-.904-2.932.024-.52-.726-.9-.536-1.554.052-.174.127-.342.191-.51.121.082.283.134.349.241.371.582.497.598.844.188.431-.507.467-1.075.151-1.58-.329-.516-.501-1.017-.346-1.61.023-.09.093-.204.164-.223.06-.019.168.064.235.129.199.201.554.413.562.628.027 1.392 1.083 2.361 1.395 3.66.282 1.152 1.004 2.226 1.654 3.259.729 1.158.381 2.632 1.229 3.729-.059.616.31 1.072.561 1.584.83 1.7 1.034 3.426.127 5.175.231.919-.454 1.625-.654 2.435-.223.899-.242 1.915-.658 2.685-.415.77-.172 1.747-.882 2.365.037 1.171-.49 2.169-.896 3.226-.361.942-.876 1.874-.87 2.938-.796 1.02-.477 2.349-1.02 3.478-.479.986-.598 2.147-.699 3.296-.075.796-.442 1.595-.54 2.45-.055.48-.654.893-1.019 1.333-.236.283-.482.19-.681-.04-.182-.214-.405-.438-.48-.695-.186-.62-.521-.7-1.056-.443-.332.16-.689.289-1.047.37-.715.164-1.106-.687-1.869-.577-.638.09-1.348.218-1.932-.278-.067-.053-.205-.13-.234-.111-.828.75-1.498-.456-2.367-.154-1.053.37-2.038-.169-2.952-.691-.336-.194-.644-.436-1.049-.365-.984.172-1.844-.429-2.746-.485-1.638-.101-3.01-1.02-4.595-1.235-.269-.039-.451-.3-.448-.635a237.325 237.325 0 00-.038-4.046c-.01-.395.051-.742.299-1.074.441-.596.225-1.282.176-1.939-.007-.077-.098-.184-.17-.219-.048-.023-.167.038-.22.098-.207.2-.461.382-.584.622-.293.583-.374 1.373-.817 1.773-.864.768-.948 1.827-1.344 2.764-.326.769-.479 1.553-1.032 2.277-.542.7-.5 1.799-1.251 2.47-.006 0 .176.31.278.314.478.037.967-.028 1.439.026 1.125.144 2.255-.24 3.389.245.93.402 1.983.528 2.97.727.754.153 1.3.876 2.128.664.732-.187 1.252.381 1.857.601.702.25 1.334.703 2.007 1.049.246.129.58.143.768.326 1.925 1.85 4.281 3.212 6.005 5.291.254.308.389.612.465 1.006.221 1.151.817 2.119 1.727 2.856 1.573 1.28 2.388 3.209 3.931 4.513.175.147.149.524.212.799.207.924.923 1.407 1.673 1.805.223.117.599.083.842-.021.517-.227 1.082-.454 1.472-.835 1.182-1.173 2.79-1.56 4.161-2.383.303-.182.714-.223 1.078-.25.937-.07 1.894.08 2.748-.538.302-.219 1.164.501 1.234.973.168 1.098-.258 2.065-.804 2.95-.346.56-.909.99-1.333 1.508-.094.115-.097.396-.024.545.067.142.278.278.439.294a5.3 5.3 0 001.153.023c.615-.054 1.1.12 1.559.551.332.313.793.488 1.196.734.187.118.24.68.05.753-.915.38-1.553 1.051-2.082 1.858-.041.066-.022.192.003.287.063.238.188.285.373.235 2.204-.574 2.884-.57 4.974-.036.36.092.742.135 1.119.143.77.022 1.541.007 2.305.011.677.734 1.629.395 2.426.637.713.22 1.322.751 2.035.983.539.173.932.563 1.554.658 1.717.257 2.846 1.356 3.538 2.939.189.428.45.832.646 1.254.074.16.149.465.072.531-.834.745-.141 1.909-.754 2.693-.329.416-.289.888-.313 1.366-.015.275-.036.592-.171.815-.534.86-1.663 1.363-1.548 2.635.014.114-.223.325-.378.375-.798.23-1.262.88-1.758 1.436-.973 1.092-2.166 1.805-3.48 2.399-.35.159-.659.36-1.059.334-.872-.05-1.639.275-2.461.511-.881.255-1.863 1.108-2.859.168-2.502.022-5.004.031-7.506.076-.525.012-.819.445-1.09.843a.428.428 0 00-.075.263c.114.597-.275 1.056-.4 1.589.718.739-.393 1.289-.205 2.088.207.871.338 1.922-.25 2.789-.247.367.101.495.199.721.226.512.488 1.005.679 1.529.043.113-.122.324-.228.469-.041.06-.166.085-.249.086-1.828.026-3.655.064-5.482.06-.902-.003-1.439-.535-1.478-1.389-.024-.478-.203-1.092.02-1.423.647-.952-.234-1.767-.083-2.647.124-.707-.746-1.11-.593-1.865.119-.587-.084-1.105-.465-1.597-.267-.344.022-.706.233-1.031.094-.144.199-.421.132-.521-.831-1.187.068-2.04.451-3.054.447-1.165 1.366-1.808 2.205-2.577.928.206 1.539-.769 2.418-.671 1.112.125 2.3-.426 3.343.424.132.106.555-.03.762-.17.344-.219.684-.336 1.078-.293.586.072 1.087.527 1.786.023.48-.346 1.327.081 1.895-.433.319-.29.467.156.712.189.371.056.893.236 1.094.066.757-.66 1.625-.532 2.461-.493 2.163.102 3.559-1.12 4.749-2.694.094-.12.097-.413.018-.538-.207-.32-.52-.568-.738-.876-.764-1.068-1.823-1.218-3.035-1.163-.525.023-.863.774-1.538.256-.319-.248-.91-.176-1.375-.177a2.974 2.974 0 01-1.624-.46c-.289-.177-.736-.112-1.118-.114-.962-.007-1.934.105-2.885.002-1.476-.164-2.79.406-4.123.827-.536.168-1.041.4-1.62.436-1.164.067-1.941-.54-2.085-1.758-.099-.854-.073-1.715-.142-2.575-.007-.096-.325-.266-.45-.229-.715.205-1.331.624-2.156.592-.729-.034-1.299.797-2.131.615-.942.74-1.692-.167-2.53-.296.003-.855-1.011-.742-1.286-1.355-.153-.339-.395-.635-.596-.956-.833-1.348-2.356-1.42-3.628-1.963-1.026.19-1.803-.465-2.679-.802-.348-.134-.707-.267-1.02-.467-1.149-.753-2.376-1.032-3.762-1.035-2.442-.01-3.439.043-5.562.879-1.213.473-2.427.959-3.597 1.557-1.33.678-2.726 1.351-4.286 1.224-.735-.057-1.115.718-1.869.6-.658-.1-1.344-.009-2.018.022-.281.015-.585.043-.823.165-1.763.921-3.54 1.766-5.602 1.657-.996 1.17-2.711-.013-3.72 1.134-.041.048-.185.014-.28.02-1.313.093-2.678-.155-3.894.587-.595-.364-1.136-.155-1.749.043-.976.303-2.118-.3-3.047.481-1.119-.74-2.502.045-3.547-.53-.697-.38-1.03.215-1.516.107-.443-.103-.852-.373-1.295-.482-.455-.109-.972.142-1.394-.182-.692-.543-1.622-.347-2.374-.865a4.09 4.09 0 00-1.817-.716c-.802-.099-1.607-.544-2.205-1.19-.852-.923-1.969-1.496-3.026-2.083-1.28-.71-1.865-1.797-2.327-3.047-.024-.06.052-.18.117-.24.041-.043.155-.068.203-.045.42.21 1.054.336 1.207.68.57 1.238 1.448 1.85 2.777 2.147.664.148 1.215.83 1.87 1.223 1.106.663 2.197 1.028 3.492.876.859-.099 1.742-.12 2.343.722.103.149.295.242.463.342.072.047.18.046.275.045 1.416-.01 2.847-.163 4.18.51.971-.8 1.908.23 2.915.053 1.121-.198 2.305-.067 3.458-.08 1.056-.011 2.125-.1 3.171-.016.92.073 1.526-.746 2.441-.648.759.081 1.541.013 2.305-.061.256-.021.486-.299.748-.373 1.263-.343 2.468-.947 3.838-.795.968.103 1.723-.814 2.741-.58.987.223 1.798-.497 2.723-.58.531-.047.892-.296 1.223-.652.431-.471.887-.745 1.461-.213.175.165.3.14.483-.041.272-.272.548-.706.864-.739 1.253-.133 2.316-.67 3.445-1.167 1.094-.478 2.285-.766 3.409-1.227.256-.104.548-.12.829-.134.477-.035.961-.04 1.444-.058 3.367-.09 3.368-.078 6.812 1.397.762.327 1.576.539 2.373.793.066.023.179-.05.238-.11.047-.042.1-.174.075-.204-1.245-1.427-1.987-3.213-3.358-4.555-1.829-1.791-3.782-3.492-4.889-5.895-.116-.244-.381-.426-.598-.62-.573-.533-1.075-1.077-1.025-1.963.015-.257-.459-.479-.666-.327-1.031.764-2.402.409-3.446 1.113-.213.146-.609.03-.804.182-1.303.989-2.789 1.113-4.337 1.046-.675-.029-1.264.145-1.906.433-.654.294-1.601-.025-2.224.293-.737.379-1.435.464-2.193.484-.669.02-1.32-.015-1.894.475-.337.29-.71.032-1.012-.234-.374-.33-.719-.202-.966.136-.218.295-.272.804-.551.956-1.359.768-2.35 1.933-3.455 2.979-.119.109-2.653.997-2.886 1-1.636.023-3.273.017-4.902.065-.544.018-.887-.26-1.243-.59-.278-.255-.538-.557-.979-.528-1.701.114-2.712-1.172-3.922-2.008-.848-.588-1.355-1.611-2.38-2.013l.083.03zm60.675-49.282c.061.149.087.357.202.44.144.106.298-.04.2-.206-.066-.112-.282-.134-.432-.198-.017-.454-.022-.914-.056-1.368-.007-.072-.104-.155-.176-.202-.036-.023-.161.02-.166.056-.069.252-.144.51-.165.767-.032.407.139.686.593.71zm.232 20.854l-.616-.029.037.036c.029-1.136-.204-2.282.172-3.41.353-1.056.825-2.083.92-3.22.977-.847.299-2.197 1.011-3.197.476-.669-.413-1.717-1.309-1.743-.191-.004-.425-.044-.561.054-.409.285-.712.378-1.235.109-.468-.24-1.129-.06-1.68-.168-.634-.124-1.266-.566-1.863-.505-1.3.133-2.446-.368-3.52-.829-.876-.373-1.704-.107-2.501-.343-.886-.266-1.634-.921-2.585-1.049-.281-.038-.573 0-.866-.014-.287-.015-.644.049-.837-.093-1.132-.854-2.411-.386-3.624-.456-.419-.026-.595.24-.788.636-.701 1.442-.87 1.838 1.04 1.68.286-.027.67.095.847-.05 1.019-.807 2.199-.455 3.315-.563.984-.094 1.728.729 2.695.67.531.527 1.245.878 1.439 1.712.113.483.558.736.961 1.006 1.071.718 1.109 2.027.053 2.696-.297.188-.727.151-1.084.257-.131.043-.243.194-.325.32-.024.03.079.166.146.238.133.136.26.35.422.378 1.215.226 1.087 1.124 1.007 1.985-.027.294-.3.404-.562.544-.617.336-.658.42-.275 1.044.334.54.459 1.047.191 1.6-.345.709-1.13 1.016-1.946.624-.565-.268-.979-.497-1.53-.013-.183.164-.535.215-.804.194-1.972-.17-4.013.57-5.911-.45-.733.152-1.64-.359-2.171.293-.294.356-.25 1.108-.155 1.645.216 1.2-.538 2.194-.561 3.33-.02.945.092 1.882-.49 2.767-.217.331-.133.976.021 1.405.191.542.8.481 1.247.399.799-.146 1.505 1.143 2.331.13.848.565 1.801.357 2.727.37.281.004.65-.042.831.111.844.715 1.826.429 2.758.455.574.012 1.153.005 1.732-.013.394-.01.759.022 1.067.311.561.52 1.099 1.184 1.914.356.804.828 1.997.14 2.924.811.71.513 1.137.21 1.523-.524.316-.596.632-1.155.535-1.871-.052-.376-.08-.782-.001-1.154.165-.797.317-1.63 1.131-2.08l-.043-.042c.023.974.051 1.954.074 2.928-.155.08-.429.136-.446.232a12.838 12.838 0 00-.113 1.651c.001.084.217.177.343.242.018.012.16-.133.159-.211.011-.652.01-1.303.009-1.955.855-.416 1.061-1.267 1.112-2.05.076-1.22.883-2.3.624-3.582-.044-.227.119-.593.309-.745.988-.794.756-1.873.75-2.901.161-.068.418-.094.47-.214.653-1.418.917-2.993 1.769-4.336.129-.204.023-.556.002-.843-.007-.083-.085-.172-.157-.225-.043-.036-.162-.034-.197.002-.248.278-.687.563-.69.85-.004.706-.291 1.283-.625 1.83-.575.94-.654 1.932-.547 2.977zm-28.178 14.76c-.816.189-1.916-.409-2.673.233-.769.654-1.266 1.628-1.854 2.483-.206.307-.304.685-.479 1.015a39.215 39.215 0 01-3.396 5.19c-.459.597-.828 1.265-1.294 1.85-.477.602-1.026 1.14-1.534 1.72-.023.03.014.155.056.197.066.059.175.13.24.105.53-.174 1.035-.43 1.577-.532.56-.101 1.085-.22 1.632-.412 1.315-.469 2.64-1.039 4.106-.846.687.089 1.27-.18 1.869-.54.73-.432 1.527-.74 2.424-.648.484.055.924-.088 1.339-.385.54-.383 1.349-.11 1.826-.695.416.342.786.302 1.224-.02.202-.145.554-.113.835-.11.663.01 1.402-.111 1.972.14.439.192.649.883.988 1.328.57.753 1.264 1.433 1.709 2.247.707 1.284 1.715 2.277 2.752 3.252.634.591 1.214 1.2 1.533 2.022 1.036.186 1.112 1.166 1.543 1.855.401.635.761 1.3 1.221 1.893.527.67.627 1.614 1.397 2.12.674.44.814 1.276 1.316 1.832.368.409.673.985 1.319 1.014.549.024.734-.57 1.138-.795 1.145-.635 2.316-1.215 3.364-2.045.438-.346 1.116-.55 1.14-1.107.025-.502-.328-1.048-.596-1.536-.182-.326-.472-.61-.767-.858-.898-.75-1.548-1.681-2.001-2.734-.153-.363-.318-.672-.589-.944-.532-.539-1.098-.999-1.364-1.797-.16-.494-.686-1.063-1.165-1.213-.857-.271-1.05-.999-1.475-1.568-.218-.296-.253-.78-.518-.98-1.499-1.156-1.821-3.305-3.593-4.218-.389-1.185-1.427-1.646-2.342-2.324-.982-.725-2.205-1.148-2.962-2.186-.243-.332-.632-.4-1.038-.365-.59.048-1.077-.204-1.617-.425-1.284-.53-2.7-.658-4.019-1.116a1.764 1.764 0 00-.545-.126c-.848-.002-1.714.019-2.699.03zm42.408 42.917c.89-.01 1.677-.132 2.419.004.945.169 1.502-.806 2.429-.642 1.221.219 2.175-.46 3.106-1.116.847-.595 1.683-1.208 2.53-1.797.148-.103.447-.124.481-.238.307-.96 1.101-1.537 1.696-2.266.059-.073.142-.151.159-.235.033-.186.067-.384.041-.569-.15-1.2.376-2.198.897-3.214.158-.312.296-.798.167-1.077-.464-1-.763-2.15-2.105-2.465-.532-.125-.997-.52-1.513-.76-.942-.438-1.494-.133-1.52.811-.018.574.067 1.171-.053 1.729-.142.683-.691 1.25.236 1.91.656.465.625 1.476.196 2.084-.624.886-1.072 2.002-2.232 2.41-.541.19-.992.507-1.441.876-.894.733-1.929 1.157-3.136 1.08-.574-.035-1.31-.201-1.695.078-1.061.759-2.211.425-3.321.556-.28.033-.669-.058-.835.093-.822.774-1.817.444-2.742.496a50.656 50.656 0 01-3.164.052c-.586-.005-1.098.072-1.608.436-.528.371-1.207.521-1.758.868-.487.298-.835.703-.857 1.384-.077 2.267-.086 2.524.985 5.507.172.477.369.995.116 1.35-.771 1.073-.31 2.227-.364 3.346-.004.125.237.374.363.378.561.006 1.159.036 1.682-.137.423-.142.747-.529.777-1.097.079-1.501-.356-3.057.477-4.476.041-.073.039-.24-.009-.275-1.072-.808.109-1.544.058-2.308-.05-.789.489-1.225.974-1.661.337-.302.861-.398 1.205-.694.781-.672 1.965.05 2.66-.83.404.354.798.35 1.195-.013 1.125.842 2.415.266 3.504.422zm-29.733-58.674c1.344-.015 2.687-.023 4.031-.056.119-.001.249-.194.349-.32.017-.025-.08-.173-.152-.232-.217-.189-.454-.521-.669-.513-1.307.05-2.625-.318-3.932.336-.623.311-1.491.165-2.243.174-.156.001-.331-.182-.469-.312-.187-.172-.536-.335-.342-.636.182-.277.369-.692.848-.535.264.086.614.37.756.278.955-.59 2.018-.596 3.034-.499 1.298.124 2.365-.552 3.557-.78.096-.019.182-.295.21-.462.05-.33-.221-.536-.525-.509-.567.054-.925.572-1.57.555-1.918-.05-3.84.03-5.757.045-.173.002-.395-.05-.515-.156a.649.649 0 01-.197-.482c.054-.533.486-.938.891-1.014 1.192-.222 2.289-.928 3.57-.708 1.364.23 2.493-.816 3.844-.747.203.01.426-.358.645-.54.183-.157.181-.312-.047-.453-.313-.2-.62-.496-.962-.552-1.465-.235-2.833.27-4.032.965-1.258.725-2.71.663-3.969 1.316-.458.238-1.134.06-1.708.048-.311-.008-.551-.167-.525-.514.01-.167.091-.443.198-.48.708-.223 1.287-.845 2.118-.723.796.117 1.455-.237 2.15-.573 1.087-.526 2.235-.915 3.402-1.239.173-.05.388-.093.5-.214.1-.115.11-.336.12-.51.005-.071-.068-.184-.134-.213a2.224 2.224 0 00-.522-.174c-.795-.153-1.473.153-2.15.537-.664.372-1.346-.798-2.036-.02-1.07-.09-1.878.912-2.991.72-.233-.039-.59.108-.761.296-.549.603-1.161.843-2.003.912-.698.056-1.392.505-2.026.895-.392.237-.71.653-.98 1.039-.259.367-.271.893-.867 1.013-.441.089-.364.62-.588.904-.294.373-.625.73-.974 1.056-.354.339-.493.783-.709 1.197-.474.926-.708 1.957-1.164 2.84-.532 1.035-.37 1.72.154 2.605.651 1.1 1.614 1.872 2.513 2.711.061.053.329-.033.435-.13.662-.593.904-1.427 1.116-2.236.098-.372.13-.737.419-1.02.615-.611 1.132-1.364 1.838-1.82 1.34-.858 2.553-2.509 4.503-1.083.253.188.753.051 1.135.047 1.069-.005 2.126-.023 3.183-.034zm35.221 46.491l-.001-.036c.573-.006 1.153.018 1.726-.03.238-.02.29-.225.199-.397-.22-.41-.347-1.078-.664-1.188-.654-.227-.973-.522-.933-1.192.026-.353-.203-.59-.472-.593-.944-.013-1.962-.29-2.811.186-.6.336-.917.291-1.505-.031-1.448-.81-2.926-.997-4.615-.357-1.273.48-2.77.622-4.134-.164-.517-.3-1.204-.286-1.661-.012-.801.481-1.504 1.146-1.925 2.03-.023.042.092.16.152.231.339.415.225.906.254 1.378.014.191-.025.467.084.55.198.159.613.37.713.284 1.445-1.18 3.153-1.152 4.867-1.176.752-.008 1.543.18 2.175-.472.088-.097.434-.106.531-.012.821.792 1.837.327 2.758.46.347.05.599.675.953.307.537-.556 1.355-.05 1.851-.618.295-.332.488-.089.527.198.052.328.215.553.497.598.466.06.956.037 1.434.056zm-23.852-2.102c.143-.002.515.108.698-.026.853-.631 1.897-.81 2.855-1.083 1.262-.36 2.255-1.34 3.628-1.396.34-.016.678-.295 1.01-.472 1.491-.781 2.981-1.556 4.46-2.356.32-.176.598-.442.882-.673.071-.054.148-.163.141-.234-.007-.06-.133-.154-.211-.16-.466-.03-1.023-.204-1.391-.02-.879.452-1.774.563-2.724.567-.262.003-.517.191-.779.272-.53.173-1.162.204-1.565.53-.669.54-.989-.371-1.519-.21-.089.025-.191-.01-.287.01-.661.126-2.382 1.185-2.971 1.873-.189.217-.3.44-.634.467-1.307.122-2.047 1.242-3.11 1.803-.362.19-.067.455.102.65.345.385.753.572 1.415.457zm4.996-8.998c.105.866.04 1.41.321 1.975.537 1.059.453 1.03 1.475.612 1.267-.516 2.255-1.351 3.218-2.3.55-.544.666-1.4 1.337-1.766.819-.44.82-1.468 1.555-1.948.172-.11.08-.354-.177-.38-.472-.043-1.047-.175-1.421.027-1.74.927-3.651 1.474-5.379 2.42-.611.34-.999.889-.929 1.36zm-12.485-51.048c-.424.005-.813-.009-1.195.025-.173.014-.333.135-.505.203.097.112.17.255.29.326.325.187.655.375 1.003.497.785.284 1.742-.18 2.449.583.133.148.562.066.842.027 1.074-.143 2.045.235 3.034.565.432.144.857.283 1.289.422.46-.56.8-.026 1.207.106.264.087.574.03.861.015.083-.007.225-.092.225-.14.004-.143-.004-.364-.094-.423-.554-.359-1.115-.945-1.695-.968-1.249-.047-2.326-.788-3.573-.733-.567.024-1.265.146-1.674-.125-.824-.541-1.669-.28-2.464-.38zm12.307-1.783c-.065.048-.143.08-.19.14a.605.605 0 00-.129.234c-.151.922.495 1.555.843 2.292.06-.042.137-.073.184-.133a.483.483 0 00.129-.235c.127-.91-.465-1.56-.837-2.298zm-2.102-3.283c-.002-.126.027-.228-.009-.305-.074-.16-.183-.303-.274-.451-.094.15-.242.29-.264.445-.039.263-.03.55.021.813.019.09.211.165.336.205.03.012.148-.12.159-.205.04-.173.026-.353.031-.502zm.232 1.623c-.029.055-.088.127-.075.169.024.071.127.19.151.177.208-.098.242-.23.098-.336-.036-.03-.114-.004-.174-.01zM120.226 19.096c-.828.212-1.58-.276-2.388-.5-1.53.506-2.481-.727-3.633-1.282-.661-.316-1.134-1.022-1.672-1.572a.551.551 0 01-.112-.454c.307-.876.506-1.84 1.011-2.587.388-.566 1.13-.963 1.906-1.049.841-.093 1.727.107 2.46-.552.16-.146.608-.127.836-.01 2.096 1.072 4.263 2.052 5.889 3.846.447.497.615 2.193.244 2.706-.094.132-.326.248-.475.238-.64-.065-1.053.388-1.564.627-1.218.575-1.218.58-2.502.589zm-2.356-6.323v-.012c-.382.004-.77.05-1.146.006-1.202-.136-1.978.494-2.619 1.391-.288.404-.225 1.27.184 1.565 1.138.824 2.305 1.607 3.56 2.239.45.222 1.056-.113 1.343-.63.626-1.137.964-2.516 2.483-2.903.262-.069.277-.278.085-.39-.319-.187-.738-.278-.961-.539-.569-.652-1.275-.775-2.063-.737-.292.015-.579.006-.866.01z" fill="#284855"/><path d="M96.668 75.466c.023.478.112.98-.374 1.296-.783.498-1.523 1.086-2.538 1.097a2.212 2.212 0 00-1.06.299c-2.492 1.521-5.37 2.055-8.01 3.213-.844.368-1.883.35-2.649.812-.753.456-1.705.263-2.343.934-.082.09-.358.016-.537-.018-.078-.017-.193-.118-.2-.19-.025-.178-.064-.5.007-.531 1.605-.717 2.928-2.07 4.826-2.121.185-.002.46-.011.53-.125.911-1.38 2.619-.854 3.811-1.596.35-.219.918-.16 1.248-.552.472-.555 1.123-.562 1.772-.736 1.519-.4 2.981-1.007 4.469-1.513.35-.117.727-.151 1.09-.221l-.042-.047zM155.715 30.296c-.82-.146-.752-1.002-1.115-1.5-.54-.741-1.051-1.633-1.174-2.516-.189-1.409-.049-2.863-.041-4.292-.001-.071.112-.15.177-.223.06.065.163.13.175.201.058.37.116.746.138 1.123.044.765-.173 1.658.15 2.264.536 1.004.502 2.224 1.252 3.089.52.598.389 1.24.39 1.897l.048-.043zM92.573 24.943c-.567.622-.337 1.42-.52 2.128-.104.39-.566.7-.891 1.02-.136.133-.67-.112-.702-.297-.02-.09-.044-.185-.033-.275.143-1.131.49-2.163 1.474-2.85.107-.072.347.033.514.09.06.012.103.12.158.184zM157.013 47.056c.002.18.022.365.012.544-.015.228.018.556-.365.417-.096-.035-.165-.315-.149-.47.027-.3.24-.446.539-.461l-.037-.03zM154.813 53.483c-.002-.18-.016-.365 0-.544.022-.222-.023-.556.36-.417.096.035.159.315.143.471-.033.3-.246.44-.551.454l.048.036zM167.679 89.928c.024.06.085.13.073.173-.029.072-.1.12-.159.18-.031-.112-.056-.232-.088-.345a1.66 1.66 0 01.174-.008zM162.996 89.89c.067.07.193.17.181.2-.128.277-.277.273-.376-.02-.012-.029.124-.114.195-.18z" fill="#284855"/></svg>