<svg width="101" height="111" fill="none" xmlns="http://www.w3.org/2000/svg"><g clip-path="url(#clip0)" fill="#284854"><path d="M46.518 91.66c.661.225.716.762.68 1.347-.08.037-.194.055-.237.116-.055.085.024.159.11.098.06-.043.072-.153.108-.238.425.14.607.689.54.866-.26.69.182.543.382.323.831-.89 1.868-.366 2.802-.488.303.866.934.22 1.407.293.48.073.983-.085 1.45.146.097.05.194.165.279.153.794-.086 1.437-.78 2.402-.342.8.366 1.722-.042 2.504-.384.437-.19.85-.134 1.256-.232.673-.165 1.2.671 2.007.147.4-.263 1.135-.494 1.771-.183.164.079.316-.055.37-.226.146-.476.407-.42.728-.19.291.208.685.227.946.099.637-.33 1.231-.72 1.996-.507.473-.72 1.546-.165 1.989-.945.048-.08.176-.122.273-.159.546-.183 1.2.311 1.68-.299.424-.536 1.152-.439 1.65-.75.545-.341 1.14-.305 1.698-.427.964-.22 2.025-.597 2.917.275.249.244.352-.074.528-.098.71-.098 1.049.146 1.134.8.006.054 0 .109 0 .164-.03.549-.067 1.104-.097 1.653.825-.19 1.698-.275 2.462-.604.394-.17.71-.451 1.177-.403.206.019.473.012.63-.097 1.177-.866 2.523-.488 3.803-.561.588-.03.94.244.952.866.007.433.71.835.043 1.287.151.152.358.457.449.427.285-.098.533-.464.806-.019.255.421.461.885.34 1.397-.049.201-.212.372-.303.567-.346.757-.346.757.485.787.218.006.37.061.51.293.333.555.448 1.177.254 1.726-.079.232-.673.25-.88.695-.17.366-.563.665.213.598.606-.055.758.207.74.762-.012.549-.012 1.068-.334 1.562-.279.427-.315 1.073-1.049 1.018-.042-.006-.127.043-.127.074-.2 1.195-1.292 1.006-2.05 1.341-.583.256-1.268.336-1.644.952l-1.552.354c-.334-.159-.492.109-.698.274-1.255 1.013-1.868 1.183-3.475.994-.37-.042-.734-.11-1.074.214-.552.53-1.152.945-1.97.445-.17-.104-.42.006-.553.226-.079.134-.218.378-.254.366-.577-.202-1.025-.275-1.565.256-.352.341-1.037.262-1.535-.055-.121-.079-.151-.037-.273.012-.885.372-.897.372-1.886.189-.837-.152-1.607.226-2.329.5-.479.183-.758.494-1.152-.042-.164-.226-.26.067-.394.091-.995.177-1.923.854-3.003.433-.54-.207-.715.927-1.352.372-.546.433-1.055.214-1.662.086-.376-.08-1.134-.36-1.474.353-.06.128-.194.153-.248.061-.425-.732-.965-.341-1.535-.225-.582.115-1.237-.086-1.801.061-.546.14-.891.189-1.425-.159-.528-.348-1.237.031-1.71.433-.431.36-.734.445-1.086-.018-.23-.311-.655-.439-.867-.263-.546.44-1.304.049-1.699.397-.515.457-.958-.134-1.48.165-.467.262-1.182.067-1.789.085-1.255.043-1.225-.037-2.165-.403-.479-.189-1.086.074-1.62.196-.193.042-.436.311-.582.14-.685-.793-1.437-.256-2.134-.104-.28.061-.467.147-.722-.042-.649-.488-1.431-.513-2.19-.458-1.516.11-3.062-.335-4.542.287-.51-.506-1.256-.037-1.698-.336-.558-.372-1.116.311-1.614-.189-.145-.146-.521-.103-.788-.097-1.686.055-3.27-.616-4.943-.665-.255-.006-.394-.171-.552-.317-.158-.141-.273-.397-.528-.324-.612.165-1.243.415-1.783-.085-.521-.488-1.17-.104-1.716-.366-.576-.274-1.195-.463-1.765-.756-.31-.159-.48-.025-.734.085-.515.22-1.134.262-1.552-.091-.831-.702-1.735-.58-2.608-.311-.389.122-.6.122-.837-.153-.443-.5-1.274-.262-1.668-.921-.122-.201-.504-.134-.758.018-.625.379-1.335-.17-1.972.19-.09.048-.388-.068-.418-.159-.249-.878-1.074-.756-1.674-.958-1.213-.414-2.16-1.183-3.032-2.079-.073-.08-.2-.232-.188-.244.824-.94-.34-1.281-.607-1.836-.424-.879-.655-1.763-.885-2.702-.23-.952.582-1.891-.152-2.739-.012-.012.024-.091.06-.122 1.274-1.153 1.165-3.129 2.505-4.239.225-.183.285-.42.352-.701.097-.403.261-.854.54-1.147.691-.707 1.274-1.415 1.534-2.44.182-.707 1.147-.731 1.735-1.103.188-.116.54-.562.964-.098.37.402.57.787.473 1.317a.527.527 0 01-.133.28c-1.37 1.227-2.299 2.77-3.281 4.3-.376.586-1.207.922-1.292 1.709-.085.774-.958 1.08-.964 1.884 0 .22-.346.458-.237.744.273.732-.315 1.5.006 2.141.37.732.225 1.604.783 2.275.266.317.382.769.727 1.062.249.213.661.481.655.713-.042.982.82.842 1.298 1.141.546.347 1.456-.458 1.832.549.63.183 1.25.439 1.935.207.078-.024.206.049.29.104.328.213.504.793 1.08.366.419-.311.595.823 1.177.25.085-.08.491.671 1 .335.31.378.874.409 1.19.409.842-.006 1.661.012 2.504.11.48.054 1.007-.36 1.504 0 .455.329 1.116-.007 1.504.512.043.055.17.079.25.067 1.012-.22 1.51-.323 1.904-.116.418.214.758.415 1.194.073.298-.231.619.159.661.226.413.677 1.044.768 1.674.604.91-.244 1.771.006 2.596.225 1.098.293 2.232.36 3.336.598.297.067.552-.476 1.073-.201.413.226.892.384 1.31.628.492.281.88-.012 1.195-.244.443-.323.855-.183 1.116.067.303.293.425.714.722.025.042-.098.285-.067.437.042.497.36 1.146.372 1.546.086.522-.372.837.164 1.183.061.4-.122.649.091.946.122.673.079 1.219.628 1.825.561.6-.067 1.244.036 1.796-.159.479-.17.928.165 1.176.073.395-.146.886-.073 1.207-.408.097-.098.164-.079.273.018.698.628 1.498.104 2.244.171.516.049 1.104.421 1.559-.244.127-.183.503-.134.752.037.485.329.861.378 1.14-.287.115-.275.546-.244.728-.086.327.293.8.11 1.043.36.31.311.54-.103.85.061.606.324.776-1.079 1.412-.506.57.506 1.195-.061 1.735.299.164.11.443-.006.412-.323-.042-.427.134-.879-.151-1.287-.516-.726-.388-1.482-.219-2.312a2.111 2.111 0 00-.303-1.555c-.352-.531-.576-1.049.134-1.476.23-.14.024-.244.012-.372-.14-1.306-.534-2.58-.322-3.922.037-.22-.109-.476.08-.726.26-.341.211-.805.035-1.085-.327-.519-.63.134-.982.158-1.164.085-2.335.226-3.451.628-.194.067-.503.092-.643-.018-.582-.433-1.164.213-1.801-.091-.65-.312-1.407-.629-2.16.042-.248.226-.788.134-1.212-.17-.6-.44-.655-.39-.886.372-.206.67-.382 1.256-1.152 1.628-.607.293-1.007.854-1.62.055-.06-.08-.557.232-.679.14-.649-.512-1.765-.427-1.965-1.513-1.516-.835-2.28-2.677-4.112-3.073-.303-.068-.479-.25-.649-.464-.06-.08-.042-.226-.109-.299-.297-.335-2.05-1.006-2.147-.83-.328.635-.049 1.214.121 1.855.188.72.783 1.512.091 2.3.57 1.243-.176 1.622-1.188 1.823-.37.988-.977.402-1.565.28-1.195-.237-1.99-1.256-3.166-1.518-.152-.037-.273-.317-.358-.513-.067-.14-.006-.433-.085-.463-1.061-.451-1.231-1.519-1.777-2.348a50.664 50.664 0 01-1.546-2.513c-.54-.927-1.747-1.287-2.808-1.629-.098-.03-.267-.042-.322.013-.85.939-1.795.188-2.693.164-.09 0-.255-.097-.26-.091-.431.915-1.232.17-1.826.408-.6.238-1.195-.28-1.85-.195-.704.092-1.431-.012-2.14.043-.383.024-.632-.19-.893-.354-.879-.555-1.698-1.208-2.59-1.738-.478-.287.031-.769-.339-1.05-.31-.225-.552-.536-.83-.81-.377-.366-.116-.854-.243-1.25-.23-.763-.552-1.495-.752-2.282-.237-.909-.213-1.909-.825-2.745-.213-.292-.219-.975-.018-1.28.442-.684 0-1.239-.061-1.842-.055-.61-.297-1.171-.006-1.824.188-.415-.121-.927-.152-1.379-.024-.396.558-.75.255-1.268.594-.348-.115-.83.145-1.293.219-.384.116-.964.104-1.458-.006-.36.145-.604.34-.89.466-.684.873-1.379.727-2.306-.097-.591.825-1.44 1.468-1.47.37-.018.77-.128 1.11.153.897.725 2.17.597 3.044 1.366.746-.092 1.413.006 1.96.628.211.244.339-.134.497-.226.612-.36.357-1.213.946-1.653.479-.353 1.134-.268 1.546-.817.437-.573.904-1.122 1.59-1.543.582-.36.958-1.36.83-2.074-.085-.487.043-.774.115-1.17.073-.421.431-.848.055-1.342-.158-.202-.006-.531.218-.738.243-.226.304-.397.176-.8-.145-.475.582-1.049 1.14-1.128a2.124 2.124 0 011.662.5 8.432 8.432 0 002.93 1.623c.849.268 1.704.774 2.335 1.396.86.848 1.959 1.22 2.947 1.8.285.164.728.299.722.555-.006.555.376.677.655.988.236.262.315.677.722.811.097.03.248.091.26.159.104.481.122 1.06.734 1.134.383.043.291.976.892.433.364.323.71.61 1.255.671.4.043.855.622 1.14.525.813-.275 1.62.329 2.439-.14.382-.22.964-.22 1.431-.306.594-.11 1.22-.012 1.753-.213.455-.177.77-.78 1.225-.897 1.328-.335 2.487-1.25 3.985-1.067.867.103 1.558-.665 2.407-.836.091-.018.219-.14.225-.225.127-1.348 1.34-1.062 2.068-1.184.728-.122 1.231-.353 1.656-.884.46-.573 1.037-1.012 1.728-1.14.43-.086.698-.293.952-.568.431-.451.856-.69 1.42-.213.2.17.412.079.57-.098.358-.39.74-.683 1.273-.33.352.239.54-.237.868-.164.552.116.618-1.055 1.273-.585.455.329.97.134 1.401.36.237.121.419.304.734.121 1.02-.603 2.269-.652 3.257-1.25 1.043-.628 2.177-.793 3.306-1.073.733-.183 1.485-.08 2.231-.171.589-.073 1.14-.348 1.71-.348.504 0 1.044.03 1.53.092 1.467.189 2.965.189 4.402.603 1.529.44 3.124.702 4.58 1.3 2.395.982 4.985 1.72 6.507 4.123 1.2.835 1.583 2.22 2.28 3.39.261.44.759.782.874 1.239.23.89 1.298 1.513.837 2.61.37.873.813 1.727 1.085 2.63.164.542-.17 1.134.134 1.768.612 1.28-.043 2.623-.03 3.94-.474.36-.03.732.09.976.176.348.862.592.844.848-.031.433-.182.768.26 1.067.2.134.225.427.012.561-.582.372-.382.915-.115 1.214.461.512.043 1.232.54 1.683.055.05.03.208.006.311-.388 1.91-.376 3.319.03 5.087.049.208.097.574-.097.598-.649.092-.23.64-.448.92-.219.282-.443.702-.401 1.026.061.451-.23.78-.212 1.207.018.433-.055.97-.716.976-.26.006-.51.207-.37.378.546.708-.188.805-.43 1.202-.552.915-1.292 1.744-1.577 2.8-.103.371-.2.506-.594.603-.68.159-1.092.616-1.129 1.403-.018.42.013 1.147-.837.622-.254-.158-.466.19-.69.336-.686.439-.977.359-1.487-.324-.418-.56-.34-.805.243-1.451.66-.732 1.461-1.281 2.201-1.903.552-.464 1.153-.872 1.329-1.592.236-.964.91-1.561 1.546-2.232.328-.342 1.05-.629.455-1.336-.018-.025.17-.244.279-.36.51-.561.716-1.232.612-1.958-.084-.616.68-1.195.043-1.811-.036-.037.018-.256.085-.287.685-.348.273-1.006.449-1.476.267-.707-.188-1.135-.45-1.635a1.239 1.239 0 01-.084-.951c.26-.775.121-1.519-.388-2.013-.498-.494.206-1.061-.261-1.409-.497-.378-.297-.903-.388-1.366-.212-1.104-.576-1.824-1.444-2.836-.266-.311-.794-.537-.321-1.067.091-.098.09-.196-.043-.257-.648-.305-.952-.805-.891-1.53-.534-.245-.892-.708-1.207-1.153-.249-.348-.989-.415-.716-1.098-.588-.75-1.322-1.348-2.104-1.867-.213-.14-.516-.11-.522-.47-.006-.225-.024-.457-.29-.524-.96-.231-1.687-.89-2.494-1.397-.29-.182-.558-.31-.91-.298-.266.012-.624.06-.794-.08-1.067-.927-2.177-.64-3.348-.286-.436.134-.982.177-1.431-.128a.842.842 0 00-.782-.11c-.383.128-.57.793-1.092.506-.582-.317-.661.451-1.074.415-.51-.043-.758.39-1.134.58-.843.426-1.795.615-2.292 1.615-.122.25-.668.525-1.135.489a1.182 1.182 0 00-.77.195c-.97.646-1.807.122-2.571-.415-.176-.122-.097-.342-.504-.226-1.049.305-1.977.122-2.59-1-.333-.616-1.06-.89-1.68-1.19-1.291-.621-1.419-.756-1.006-2.06.151-.489-.012-.544-.407-.617-1.194-.226-1.188-.238-.891-1.44.024-.103.079-.213.067-.31-.11-.818.182-1.367 1.006-1.568.285-.067.34-.262.261-.488-.067-.177-.31-.195-.424-.116-.389.28-.722.33-1.207.128-.486-.2-.6.488-.959.665-.212.104-.309.555-.63.311-.728-.549-1.225-.256-1.705.366-.236.305-.624.354-.976.494-1.365.543-2.832.897-4.009 1.842-.206.165-.364-.293-.51-.03-.096.177-.066.591-.139.603-.758.122-1.225.946-2.02.879-.66-.055-1.14.293-1.643.604-.182.116-.346.262-.534.378-.352.213-.734-.427-.976-.073-.188.268-.316.622-.613.72-.4.127-.722.518-1.213.371-.46-.14-.849.122-1.219.342-.982.58-1.468.897-2.092.628-.77-.323-1.292.183-1.899.311-.333.067-.636.305-.94.055-.728-.592-1.686-.17-2.456-.64-.534-.324-1.25-.732-1.759-.604-.667.17-.776-.147-1.007-.512-.176-.269-.352-.543-.527-.812-.37.269-.413-.116-.631-.244-1.092-.646-1.474-1.915-2.45-2.659-.298-.226-.364-.762-.868-.866-.357-.073-.479-.854-1.043-.36-.018.018-.188-.097-.248-.183-1.026-1.262-2.548-1.762-3.87-2.568-.594-.36-1.177-.75-1.759-1.128-.194-.128-.303-.518-.63-.17-.158.164-.37.414-.237.56.515.543.2.866-.2 1.232-.097.092-.176.354-.122.433.68.97-.691 1.873-.072 2.824-.364.427-.82.793-.692 1.489.037.183-.333.244-.546.213-.436-.06-.752.122-.988.451-.795 1.086-2.008 1.77-2.73 2.94-.345.561-1.23.555-1.564 1.232-.037.073-.346.092-.467.019-.922-.519-1.929-.586-2.948-.738-.485-.074-1.122-.22-1.625-.647-.28-.238-.928-.152-1.353-.451-.412-.287-.546-.073-.612.347-.267 1.708-.613 3.398-.692 5.136-.03.72-.454 1.415.012 2.147.116.183-.078.402-.163.61-.273.628-.498 1.28.012 1.915a.685.685 0 01.097.134c.243.5-.534.848-.194 1.373.224.341.479.695.437 1.128-.122 1.19.485 2.226.655 3.354.024.153.175.311.151.446-.188 1.14.455 1.945 1.068 2.775.224.305.406.64.588.97.449.81.449.835 1.528.817.328-.006.595.11.673.347.207.653.455.556.807.14.152-.182.455-.286.595-.164.636.561 1.449-.31 2.056.293.606-.567 1.467-.116 2.153-.573.376-.25.91.579 1.492.079.49-.427.982.537 1.492.097.545-.47.988-.06 1.498.05.6.133.982.426 1.407.884.533.567 1.23.939 1.425 1.811.048.226.515.342.77.53.225.171.419.379.225.69-.122.189-.285.341.097.433.49.122.746.463.66.982-.072.457.195.726.492.976.886.756 1.644 1.653 2.602 2.336.4.287.764.372 1.207.335.036.08.048.196.115.238.085.055.158-.018.103-.103-.042-.061-.158-.074-.236-.11.024-.183.145-.336.303-.33.6.037.782-.231.691-.799-.133-.799-.23-1.598-.37-2.397-.036-.2-.218-.378-.26-.58-.14-.609-.722-2.42-1.05-2.665-.497-.371-.31-1.067-.88-1.433-.496-.317-.824-.92-1.212-1.403-.297-.372-.48-.372-.588.129-.013.06-.225.146-.261.115-.461-.36-1.056-.189-1.54-.396-.316-.134-.522-.427-.438-.805.08-.36.158-.75.71-.543.34.128.534-.268.843-.311.134-.018.261-.274.4-.049.304.494.728.147 1.074.22.952.195 1.601.841 2.014 1.78.26.598.345 1.294 1.122 1.678.394.195.545 1.006.685 1.567.152.604.443.373.746.226.188-.091.37-.22.534-.348.163-.128.29-.341.521-.11.455.452 1.177.294 1.65.849.376.439 1.231.426 1.516 1.043.285.61.928.207 1.292.603.358.39.837.708 1.316.933.37.171.752.33.77.745.037.927 1.213.878 1.353 1.695.042.238.218.128.34.037.297-.232.648-.049.952-.134.303-.086.636-.214.843-.433.09-.098-.134-.458-.152-.708-.036-.549-.079-1.11-.024-1.659.054-.525-.134-.811-.595-.994-.14-.055-.34-.323-.321-.342.703-.896-.358-1.085-.63-1.573-.183-.324.102-.507.114-.744.013-.263-.412-.183-.545-.476-.407-.89-1.583-.525-2.147-1.257-.085-.11-.716.092-.995.287-.406.293-.819.268-1.25.268-.224 0-.473-.006-.545-.25-.08-.256-.128-.591.14-.756.867-.537 1.758-1.269 2.813-.933.564.183 1.153.518 1.698.83 1.444.829 1.462.829 2.214 2.311.206.415.48.732.789 1.03.34.33.176.727.254 1.086-.078.037-.194.055-.236.116-.055.086.024.165.11.104.157-.037.175-.146.205-.232zM78.9 92.982c.085-.037.2-.043.249-.11.06-.08-.018-.17-.11-.116-.066.037-.078.159-.115.244-.085.037-.2.049-.248.116-.06.085.024.165.115.11.06-.037.079-.159.11-.244zm9.607-34.516c-.57-.42-1.14-.835-1.922-.695-.267.049-.595.085-.765-.177-.588-.909-1.595-.598-2.371-.726-1.553-.25-1.583-.11-2.378-.738-.236-.189-.394-.274-.679-.08-.157.105-.43.02-.637.068-.51.128-.952-.372-1.467-.134-.346-.543-1.062.482-1.359-.33-.073-.195-.255-.079-.382.019-.346.268-.776.17-1.11.091-.807-.183-1.516 0-2.262.263-1.05.372-2.135.634-3.184 1.043-1.025.402-1.826.927-2.578 1.738-.722.774-1.862 1.104-2.547 1.982-.037.043-.079.08-.097.134-.091.244-.025.427.23.506 1.007.305 1.862-.164 2.353-.89 1.038-1.519 2.815-1.33 4.173-2.08.121-.067.328.012.491.006.376-.018.65.061.631.525-.012.384.073.848-.54.774-.624-.073-1.091.525-1.722.36-.491-.128-.57.946-1.207.415-.024-.018-.17.104-.255.159-.194.134-.218.365-.315.554-.121.232-.297.464-.6.525-.631.128-.82.823-1.408 1.086-.418.189-.685 1.012-.485 1.378.322.592.855-.018 1.274-.158.242-.08.455-.3.643-.488.649-.66 1.267-1.336 2.104-1.787.777-.421 1.735-.44 2.353-1.263.231-.305 1.104.122 1.286-.659.012-.042.225-.091.297-.048.358.195.595.47.534.927-.042.323.03.646-.46.713-.662.086-1.238.39-1.638.952-.45.628-1.316.091-1.777.67-.055.074-.213.056-.291.123-.65.555-1.001 1.42-1.947 1.683-.213.061-.358.64-.395 1-.03.311.419.201.589.409.418.5.673.488.667-.25 0-.146.151-.256.346-.275.812-.06 1.304-.695 1.94-1.085.419-.256.546-.787 1.031-.903.625-.146 1.323-.183 1.304-1.104 0-.146.116-.177.213-.11.691.513 1.049-.268 1.577-.408.412-.11.746-.397 1.219-.409.558-.012.582.402.74.707.248.488-.304.238-.437.41-.152.194-.449.359-.692.377-.843.067-1.473.653-2.146 1.013-.692.366-1.165 1.134-2.069 1.317-.455.092-.582.89-.34 1.434.31.689.722.012 1.08.073.316.055.473-.208.698-.36.618-.433 1.34-.757 1.868-1.275.582-.573 1.358-.634 1.97-1 1.28-.763 2.688-.988 4.07-1.305.558-.129 1.213-.482 1.705-.305 1.013.366 2.104.189 3.105.725 1.195.64 1.916.067 1.947-1.317.006-.275.103-.665-.037-.811-.503-.53.2-1.153-.048-1.458-.516-.622.279-1.025.079-1.53.079-.037.194-.05.236-.117.061-.085-.018-.164-.109-.11-.048.025-.06.14-.097.226zm-7.66 38.163c-.418-.06-.873.208-1.267-.122a.927.927 0 01-.219-.244c-.164-.268.11-.207.212-.28 1.135-.787 2.602-.604 3.76-1.324 1.711.11 2.833-1.14 4.186-1.848.181-.098.34-.287.278-.549-.066-.28-.29-.28-.509-.28-.928-.007-1.79.268-2.626.652-.813.372-1.777.354-2.48.994-.631-.597-.856.415-1.365.348-.631-.08-1.165.232-1.656.567-1 .683-2.305-.055-3.275.744-.024.019-.103-.012-.146-.036-.558-.397-1.067-.287-1.668-.006-.588.274-1.297-.043-1.413-.458-.097-.341.455-1.018 1.025-1.11 1.28-.201 2.469-.604 3.542-1.342.837.14.934-.591 1.225-1.073.261-.433.03-.586-.394-.58-.273.006-.606-.103-.813.012-.837.476-1.97.22-2.626 1.11-.14.196-.412.281-.588.177-.734-.42-1.104-.054-1.528.525-.188.262-.595.427-1.11.22-.595-.232-.407.841-.97.89-.146.012-.316-.055-.443-.134-.273-.17-.516-.232-.631.146-.079.256-.249.378-.48.342-.254-.037-.557-.287-.727-.201-.237.115-.194.646-.673.549-.407-.086-.667.567-1.043.305-.546-.385-.995.11-1.493.042-.54-.073-1.043.14-1.564.256-.752.171-1.492.232-2.256.537-.91.366-1.031.177-1.02.897.013.536-.114 1.073.104 1.628.17.433-.2.897.079 1.464.254.53-.03 1.299.115 1.958-.661.506-.57 1.043-.091 1.622.194.232.164.531.042.781-.673 1.366-.079 2.616.291 3.897.152.537.474.616.959.586.546-.031.715-.72 1.261-.677.528.043.97.494 1.553.329.206-.055.467.055.655-.024 1.25-.537 2.675-.195 3.906-.787.085-.043.218-.11.267-.079.879.61 1.522-.049 2.244-.378.345-.159.727-.452 1.152-.074.291.263.655.275.983.013.412-.324.891-.36 1.388-.324.831.061 1.571-.14 2.335-.524.443-.226.97-.433 1.632-.36.57.067 1.34-.11 1.94-.348.71-.286 1.323-.768 2.154-.451.115.043.333-.037.442-.134.25-.214.486-.452.692-.708.352-.433.649.299.989.031.242-.195.46-.641.794-.433.51.311.928-.006 1.086-.263.29-.475.715-.683 1.152-.768.57-.11.764-.458 1.031-.897.613-1-.152-.414-.467-.536-.54-.208-.946-.324-1.516 0-.492.274-1.359-.263-1.607.689-.007.018-.243.03-.304-.025-.455-.445-.74-.103-1.116.153-.558.372-1.091.872-1.892.323-.4-.268-.667-.5-.34-.604.546-.177.661-1.043 1.426-.811.315.098.63-.036.915-.25 1.056-.799 2.493-.561 3.585-1.293.722.525 1.025-.14 1.443-.5.243-.214.504-.409.752-.61.08-.067.425-.177.164-.207-.546-.061-1-.683-1.516-.403-.722.384-1.595.232-2.268.756-.522.409-1.153.488-1.814.586-.479.067-1.055-.067-1.516.42-.655.69-.74.635-1.389-.09-.315-.349-.285-.641.127-.69.461-.049.789-.335 1.201-.464.346-.103.74-.518.965-.426.758.298.406-.64.83-.653.152-.006.31-.14.455-.122.625.08 1.098-.403 1.735-.378.983.042 1.401-1 2.202-1.348.157-.067.157-.214.012-.214-.619.019-1.092-.695-1.826-.238-1.462.91-3.233 1.037-4.76 1.812-.577.293-1.208.47-1.881.317zm16.23-28.166c-.006-.311 0-.519-.291-.726-.467-.33-.934-.86-.952-1.385-.025-.768-.558-1.31-.65-1.94-.09-.652-.855-.694-.836-1.438.012-.495-.376-1.281-1.274-1.214-.152.012-.437-.232-.473-.397-.249-1.256-1.51-1.42-2.238-2.153-.17-.17-.461-.097-.497.153-.049.39-.467.622-.213 1.19.376.84.455 1.865.128 2.756-.23.622.097 1.116.048 1.677-.018.226.122.33.364.44.874.396 1.96.506 2.39 1.585.637 0 .934.33.964.964.006.122.2.299.34.335.77.22 1.013 1.037 1.662 1.428.503.298.885.902.837 1.506-.055.634.46.769.667 1.153.12.22.218.39.454.33.261-.068.225-.324.231-.537.03-.867-.024-1.812-.43-2.501-.28-.488-.704-.72-.231-1.226zM78.184 93.477c-.03-.037-.061-.073-.097-.104-.037.03-.073.061-.104.098.049.036.097.073.146.103.018-.03.036-.067.054-.097z"/><path d="M35.02 59.779c-.517-.061-.905-.64-.686-1.086.212-.433.588-.756.837-1.195.303-.531 1.164-.458 1.352-1.342.134-.616.958-.97 1.553-1.36.352-.232.594-.592 1.043-.757.206-.073.752-.103.649-.494-.146-.56.206-.634.546-.756.437-.159.188-.58.34-.842.193-.33.472-.64.545-.994.207-.976.43-1.982-.018-2.958-.212-.457-.376-.878-.449-1.409-.085-.634-.564-1.195-1.091-1.702-.71-.683-1.038-1.756-2.117-2.073-.425-1.171-1.735-1.678-2.086-2.965-.34-1.232-1.34-2.214-1.565-3.531-.861-.366-.182-1.659-1.17-1.946.054-.713-.31-1.39-.128-2.147.085-.353-.121-.866-.352-1.195-.697-.994-.364-2.08-.4-3.135.515-.226-.558-.97.346-1.074-.225-.414.175-.744.157-1.14-.024-.494.024-1-.018-1.494-.036-.482.249-1.019.473-1.153 1.268-.763 1.71-2.36 3.136-2.964.376-.159.643-.58 1.14-.476.23.043.449-.006.588-.201.837-1.123 2.232-.958 3.318-1.489 1.431-.695 3.208-.695 4.282-2.11.824-.067 1.455-.573 2.153-.94.97-.512 1.08-.75 1.82-2.012.436-.744 1.024-1.372.988-2.33-.006-.201.321-.427.51-.628a.638.638 0 01.272-.183c.103-.025.661 1.165.613 1.293-.395 1.086-.376 1.073.224 1.8.31.371.989.676.37 1.329.528.89 1.092 1.756 2.117 2.153.145.055.388.037.443.134.812 1.409 2.62 1.488 3.584 2.757.273.36.825.409.46 1.03-.09.153.068.287.231.36.874.39 1.037 1.153 1.056 2.007.012.561-.08 1.05.54 1.55.485.396.733 1.366.709 2.067-.043 1.067.916 2.074.158 3.153.454.696.17 1.482.267 2.22.066.519-.558.885-.328 1.397.455.988.067 1.836-.285 2.733-.133.335-.206.86-.042 1.122.394.61.194 1.238-.085 1.628-.613.867.084 1.763-.25 2.617-.145.378.068.86-.266 1.25-.121.14-.188.476-.097.616.588.933.091 2.062.57 3.001.188.372.067.756.091 1.135.049.744.28 1.11.892 1.543.321.225.612.512.242.945-.176.208-.133.397.067.561 1.086.879 1.547 1.421 2.11 2.647.11.232.189.372.431.378.303.013.588.098.546.446-.06.56.218.92.558 1.299.237.262.049.494-.145.707-.213.226-.346.055-.546-.03-.249-.11-.516-.17-.686-.409-.533-.744-1.188-1.336-2.007-1.75-.291-.147-.413-.44-.492-.8-.12-.536-.557-.67-1.146-.5-.697.202-1.613.818-2.159 1.477-.206.25-.37.53-.752.555-.297.018-.552-.293-.728-.232-.188.067-.255.445-.412.659-.297.402-.734-.275-.813-.05-.297.83-1.092.5-1.601.812-1.2.726-2.578.683-3.894.756-.364.019-.764-.042-1.158.03-.528.105-1.104-.152-1.595.233-.595.463-.74-.629-1.207-.372-.34.183-.473-.129-.722-.16-.51-.06-.976.641-1.364.263-.364-.36-.637-.628-1.177-.628-.558 0-.764-.573-1.134-.884-.698-.592-1.031-.598-1.62.115-.2.244-.345.543-.485.83-.206.42-.643-.11-.776.152-.63 1.22-1.826 1.77-2.826 2.556-.17.134.17.543-.188.769-.25.152-.655.115-.698.585-.036.238-.346.232-.564.226zm11.504-42.83c-.036-.085-.054-.2-.121-.237-.085-.055-.164.03-.11.116.043.06.159.073.237.11-.43.347-.49 1.402-1.45.75-.06-.037-.254.183-.387.195-.443.043-.698.378-.88.683-.358.592-.891-.189-1.098.147-.248.402-.77.847-.915.762-.619-.348-.728.098-1.122.354-.443.293-1.098.36-1.59.707-.46.323-1.103.262-1.503.738-.4.47-1.025.476-1.56.659-.163.055-.381.134-.357.25.164.738-.558.707-.855 1.037-.68.744-1.42 1.445-1.183 2.617.103.506.037.994-.418 1.341-.237.19-.037.348.006.543.06.293.467.512.236.854-.303.451.049.805.097 1.202.067.555.692 1.085.37 1.53-.527.726-.078 1.214.128 1.806.34.994 1.122 1.848.922 3.013-.03.177.085.372.236.378.685.043.17.897.782 1.086.443.134.498.774.716 1.189.224.427.443.86.667 1.293.692-.262.655.415.861.72.261.378.219.402.795.848.376.292.455.786.716 1.158.115.165.34.257.497.397.995.872 2.16 1.635 1.983 3.233-.012.097.019.237.085.298 1.213 1.043.152 2.422.534 3.587-.528.494-.14 1.274-.576 1.836-.164.213-.097.664.418.658.382 0 .916-.03 1 .378.165.763.82.671 1.25.812 1.068.353 2.317.884 3.294.39.994-.5 1.825-.256 2.74-.22.328.013.632.025.941.202.334.195.588.11.94-.25.437-.452 1.165-.867 1.759-.854.904.024 1.589-.3 2.268-.757.273-.189.48-.481.843-.213.14.104.261.152.346-.061.334-.854 1.073-1.159 1.85-1.458.176-.067.29-.305.437-.457-.559-.372-.019-1.092-.48-1.507-.34-.305-.66-.628-.212-1.098-.273-.335-.558-.658-.819-1a.345.345 0 01.012-.451c.558-.659.413-1.372.073-2.031-.34-.647-.042-1.306-.182-1.946-.06-.299.303-.384.23-.72-.12-.524.152-1.988.328-2.427.206-.519.613-.994.128-1.61-.152-.19 0-.519.212-.738.188-.19.43-.366.4-.683-.133-1.434.237-2.818.34-4.233.06-.818-.564-1.635-.006-2.464.054-.086-.073-.3-.134-.446-.133-.317-.412-1.878-.297-2.403.049-.232-.048-.299-.14-.384-.509-.482-.709-1.195-.66-1.763.066-.81-.704-1.14-.728-1.811-.06-1.464-1.134-2.275-2.02-3.208-1.225.042-1.722-1.117-2.59-1.653-.715-.445-1.473-.94-2.062-1.525-.576-.573-.388-1.622-.837-2.367-.151-.25-.267-.085-.533-.048-.947.116-.504 1.116-1.062 1.488-.897.591-1.686 1.39-2.79 1.659z"/><path d="M56.453 4.97c-1.037.086-1.94-.078-2.414-1.176-.079-.183-.297-.427-.467-.44-.88-.079-1.613-.579-2.371-.914-.57-.256-.965.292-1.48-.019-.388-.231-.825-.475-1.359-.445a9.938 9.938 0 00-2.82.555c-.934.342-2.038.232-2.808 1.043-.182.195-.534.159-.758-.036-.23-.196-.437-.116-.504.091-.206.604-.727.78-1.225.848-.982.14-1.498.994-2.28 1.421-.134.073-.134.433-.419.384-.667-.116-.825.513-1.225.775-.594.384-1.17.811-1.656 1.287-.521.506-1.437.726-1.419 1.756.006.275-.455.598-.752.836-.449.366-1.092.58-.861 1.366-.619.452-.8 1.238-1.286 1.763-.436.47-.606.94-.721 1.573-.158.89-.164 1.824-.577 2.684-.206.433-.224.94 0 1.464.273.634-.066 1.317-.109 1.982-.06.97-.006 1.958-.242 2.916-.025.103-.037.299.012.317.903.439.127 1.244.394 1.86.224.518.17 1.171.412 1.72.152.348-.248.53-.206.878.073.604.06 1.214.043 1.824-.012.396.048.848.145 1.147.291.933.164 1.842.158 2.763 0 .506.364 1 .26 1.396-.09.366-.163.805-.157 1.117.024 1.81-.983 3.458-.77 5.294.036.329-.164.762-.389 1.036-.994 1.22-1.34 2.672-1.552 4.166-.067.488-.522.854-.37 1.39-.85.708-.619 1.678-.637 2.593-.006.384 0 .775-.079 1.147-.103.5-1.08 1.122-1.534 1.03-.407-.079-1.074-1.006-.904-1.463.358-.952.043-2.05.764-2.94.346-.427.188-1.135.255-1.696.152-1.305.006-1.342.807-2.293.582-.695.697-1.562.958-2.36.26-.781.055-1.727.952-2.245.11-.061.134-.293-.012-.433-.297-.293-.273-.573.024-.842.255-.225.48-.463.395-.841-.419-1.934.188-3.855.06-5.8-.073-1.087-.248-2.148-.364-3.221l-.018.018c.121-.037.28-.049.237-.226-.019-.06-.152-.085-.23-.128l.011.013c-.079-.806.067-1.617-.279-2.416-.182-.42-.097-.988-.042-1.476.17-1.415.182-2.452-.182-3.41-.152-.402-.176-.695.024-1.073.212-.39.394-.744.194-1.299-.26-.707.51-1.525-.048-2.287.236-.726.073-1.513.345-2.226.286-.744.619-1.47.892-2.22a1.96 1.96 0 01.528-.805c.442-.421.782-.921.855-1.531.054-.446.285-.665.649-.86.679-.366 1.067-.921 1.437-1.653.504-.982 1.062-2.16 2.426-2.348.146-.019.413-.129.413-.177-.091-1 .66-1.08 1.328-1.312.236-.079.424-.347.594-.56.958-1.196 1.625-1.489 3.154-2.075.916-.353 1.971-.579 2.705-1.22 1.468-1.28 3.166-.872 4.81-.957.964.708 2.007.244 3.002.134.388-.043.703-.14 1.055.104a6.618 6.618 0 002.31.994c.947.214 1.65.86 2.342 1.482.679.61.612 1.47.546 2.293l.03-.036z"/><path d="M56.428 5.001c.376-.024.297-.402.455-.597.26-.336.576-.494 1-.415.595.104 1.177.683 1.814.055.043-.043.328.06.419.164.315.372.685.507 1.164.458a.697.697 0 01.752.53c.182.806.85.995 1.444 1.104.71.135 1.116.482 1.467 1.074.613 1.037 1.729 1.708 2.087 2.94.103.354.406.628.34 1.055-.098.634.903.756.721 1.458.661.408.48 1.317 1.043 1.793.103.085.2.33.158.427-.315.683.11 1.195.346 1.762.345.842.63 1.69.734 2.617.054.488-.03 1.055.412 1.55.455.506.358 1.341.146 1.896-.255.659-.104 1.3-.23 1.934-.128.622-.037 1.28-.347 1.896-.103.208-.115.555.097.781.759.817.25 1.732.122 2.574-.055.366-.255.64.018 1.019.145.207.11.53-.079.768-.224.287-.26.61-.103.927.334.683.394 1.318-.024 2.013-.14.232-.037.646.036.958.164.731.57 1.47.504 2.17-.073.69.115 1.324.084 1.99-.036.7.14 1.378.243 2.067.127.805.861 1.476.497 2.403-.079.195.194.665.425.83.885.615.976 1.67 1.377 2.518.382.818.649 1.69 1.2 2.422.091.116.395 2.202.4 2.378.019.531-.412.714-.74.934-.272.183-.618-.519-.951-.019l-.146-.439-.249-1.927c-.224-.488-.357-1.03-.77-1.41-.254-.23-.267-.42-.036-.67.054-.061.054-.262 0-.305-.249-.201-.552-.341-.783-.561-.212-.201.255-.5-.103-.8-.673-.56-1.03-1.469-1.382-2.329-.4-.994-.71-2.007-1.068-3.007-.115-.317-.218-.604-.218-.933 0-.653-.08-1.269-.285-1.91-.194-.61-.328-1.329-.067-1.987.249-.623.103-1.202-.079-1.794-.06-.2-.285-.445-.224-.585.424-.994-.091-2.086.315-3.044.267-.628.285-1.25.34-1.897.079-.854.273-1.695.443-2.53.03-.147.012-.306.036-.397.218-.836-.619-1.555-.17-2.452.388-.775.055-1.653-.152-2.44-.127-.488.407-.848.067-1.342-.26-.384-.394-.872-.546-1.323-.115-.336.443-.543.237-.89-.152-.257-.576-.214-.655-.66-.043-.25-.085-.414-.025-.695.092-.408.364-1.012-.381-1.201.145-.598-.055-1.037-.48-1.488-.364-.39-.734-.812-.867-1.41-.085-.384-.4-.75-.655-1.103-.406-.58-.77-1.232-.843-1.983-.012-.158-.012-.335-.079-.475-.218-.476-.746-.366-1.098-.58-.406-.244.061-1.146-.345-1.116-.77.055-.855-.805-1.614-.854-.77-.049-1.473-.762-2.322-1.018-.607-.183-1.129-.25-1.717-.11-.788.189-.788.189-1.073-.793L56.428 5zM30.33 73.496c-.011.427.122.945-.582.92-.188-.005-.333.074-.376.239-.115.475-.527.683-.825 1-.624-.445-1.376-.085-2.031-.317-.188-.067-.334-.28-.491-.44-.104-.103-.2-.134-.243-.036a.675.675 0 00-.055.311c.097 1.324.067 1.397-.8 2.263-.146.146-.206.372-.334.537-.17.213-.358.42-.576.591-.297.238-1.122.22-1.195-.03-.109-.385-.31-.927.23-1.116.389-.135.364-.495.601-.708.522-.482 1.122-.994 1.062-1.848-.03-.433.078-.958-.122-1.28-.242-.385-.813-.172-1.231-.172-.534.007-.57-.28-.655-.713-.17-.86.51-1.3.88-1.836.193-.28.782-.195 1.188.11.504.378.673.982 1.055 1.445.28.336-.145.659-.29.964-.165.348.09.402.254.33.57-.263 1.11.054 1.662.036.54-.018 1.116.104 1.504-.44.188-.255.491-.182.746-.255.643-.183.637-.202.625.445zM28.341 68.183c-.297.385-.546.91-.952 1.184-.327.213-.83.097-1.188-.269-.377-.378-.631-1.134-.443-1.476.267-.47 1.413-.72 1.904-.36.291.214.637.433.68.921zM19.747 74.362c-.29-.018-1.212-.94-1.206-1.202.006-.36.885-1.08 1.285-1.049.4.03.928.567.922.933-.012.592-.582 1.348-1 1.318zM27.371 30.216c-.133-.019-.285-.025-.236-.214.012-.055.151-.073.236-.11l-.012-.012c0 .116 0 .232-.006.348 0 .006.018-.012.018-.012zM45.572 28.96c-.485.432-.352.993-.352 1.536 0 .287.073.378.358.214.322-.183.661-.379 1.013-.452.285-.06.691-.158.88.201.145.287-.176.482-.273.726-.176.47-.65.519-1.026.671-.236.098-.545.067-.812.025-.407-.055-.692.664-1.159.146-.236-.262-.485-1.464-.43-1.903.103-.805.819-1.53.176-2.458-.164-.238.206-.89.394-1.323.103-.238.34-.488.643-.397.248.08.479.299.521.58.03.2.025.512-.097.616-.546.445-.34.89-.085 1.36.073.14.152.28.25.457zM51.134 35.21c-.006.715-.874 1.703-1.771 2.008-.6.207-1.298.067-1.838.487-.182.147-.285.03-.4-.067-.243-.207-.43-.463-.825-.451-.425.012-.728-.25-.722-.701 0-.257.91-.69 1.17-.5.407.298.82.219 1.244.225.68.006 1.243-.17 1.577-.842.267-.536.776-.524 1.28-.47.163.013.297.105.285.312zM40.04 28.245c-.86-.079-1.485-.707-1.437-1.445.049-.726.831-1.592 1.39-1.525.733.085 1.315.75 1.255 1.44-.037.481-.886 1.561-1.207 1.53zM50.357 21.64c.322.33.667.238.989.293.588.104.988 1.116.637 1.634-.182.269-.486.433-.546.8-.03.176-.255.207-.407.17-.746-.189-1.297-.628-1.698-1.293-.2-.33.158-.463.212-.707.085-.421.486-.647.813-.897z"/></g><defs><clipPath id="clip0"><path fill="#fff" d="M0 0h101v111H0z"/></clipPath></defs></svg>